<?xml version="1.0" encoding="UTF-8"?>
<svg width="375px" height="355px" viewBox="0 0 375 355" version="1.1" xmlns="http://www.w3.org/2000/svg" xmlns:xlink="http://www.w3.org/1999/xlink">
    <defs>
        <linearGradient x1="23.4846136%" y1="50%" x2="96.8697213%" y2="50%" id="linearGradient-1">
            <stop stop-color="#D6805A" offset="0%"></stop>
            <stop stop-color="#FAFAFA" offset="68.8872466%"></stop>
            <stop stop-color="#D6805A" offset="100%"></stop>
        </linearGradient>
        <linearGradient x1="23.4846136%" y1="50%" x2="96.8697213%" y2="50%" id="linearGradient-2">
            <stop stop-color="#B01E41" offset="0%"></stop>
            <stop stop-color="#FAFAFA" offset="68.8872466%"></stop>
            <stop stop-color="#B01E41" offset="100%"></stop>
        </linearGradient>
        <linearGradient x1="23.4846136%" y1="50%" x2="96.8697213%" y2="50%" id="linearGradient-3">
            <stop stop-color="#164D61" offset="0%"></stop>
            <stop stop-color="#FAFAFA" offset="68.8872466%"></stop>
            <stop stop-color="#164D61" offset="100%"></stop>
        </linearGradient>
        <linearGradient x1="23.4846136%" y1="50%" x2="96.8697213%" y2="50%" id="linearGradient-4">
            <stop stop-color="#F9D26E" offset="0%"></stop>
            <stop stop-color="#FAFAFA" offset="68.8872466%"></stop>
            <stop stop-color="#F9D26E" offset="100%"></stop>
        </linearGradient>
        <linearGradient x1="23.4846136%" y1="50%" x2="96.8697213%" y2="50%" id="linearGradient-5">
            <stop stop-color="#F9D26E" offset="0%"></stop>
            <stop stop-color="#FAFAFA" offset="68.8872466%"></stop>
            <stop stop-color="#F9D26E" offset="100%"></stop>
        </linearGradient>
        <linearGradient x1="23.4846136%" y1="50%" x2="96.8697213%" y2="50%" id="linearGradient-6">
            <stop stop-color="#F9D26E" offset="0%"></stop>
            <stop stop-color="#FAFAFA" offset="68.8872466%"></stop>
            <stop stop-color="#F9D26E" offset="100%"></stop>
        </linearGradient>
        <linearGradient x1="23.4846136%" y1="50%" x2="96.8697213%" y2="50%" id="linearGradient-7">
            <stop stop-color="#F9D26E" offset="0%"></stop>
            <stop stop-color="#FAFAFA" offset="68.8872466%"></stop>
            <stop stop-color="#F9D26E" offset="100%"></stop>
        </linearGradient>
        <linearGradient x1="23.4846136%" y1="50%" x2="96.8697213%" y2="50%" id="linearGradient-8">
            <stop stop-color="#F9D26E" offset="0%"></stop>
            <stop stop-color="#FAFAFA" offset="68.8872466%"></stop>
            <stop stop-color="#F9D26E" offset="100%"></stop>
        </linearGradient>
        <linearGradient x1="23.4846136%" y1="50%" x2="96.8697213%" y2="50%" id="linearGradient-9">
            <stop stop-color="#F9D26E" offset="0%"></stop>
            <stop stop-color="#FAFAFA" offset="68.8872466%"></stop>
            <stop stop-color="#F9D26E" offset="100%"></stop>
        </linearGradient>
        <linearGradient x1="28.625135%" y1="50%" x2="96.8697213%" y2="50%" id="linearGradient-10">
            <stop stop-color="#808080" offset="0%"></stop>
            <stop stop-color="#FAFAFA" offset="49.3823902%"></stop>
            <stop stop-color="#808080" offset="85.0058066%"></stop>
            <stop stop-color="#808080" offset="100%"></stop>
        </linearGradient>
        <linearGradient x1="23.4846136%" y1="50%" x2="96.8697213%" y2="50%" id="linearGradient-11">
            <stop stop-color="#808080" offset="0%"></stop>
            <stop stop-color="#FAFAFA" offset="68.8872466%"></stop>
            <stop stop-color="#808080" offset="100%"></stop>
        </linearGradient>
        <linearGradient x1="23.4846136%" y1="50%" x2="96.8697213%" y2="50%" id="linearGradient-12">
            <stop stop-color="#808080" offset="0%"></stop>
            <stop stop-color="#FAFAFA" offset="68.8872466%"></stop>
            <stop stop-color="#808080" offset="100%"></stop>
        </linearGradient>
    </defs>
    <g id="Artboard" stroke="none" stroke-width="1" fill="none" fill-rule="evenodd">
        <g id="driver-L-wiring" transform="translate(48.000000, 209.000000)" stroke-linecap="square" stroke-linejoin="round" stroke-width="2">
            <polyline id="driver-L-gnd" stroke="#D6805A" points="3 7 3 3 9 3"></polyline>
            <polyline id="driver-L-channel" stroke="#164D61" points="0 7 0 0 8 0"></polyline>
        </g>
        <path d="M66,171 C66.5522847,171 67,171.447715 67,172 L67,250 C67,250.552285 66.5522847,251 66,251 L61,251 C60.4477153,251 60,250.552285 60,250 L60,228 L58,228 C57.4477153,228 57,227.552285 57,227 L57,195 C57,194.447715 57.4477153,194 58,194 L60,194 L60,172 C60,171.447715 60.4477153,171 61,171 L66,171 Z" id="driver-L" stroke="#808080" stroke-width="0.5" fill="#FFFFFF"></path>
        <g id="driver-R-wiring" transform="translate(45.000000, 8.000000)" stroke-width="2">
            <path d="M276.5,205 C284.5,205 288.5,205 288.5,205 C288.5,205 288.5,131.013514 288.5,130" id="channel" stroke="#B01E41" stroke-linejoin="round"></path>
            <path d="M1,131 C1,56 68.3903499,0 144.76608,0 C221.14181,0 288.532159,56 288.5,130.498258" id="channel" stroke="#B01E41"></path>
            <line x1="1" y1="208" x2="1" y2="131" id="channel" stroke="#B01E41"></line>
            <path d="M276.5,202 C280.5,202 282.5,202 282.5,202 C282.5,202 282.5,130.972973 282.5,130" id="gnd" stroke="#D6805A" stroke-linecap="round" stroke-linejoin="round"></path>
            <path d="M6,131 C6,58.8625954 70.7598805,5 144.154412,5 C217.548943,5 282.531507,58.8451871 282.5,130.5" id="gnd" stroke="#D6805A"></path>
            <line x1="6" y1="204" x2="6" y2="131" id="gnd" stroke="#D6805A" stroke-linecap="round"></line>
        </g>
        <path d="M320,171 C320.552285,171 321,171.447715 321,172 L321,250 C321,250.552285 320.552285,251 320,251 L315,251 C314.447715,251 314,250.552285 314,250 L314,228 L312,228 C311.447715,228 311,227.552285 311,227 L311,195 C311,194.447715 311.447715,194 312,194 L314,194 L314,172 C314,171.447715 314.447715,171 315,171 L320,171 Z" id="driver-R" stroke="#808080" stroke-width="0.5" fill="#FFFFFF" transform="translate(316.000000, 211.000000) scale(-1, 1) translate(-316.000000, -211.000000) "></path>
        <g id="TRS-Connector" transform="translate(132.500000, 250.500000) rotate(-180.000000) translate(-132.500000, -250.500000) translate(121.000000, 194.000000)">
            <g id="Outside" transform="translate(0.000000, 58.000000)">
                <g id="Separators" transform="translate(7.000000, 31.000000)" fill="#25292C">
                    <rect id="Rectangle" x="0" y="0" width="9" height="3.05555556"></rect>
                    <rect id="Rectangle" x="0" y="7.94444444" width="9" height="3.05555556"></rect>
                </g>
                <g id="Coloured" transform="translate(6.837838, 15.954545)" stroke="#808080">
                    <rect id="S-coloured" fill="url(#linearGradient-1)" x="0" y="8.8817842e-15" width="9.32432432" height="14.7272727"></rect>
                    <rect id="R-coloured" fill="url(#linearGradient-2)" x="0" y="17.7954545" width="9.32432432" height="4.90909091"></rect>
                    <polygon id="T-coloured" fill="url(#linearGradient-3)" points="4.15283423e-15 25.7727273 9.32432432 25.7727273 9.32432432 26.7144796 8.08108108 27.9204545 8.7027027 35.5909091 6.21621622 38.0454545 3.10810811 38.0454545 0.621621622 35.5909091 1.24324324 27.9204545 4.15283423e-15 26.7144796"></polygon>
                </g>
                <g id="Gold" transform="translate(6.837838, 15.954545)" stroke="#808080">
                    <rect id="S" fill="url(#linearGradient-4)" x="0" y="8.8817842e-15" width="9.32432432" height="14.7272727"></rect>
                    <rect id="R" fill="url(#linearGradient-5)" x="0" y="17.7954545" width="9.32432432" height="4.90909091"></rect>
                    <polygon id="T" fill="url(#linearGradient-6)" points="1.83636889e-14 25.7727273 9.32432432 25.7727273 9.32432432 26.7144796 8.08108108 27.9204545 8.7027027 35.5909091 6.21621622 38.0454545 3.10810811 38.0454545 0.621621622 35.5909091 1.24324324 27.9204545 1.83636889e-14 26.7144796"></polygon>
                    <animate attributeName="opacity" values="1; 1; 0; 0; 1" dur="10s" repeatCount="indefinite"/>
                </g>
                <g id="S-rest" stroke="#808080">
                    <rect id="Rectangle" fill="url(#linearGradient-7)" x="1.86486486" y="3.06818182" width="19.2702703" height="4.29545455"></rect>
                    <rect id="Rectangle" fill="url(#linearGradient-8)" x="3.10810811" y="7.36363636" width="16.7837838" height="8.59090909"></rect>
                    <rect id="Rectangle" fill="url(#linearGradient-9)" x="0" y="-2.08721929e-14" width="23" height="4.29545455"></rect>
                </g>
            </g>
            <g id="Inside" transform="translate(2.000000, 0.000000)">
                <path d="M5.5,7 L4,7 C2.34314575,7 1,5.65685425 1,4 L1,3.5 C1,1.84314575 2.34314575,0.5 4,0.5 L15,0.5 C16.6568542,0.5 18,1.84314575 18,3.5 L18,4 C18,5.65685425 16.6568542,7 15,7 L14,7 L14,7 L14,29 L14,51.4090909 L5.5,43.5 L5.5,7 Z" id="S" stroke="#808080" stroke-width="0.25" fill="url(#linearGradient-10)"></path>
                <path d="M6.03568493,7.36959714 C6.01189498,9.78986571 5.33333333,12.3333333 4,15 C2,19 2.5,23.5 2.5,23.5" id="R-wire" stroke="#B01E41" stroke-width="2" stroke-linecap="round"></path>
                <path d="M12.0356849,7.36959714 C12.011895,17.4565324 12,22.5 12,22.5" id="S-wire" stroke="#D6805A" stroke-width="2" stroke-linecap="round"></path>
                <rect id="R" stroke="#808080" stroke-width="0.25" fill="url(#linearGradient-11)" x="1" y="21" width="3" height="23"></rect>
                <path d="M9.03568493,7.36959714 C9.03568493,7.36959714 9,33 9,33" id="T-wire" stroke="#164D61" stroke-width="2" stroke-linecap="round"></path>
                <polygon id="T" stroke="#808080" stroke-width="0.25" fill="url(#linearGradient-12)" points="7 29 10.8378378 33 11 43.7272727 7 43.7272727"></polygon>
                <rect id="insulator" stroke="#808080" fill="#25292C" x="0" y="43.2727273" width="19" height="14.7272727"></rect>
            </g>
        </g>
        <g id="Wires" transform="translate(40.000000, 216.000000)">
            <g id="pcb" stroke-width="0.5">
                <path d="M2.5638852,-1.03584031e-16 L13.4361148,1.03584031e-16 C14.3276335,-6.01853049e-17 14.6509198,0.0928256111 14.9768457,0.267132704 C15.3027716,0.441439796 15.5585602,0.697228371 15.7328673,1.0231543 C15.9071744,1.34908022 16,1.67236646 16,2.5638852 L16,7.4361148 C16,8.32763354 15.9071744,8.65091978 15.7328673,8.9768457 C15.5585602,9.30277163 15.3027716,9.5585602 14.9768457,9.7328673 C14.6509198,9.90717439 14.3276335,10 13.4361148,10 L2.5638852,10 C1.67236646,10 1.34908022,9.90717439 1.0231543,9.7328673 C0.697228371,9.5585602 0.441439796,9.30277163 0.267132704,8.9768457 C0.0928256111,8.65091978 4.01235366e-17,8.32763354 -6.90560205e-17,7.4361148 L6.90560205e-17,2.5638852 C-4.01235366e-17,1.67236646 0.0928256111,1.34908022 0.267132704,1.0231543 C0.441439796,0.697228371 0.697228371,0.441439796 1.0231543,0.267132704 C1.34908022,0.0928256111 1.67236646,6.01853049e-17 2.5638852,-1.03584031e-16 Z" id="Rectangle" stroke="#BA9C7A" fill="#418156"></path>
                <circle id="Oval" stroke="#6E6F69" fill="#B7B5B3" cx="5" cy="3" r="2"></circle>
                <circle id="Oval" stroke="#6E6F69" fill="#B7B5B3" cx="11" cy="3" r="2"></circle>
                <circle id="Oval" stroke="#6E6F69" fill="#B7B5B3" cx="8" cy="7" r="2"></circle>
            </g>
            <polyline id="S" stroke="#D6805A" stroke-width="2" stroke-linecap="round" stroke-linejoin="round" points="90 83.5 90 108 11.5031847 108 11 3"></polyline>
            <polyline id="R" stroke="#B01E41" stroke-width="2" stroke-linecap="round" stroke-linejoin="round" points="96 83.5 96 114 5 114 5 3"></polyline>
            <polyline id="T" stroke="#164D61" stroke-width="2" stroke-linecap="round" stroke-linejoin="round" points="93 83.5 93 111 8 111 8 7"></polyline>
        </g>
        <g id="Headphone" opacity="0.7" transform="translate(13.000000, 6.000000)">
            <g id="Earphone-L" transform="translate(0.000000, 127.000000)">
                <path d="M44,6 C50.627417,6 56,11.372583 56,18 L56,134 C56,140.627417 50.627417,146 44,146 L22.6567168,146.002421 C8.90900238,130.240484 0,104.977295 0,76.5 C0,47.4133451 9.2943528,21.6798201 23.5458478,5.99886633 L44,6 Z" id="shell" stroke="#979797" fill="#25292C"></path>
                <rect id="pad" stroke="#979797" fill="#D8D8D8" x="45" y="0" width="30" height="152" rx="13"></rect>
                <polygon id="L" fill="#808080" fill-rule="nonzero" points="37.5830078 32 37.5830078 28.8652344 35.9423828 28.8652344 35.7958984 30.4960938 30.8544922 30.4960938 30.8544922 19.2949219 32.4462891 19.0214844 32.4462891 17.78125 27.3388672 17.78125 27.3388672 19.0214844 28.9306641 19.2949219 28.9306641 30.4960938 27.3388672 30.7695312 27.3388672 32"></polygon>
            </g>
            <g id="Earphone-R" transform="translate(314.500000, 203.000000) scale(-1, 1) translate(-314.500000, -203.000000) translate(277.000000, 127.000000)">
                <path d="M44,6 C50.627417,6 56,11.372583 56,18 L56,134 C56,140.627417 50.627417,146 44,146 L22.6567168,146.002421 C8.90900238,130.240484 0,104.977295 0,76.5 C0,47.4133451 9.2943528,21.6798201 23.5458478,5.99886633 L44,6 Z" id="shell" stroke="#979797" fill="#25292C"></path>
                <rect id="pad" stroke="#979797" fill="#D8D8D8" x="45" y="0" width="30" height="152" rx="13"></rect>
                <path d="M30.5332031,32 L30.5332031,30.7695312 L28.9414062,30.4960938 L28.9414062,25.6523438 L32.0273438,25.6523438 C32.7825521,25.6523438 33.3847656,25.8867188 33.8339844,26.3554688 C34.2832031,26.8242188 34.5078125,27.4459635 34.5078125,28.2207031 L34.5078125,28.2207031 L34.5078125,29.3242188 C34.5078125,30.0664062 34.6656901,30.6979167 34.9814453,31.21875 C35.2972005,31.7395833 35.8294271,32 36.578125,32 L36.578125,32 L37.6132812,32 L37.6132812,30.7402344 L37.1445312,30.6816406 C36.890625,30.6425781 36.7083333,30.5188802 36.5976562,30.3105469 C36.4869792,30.1022135 36.4316406,29.7799479 36.4316406,29.34375 L36.4316406,29.34375 L36.4316406,28.2011719 C36.4316406,27.3613281 36.2607422,26.6549479 35.9189453,26.0820312 C35.5771484,25.5091146 35.0188802,25.0957031 34.2441406,24.8417969 C34.9602865,24.5358073 35.5104167,24.1158854 35.8945312,23.5820312 C36.2786458,23.0481771 36.4707031,22.4361979 36.4707031,21.7460938 C36.4707031,20.4830729 36.0572917,19.508138 35.2304688,18.8212891 C34.4036458,18.1344401 33.2154948,17.7910156 31.6660156,17.7910156 L31.6660156,17.7910156 L25.4257812,17.7910156 L25.4257812,19.0214844 L27.0175781,19.2949219 L27.0175781,30.4960938 L25.4257812,30.7695312 L25.4257812,32 L30.5332031,32 Z M31.4707031,24.1386719 L28.9414062,24.1386719 L28.9414062,19.2949219 L31.6660156,19.2949219 C32.6490885,19.2949219 33.375,19.5130208 33.84375,19.9492188 C34.3125,20.3854167 34.546875,20.9778646 34.546875,21.7265625 C34.546875,22.5143229 34.3027344,23.1132812 33.8144531,23.5234375 C33.3261719,23.9335938 32.5449219,24.1386719 31.4707031,24.1386719 L31.4707031,24.1386719 Z" id="R" fill="#808080" fill-rule="nonzero" transform="translate(31.519531, 24.895508) scale(-1, 1) translate(-31.519531, -24.895508) "></path>
            </g>
            <path d="M176,0 C256.633573,0 322,59.5461283 322,133 L312,133 L312,133 C312,64.5772154 251.110726,9.10958904 176,9.10958904 C100.889274,9.10958904 40,64.5772154 40,133 L30,133 L30,133 C30,59.5461283 95.3664265,0 176,0 Z" id="headband" stroke="#979797" fill="#25292C"></path>
            <animate attributeName="opacity" values="1; 1; 0.1; 0.1; 1" dur="10s" repeatCount="indefinite"/>
        </g>
        <path d="M128,332 L51.0232194,331.999868 C51.0154901,331.999956 51.0077502,332 51,332 L45,332 C43.8954305,332 43,331.104569 43,330 L43,277 C43,274.238576 45.2385763,272 48,272 C50.7614237,272 53,274.238576 53,277 L53,321.999 L128,322 L128,299 L138,299 L138,330 C138,331.054362 137.184122,331.918165 136.149262,331.994514 L136,332 L136,332 L128,332 Z" id="jacket" stroke="#808080" fill="#25292C" opacity="0.70219494">
            <animate attributeName="opacity" values="1; 1; 0.1; 0.1; 1" dur="10s" repeatCount="indefinite"/>
        </path>
        <path d="M122.563885,246 L142.436115,246 C143.327634,246 143.65092,246.092826 143.976846,246.267133 C144.302772,246.44144 144.55856,246.697228 144.732867,247.023154 C144.907174,247.34908 145,247.672366 145,248.563885 L145,305.436115 C145,306.327634 144.907174,306.65092 144.732867,306.976846 C144.55856,307.302772 144.302772,307.55856 143.976846,307.732867 C143.65092,307.907174 143.327634,308 142.436115,308 L122.563885,308 C121.672366,308 121.34908,307.907174 121.023154,307.732867 C120.697228,307.55856 120.44144,307.302772 120.267133,306.976846 C120.092826,306.65092 120,306.327634 120,305.436115 L120,248.563885 C120,247.672366 120.092826,247.34908 120.267133,247.023154 C120.44144,246.697228 120.697228,246.44144 121.023154,246.267133 C121.34908,246.092826 121.672366,246 122.563885,246 Z" id="boot" stroke="#979797" fill="#25292C" opacity="0.7" transform="translate(132.500000, 277.000000) rotate(-180.000000) translate(-132.500000, -277.000000) ">
            <animate attributeName="opacity" values="1; 1; 0.1; 0.1; 1" dur="10s" repeatCount="indefinite"/>
        </path>
        <g id="TRS-label" transform="translate(142.000000, 195.000000)">
            <g id="Sleeve-(ground)" transform="translate(19.649902, 26.212891)" fill-rule="nonzero">
                <path d="M2.74462891,8.89990234 C3.57535807,8.89990234 4.24763997,8.70833333 4.76147461,8.32519531 C5.27530924,7.94205729 5.53222656,7.43538411 5.53222656,6.80517578 C5.53222656,6.2179362 5.31827799,5.72558594 4.89038086,5.328125 C4.46248372,4.93066406 3.8367513,4.62988281 3.01318359,4.42578125 C2.32926432,4.25390625 1.83422852,4.0542806 1.52807617,3.8269043 C1.22192383,3.59952799 1.06884766,3.31575521 1.06884766,2.97558594 C1.06884766,2.59244792 1.21923828,2.28181966 1.52001953,2.04370117 C1.82080078,1.80558268 2.25227865,1.68652344 2.81445312,1.68652344 C3.16894531,1.68652344 3.48046875,1.73128255 3.74902344,1.82080078 C4.01757812,1.91031901 4.23242188,2.02311198 4.39355469,2.15917969 L4.39355469,2.15917969 L4.59228516,3.27636719 L5.39257812,3.27636719 L5.39257812,1.82080078 C5.12044271,1.55224609 4.75968424,1.32397461 4.31030273,1.13598633 C3.86092122,0.947998047 3.36230469,0.854003906 2.81445312,0.854003906 C1.98372396,0.854003906 1.30875651,1.05721029 0.789550781,1.46362305 C0.270345052,1.87003581 0.0107421875,2.37939453 0.0107421875,2.99169922 C0.0107421875,3.57177734 0.243489583,4.05338542 0.708984375,4.43652344 C1.17447917,4.81966146 1.82080078,5.10970052 2.64794922,5.30664062 C3.32828776,5.47135417 3.80273438,5.67456055 4.07128906,5.91625977 C4.33984375,6.15795898 4.47412109,6.45784505 4.47412109,6.81591797 C4.47412109,7.20263672 4.31925456,7.50878906 4.00952148,7.734375 C3.69978841,7.95996094 3.27815755,8.07275391 2.74462891,8.07275391 C2.3507487,8.07275391 2.01236979,8.01904297 1.72949219,7.91162109 C1.44661458,7.80419922 1.203125,7.66634115 0.999023438,7.49804688 L0.999023438,7.49804688 L0.794921875,6.37548828 L0,6.37548828 L0,7.83105469 C0.293619792,8.14973958 0.674072266,8.40755208 1.14135742,8.60449219 C1.60864258,8.80143229 2.14306641,8.89990234 2.74462891,8.89990234 Z M9.18994141,8.78710938 L9.18994141,8.11035156 L8.31445312,7.95996094 L8.31445312,0.408203125 L6.38085938,0.408203125 L6.38085938,1.09033203 L7.25634766,1.24072266 L7.25634766,7.95996094 L6.38085938,8.11035156 L6.38085938,8.78710938 L9.18994141,8.78710938 Z M12.6435547,8.89990234 C13.1233724,8.89990234 13.5342611,8.83097331 13.8762207,8.69311523 C14.2181803,8.55525716 14.4930013,8.38606771 14.7006836,8.18554688 L14.7006836,8.18554688 L14.2871094,7.49804688 C14.0901693,7.67708333 13.8565267,7.81762695 13.5861816,7.91967773 C13.3158366,8.02172852 13.0016276,8.07275391 12.6435547,8.07275391 C12.1529948,8.07275391 11.7716471,7.89282227 11.4995117,7.53295898 C11.2273763,7.1730957 11.0859375,6.71386719 11.0751953,6.15527344 L11.0751953,6.15527344 L11.0913086,6.12841797 L14.8618164,6.12841797 L14.8618164,5.46777344 C14.8618164,4.68001302 14.6604004,4.04980469 14.2575684,3.57714844 C13.8547363,3.10449219 13.2630208,2.86816406 12.4824219,2.86816406 C11.8092448,2.86816406 11.2264811,3.14298503 10.7341309,3.69262695 C10.2417806,4.24226888 9.99560547,4.93066406 9.99560547,5.7578125 L9.99560547,5.7578125 L9.99560547,5.99414062 C9.99560547,6.85351562 10.2346191,7.55265299 10.7126465,8.09155273 C11.1906738,8.63045247 11.8343099,8.89990234 12.6435547,8.89990234 Z M13.8037109,5.30126953 L11.1235352,5.30126953 L11.112793,5.27441406 C11.1700846,4.82324219 11.324056,4.44816081 11.574707,4.14916992 C11.8253581,3.85017904 12.1279297,3.70068359 12.4824219,3.70068359 C12.9192708,3.70068359 13.2486979,3.84033203 13.4707031,4.11962891 C13.6927083,4.39892578 13.8037109,4.74625651 13.8037109,5.16162109 L13.8037109,5.16162109 L13.8037109,5.30126953 Z M18.5571289,8.89990234 C19.0369466,8.89990234 19.4478353,8.83097331 19.7897949,8.69311523 C20.1317546,8.55525716 20.4065755,8.38606771 20.6142578,8.18554688 L20.6142578,8.18554688 L20.2006836,7.49804688 C20.0037435,7.67708333 19.7701009,7.81762695 19.4997559,7.91967773 C19.2294108,8.02172852 18.9152018,8.07275391 18.5571289,8.07275391 C18.066569,8.07275391 17.6852214,7.89282227 17.4130859,7.53295898 C17.1409505,7.1730957 16.9995117,6.71386719 16.9887695,6.15527344 L16.9887695,6.15527344 L17.0048828,6.12841797 L20.7753906,6.12841797 L20.7753906,5.46777344 C20.7753906,4.68001302 20.5739746,4.04980469 20.1711426,3.57714844 C19.7683105,3.10449219 19.1765951,2.86816406 18.3959961,2.86816406 C17.722819,2.86816406 17.1400553,3.14298503 16.6477051,3.69262695 C16.1553548,4.24226888 15.9091797,4.93066406 15.9091797,5.7578125 L15.9091797,5.7578125 L15.9091797,5.99414062 C15.9091797,6.85351562 16.1481934,7.55265299 16.6262207,8.09155273 C17.104248,8.63045247 17.7478841,8.89990234 18.5571289,8.89990234 Z M19.7172852,5.30126953 L17.0371094,5.30126953 L17.0263672,5.27441406 C17.0836589,4.82324219 17.2376302,4.44816081 17.4882812,4.14916992 C17.7389323,3.85017904 18.0415039,3.70068359 18.3959961,3.70068359 C18.8328451,3.70068359 19.1622721,3.84033203 19.3842773,4.11962891 C19.6062826,4.39892578 19.7172852,4.74625651 19.7172852,5.16162109 L19.7172852,5.16162109 L19.7172852,5.30126953 Z M24.7446289,8.78710938 L26.6943359,3.73828125 L27.1723633,3.65771484 L27.1723633,2.97558594 L24.9272461,2.97558594 L24.9272461,3.65771484 L25.6308594,3.76513672 L24.4707031,7.07373047 L24.3686523,7.49267578 L24.3364258,7.49267578 L24.2397461,7.07373047 L23.0419922,3.76513672 L23.7402344,3.65771484 L23.7402344,2.97558594 L21.4951172,2.97558594 L21.4951172,3.65771484 L21.9731445,3.73828125 L23.9443359,8.78710938 L24.7446289,8.78710938 Z M30.4702148,8.89990234 C30.9500326,8.89990234 31.3609212,8.83097331 31.7028809,8.69311523 C32.0448405,8.55525716 32.3196615,8.38606771 32.5273438,8.18554688 L32.5273438,8.18554688 L32.1137695,7.49804688 C31.9168294,7.67708333 31.6831868,7.81762695 31.4128418,7.91967773 C31.1424967,8.02172852 30.8282878,8.07275391 30.4702148,8.07275391 C29.9796549,8.07275391 29.5983073,7.89282227 29.3261719,7.53295898 C29.0540365,7.1730957 28.9125977,6.71386719 28.9018555,6.15527344 L28.9018555,6.15527344 L28.9179688,6.12841797 L32.6884766,6.12841797 L32.6884766,5.46777344 C32.6884766,4.68001302 32.4870605,4.04980469 32.0842285,3.57714844 C31.6813965,3.10449219 31.089681,2.86816406 30.309082,2.86816406 C29.6359049,2.86816406 29.0531413,3.14298503 28.560791,3.69262695 C28.0684408,4.24226888 27.8222656,4.93066406 27.8222656,5.7578125 L27.8222656,5.7578125 L27.8222656,5.99414062 C27.8222656,6.85351562 28.0612793,7.55265299 28.5393066,8.09155273 C29.017334,8.63045247 29.6609701,8.89990234 30.4702148,8.89990234 Z M31.6303711,5.30126953 L28.9501953,5.30126953 L28.9394531,5.27441406 C28.9967448,4.82324219 29.1507161,4.44816081 29.4013672,4.14916992 C29.6520182,3.85017904 29.9545898,3.70068359 30.309082,3.70068359 C30.745931,3.70068359 31.0753581,3.84033203 31.2973633,4.11962891 C31.5193685,4.39892578 31.6303711,4.74625651 31.6303711,5.16162109 L31.6303711,5.16162109 L31.6303711,5.30126953 Z" id="Sleeve" fill="#D6805A"></path>
                <path d="M39.2788086,11.2739258 L39.4775391,10.6938477 C38.9833984,10.2784831 38.5563965,9.64916992 38.1965332,8.8059082 C37.8366699,7.96264648 37.6567383,6.91796875 37.6567383,5.671875 L37.6567383,5.671875 L37.6567383,5.60205078 C37.6567383,4.35953776 37.8375651,3.31575521 38.1992188,2.47070312 C38.5608724,1.62565104 38.9869792,1.01155599 39.4775391,0.628417969 L39.4775391,0.628417969 L39.2788086,0.00537109375 L39.246582,0 C38.6199544,0.333007812 38.0219727,0.999023438 37.4526367,1.99804688 C36.8833008,2.99707031 36.5986328,4.20198568 36.5986328,5.61279297 L36.5986328,5.61279297 L36.5986328,5.66113281 C36.5986328,7.07552083 36.8833008,8.28133138 37.4526367,9.27856445 C38.0219727,10.2757975 38.6199544,10.940918 39.246582,11.2739258 L39.246582,11.2739258 L39.2788086,11.2739258 Z M42.5551758,11.1342773 C43.3286133,11.1342773 43.9248047,10.9185384 44.34375,10.4870605 C44.7626953,10.0555827 44.972168,9.46386719 44.972168,8.71191406 L44.972168,8.71191406 L44.972168,2.97558594 L44.0805664,2.97558594 L43.9838867,3.70605469 C43.7976888,3.43391927 43.5667318,3.22623698 43.2910156,3.08300781 C43.0152995,2.93977865 42.6948242,2.86816406 42.3295898,2.86816406 C41.6098633,2.86816406 41.0458984,3.1546224 40.6376953,3.72753906 C40.2294922,4.30045573 40.0253906,5.05419922 40.0253906,5.98876953 L40.0253906,5.98876953 L40.0253906,6.1015625 C40.0253906,6.9358724 40.2294922,7.61083984 40.6376953,8.12646484 C41.0458984,8.64208984 41.6062826,8.89990234 42.3188477,8.89990234 C42.6625977,8.89990234 42.9669596,8.83723958 43.2319336,8.71191406 C43.4969076,8.58658854 43.7242839,8.40218099 43.9140625,8.15869141 L43.9140625,8.15869141 L43.9140625,8.71191406 C43.9140625,9.20247396 43.8039551,9.58024089 43.5837402,9.84521484 C43.3635254,10.1101888 43.0170898,10.2426758 42.5444336,10.2426758 C42.2902018,10.2426758 42.0288086,10.2086589 41.7602539,10.140625 C41.4916992,10.0725911 41.2589518,9.98665365 41.0620117,9.8828125 L41.0620117,9.8828125 L40.7880859,10.7045898 C41.0351562,10.8370768 41.3216146,10.9418132 41.6474609,11.0187988 C41.9733073,11.0957845 42.2758789,11.1342773 42.5551758,11.1342773 Z M42.5820312,8.04052734 C42.0771484,8.04052734 41.7011719,7.86328125 41.4541016,7.50878906 C41.2070312,7.15429688 41.0834961,6.68522135 41.0834961,6.1015625 L41.0834961,6.1015625 L41.0834961,5.98876953 C41.0834961,5.32633464 41.2088216,4.78385417 41.4594727,4.36132812 C41.7101237,3.93880208 42.0878906,3.72753906 42.5927734,3.72753906 C42.9007161,3.72753906 43.1638997,3.80004883 43.3823242,3.94506836 C43.6007487,4.09008789 43.7779948,4.28613281 43.9140625,4.53320312 L43.9140625,4.53320312 L43.9140625,7.20800781 C43.7744141,7.47298177 43.597168,7.67797852 43.3823242,7.82299805 C43.1674805,7.96801758 42.9007161,8.04052734 42.5820312,8.04052734 Z M49.0541992,8.78710938 L49.0541992,8.11035156 L48.1787109,7.95996094 L48.1787109,4.62451172 C48.2825521,4.38818359 48.429362,4.20467122 48.6191406,4.07397461 C48.8089193,3.94327799 49.043457,3.87792969 49.3227539,3.87792969 L49.3227539,3.87792969 L49.9243164,3.91015625 L50.0639648,2.92724609 C50.0174154,2.91292318 49.9502767,2.89949544 49.8625488,2.88696289 C49.774821,2.87443034 49.6897786,2.86816406 49.6074219,2.86816406 C49.2958984,2.86816406 49.0192871,2.9523112 48.7775879,3.12060547 C48.5358887,3.28889974 48.3326823,3.52164714 48.1679688,3.81884766 L48.1679688,3.81884766 L48.065918,2.97558594 L46.2451172,2.97558594 L46.2451172,3.65771484 L47.1206055,3.80810547 L47.1206055,7.95996094 L46.2451172,8.11035156 L46.2451172,8.78710938 L49.0541992,8.78710938 Z M53.2973633,8.89990234 C54.0958659,8.89990234 54.7278646,8.6241862 55.1933594,8.07275391 C55.6588542,7.52132161 55.8916016,6.81233724 55.8916016,5.94580078 L55.8916016,5.94580078 L55.8916016,5.82763672 C55.8916016,4.96468099 55.657959,4.25569661 55.1906738,3.70068359 C54.7233887,3.14567057 54.0887044,2.86816406 53.2866211,2.86816406 C52.4881185,2.86816406 51.8561198,3.14656576 51.390625,3.70336914 C50.9251302,4.26017253 50.6923828,4.96826172 50.6923828,5.82763672 L50.6923828,5.82763672 L50.6923828,5.94580078 C50.6923828,6.80875651 50.9251302,7.5168457 51.390625,8.07006836 C51.8561198,8.62329102 52.4916992,8.89990234 53.2973633,8.89990234 Z M53.2973633,8.07275391 C52.785319,8.07275391 52.3994954,7.87223307 52.1398926,7.47119141 C51.8802897,7.07014974 51.7504883,6.5616862 51.7504883,5.94580078 L51.7504883,5.94580078 L51.7504883,5.82763672 C51.7504883,5.21891276 51.8793945,4.71223958 52.137207,4.30761719 C52.3950195,3.90299479 52.7781576,3.70068359 53.2866211,3.70068359 C53.7950846,3.70068359 54.180013,3.90299479 54.4414062,4.30761719 C54.7027995,4.71223958 54.8334961,5.21891276 54.8334961,5.82763672 L54.8334961,5.82763672 L54.8334961,5.94580078 C54.8334961,6.5616862 54.7027995,7.07014974 54.4414062,7.47119141 C54.180013,7.87223307 53.7986654,8.07275391 53.2973633,8.07275391 Z M59.3129883,8.89990234 C59.6889648,8.89990234 60.0210775,8.81575521 60.3093262,8.64746094 C60.5975749,8.47916667 60.8330078,8.23925781 61.015625,7.92773438 L61.015625,7.92773438 L61.0854492,8.78710938 L62.7021484,8.78710938 L62.7021484,8.11035156 L62.0361328,7.95996094 L62.0361328,2.97558594 L60.1992188,2.97558594 L60.1992188,3.65771484 L60.9780273,3.80810547 L60.9780273,7.16503906 C60.8527018,7.44433594 60.6673991,7.66007487 60.4221191,7.81225586 C60.1768392,7.96443685 59.8662109,8.04052734 59.4902344,8.04052734 C59.1035156,8.04052734 58.8188477,7.92415365 58.6362305,7.69140625 C58.4536133,7.45865885 58.3623047,7.03255208 58.3623047,6.41308594 L58.3623047,6.41308594 L58.3623047,2.97558594 L56.6381836,2.97558594 L56.6381836,3.65771484 L57.3041992,3.80810547 L57.3041992,6.40234375 C57.3041992,7.25813802 57.4814453,7.88834635 57.8359375,8.29296875 C58.1904297,8.69759115 58.6827799,8.89990234 59.3129883,8.89990234 Z M66.1933594,8.78710938 L66.1933594,8.11035156 L65.3178711,7.95996094 L65.3178711,4.54931641 C65.4575195,4.29508464 65.6446126,4.0945638 65.8791504,3.94775391 C66.1136882,3.80094401 66.383138,3.72753906 66.6875,3.72753906 C67.1028646,3.72753906 67.4117025,3.83496094 67.6140137,4.04980469 C67.8163249,4.26464844 67.9174805,4.62809245 67.9174805,5.14013672 L67.9174805,5.14013672 L67.9174805,7.95996094 L67.0419922,8.11035156 L67.0419922,8.78710938 L69.8510742,8.78710938 L69.8510742,8.11035156 L68.9755859,7.95996094 L68.9755859,5.11865234 C68.9755859,4.3523763 68.8037109,3.78572591 68.4599609,3.41870117 C68.1162109,3.05167643 67.6310221,2.86816406 67.0043945,2.86816406 C66.6319987,2.86816406 66.2998861,2.95320638 66.0080566,3.12329102 C65.7162272,3.29337565 65.4736328,3.53238932 65.2802734,3.84033203 L65.2802734,3.84033203 L65.2050781,2.97558594 L63.3842773,2.97558594 L63.3842773,3.65771484 L64.2597656,3.80810547 L64.2597656,7.95996094 L63.3842773,8.11035156 L63.3842773,8.78710938 L66.1933594,8.78710938 Z M72.8320312,8.89990234 C73.1936849,8.89990234 73.5114746,8.83186849 73.7854004,8.69580078 C74.0593262,8.55973307 74.2911784,8.35921224 74.480957,8.09423828 L74.480957,8.09423828 L74.5668945,8.78710938 L76.3608398,8.78710938 L76.3608398,8.11035156 L75.4853516,7.95996094 L75.4853516,0.408203125 L73.5517578,0.408203125 L73.5517578,1.09033203 L74.4272461,1.24072266 L74.4272461,3.609375 C74.2410482,3.36946615 74.0163574,3.18595378 73.7531738,3.05883789 C73.4899902,2.93172201 73.1865234,2.86816406 72.8427734,2.86816406 C72.1266276,2.86816406 71.568929,3.1546224 71.1696777,3.72753906 C70.7704264,4.30045573 70.5708008,5.05419922 70.5708008,5.98876953 L70.5708008,5.98876953 L70.5708008,6.1015625 C70.5708008,6.93945312 70.7704264,7.61531576 71.1696777,8.12915039 C71.568929,8.64298503 72.1230469,8.89990234 72.8320312,8.89990234 Z M73.1005859,8.04052734 C72.5992839,8.04052734 72.2286784,7.86328125 71.9887695,7.50878906 C71.7488607,7.15429688 71.6289062,6.68522135 71.6289062,6.1015625 L71.6289062,6.1015625 L71.6289062,5.98876953 C71.6289062,5.31917318 71.7497559,4.77490234 71.9914551,4.35595703 C72.2331543,3.93701172 72.6064453,3.72753906 73.1113281,3.72753906 C73.4156901,3.72753906 73.6770833,3.79915365 73.8955078,3.94238281 C74.1139323,4.08561198 74.2911784,4.27897135 74.4272461,4.52246094 L74.4272461,4.52246094 L74.4272461,7.21875 C74.2875977,7.48014323 74.1103516,7.68245443 73.8955078,7.82568359 C73.6806641,7.96891276 73.4156901,8.04052734 73.1005859,8.04052734 Z M76.9785156,11.2739258 C77.6015625,10.940918 78.1986491,10.2757975 78.7697754,9.27856445 C79.3409017,8.28133138 79.6264648,7.07552083 79.6264648,5.66113281 L79.6264648,5.66113281 L79.6264648,5.61279297 C79.6264648,4.20198568 79.3409017,2.99707031 78.7697754,1.99804688 C78.1986491,0.999023438 77.6015625,0.333007812 76.9785156,0 L76.9785156,0 L76.9462891,0 L76.7475586,0.580078125 C77.2094727,0.973958333 77.628418,1.6023763 78.0043945,2.46533203 C78.3803711,3.32828776 78.5683594,4.37386068 78.5683594,5.60205078 L78.5683594,5.60205078 L78.5683594,5.671875 C78.5683594,6.92154948 78.3857422,7.9769694 78.0205078,8.83813477 C77.6552734,9.69930013 77.230957,10.3178711 76.7475586,10.6938477 L76.7475586,10.6938477 L76.9462891,11.2739258 L76.9785156,11.2739258 Z" id="(ground)" fill="#25292C"></path>
            </g>
            <g id="Ring-(right-channel)" transform="translate(19.381348, 13.212891)" fill-rule="nonzero">
                <path d="M2.80908203,8.78710938 L2.80908203,8.11035156 L1.93359375,7.95996094 L1.93359375,5.29589844 L3.63085937,5.29589844 C4.04622396,5.29589844 4.37744141,5.42480469 4.62451172,5.68261719 C4.87158203,5.94042969 4.99511719,6.28238932 4.99511719,6.70849609 L4.99511719,6.70849609 L4.99511719,7.31542969 C4.99511719,7.72363281 5.08194987,8.07096354 5.25561523,8.35742188 C5.4292806,8.64388021 5.72200521,8.78710938 6.13378906,8.78710938 L6.13378906,8.78710938 L6.703125,8.78710938 L6.703125,8.09423828 L6.4453125,8.06201172 C6.30566406,8.04052734 6.20540365,7.97249349 6.14453125,7.85791016 C6.08365885,7.74332682 6.05322266,7.56608073 6.05322266,7.32617188 L6.05322266,7.32617188 L6.05322266,6.69775391 C6.05322266,6.23583984 5.95922852,5.84733073 5.77124023,5.53222656 C5.58325195,5.2171224 5.27620443,4.98974609 4.85009766,4.85009766 C5.24397786,4.68180339 5.54654948,4.45084635 5.7578125,4.15722656 C5.96907552,3.86360677 6.07470703,3.52701823 6.07470703,3.14746094 C6.07470703,2.45279948 5.84733073,1.91658529 5.39257812,1.53881836 C4.93782552,1.16105143 4.28434245,0.972167969 3.43212891,0.972167969 L3.43212891,0.972167969 L0,0.972167969 L0,1.64892578 L0.875488281,1.79931641 L0.875488281,7.95996094 L0,8.11035156 L0,8.78710938 L2.80908203,8.78710938 Z M3.32470703,4.46337891 L1.93359375,4.46337891 L1.93359375,1.79931641 L3.43212891,1.79931641 C3.97281901,1.79931641 4.37207031,1.91927083 4.62988281,2.15917969 C4.88769531,2.39908854 5.01660156,2.7249349 5.01660156,3.13671875 C5.01660156,3.56998698 4.88232422,3.89941406 4.61376953,4.125 C4.34521484,4.35058594 3.91552734,4.46337891 3.32470703,4.46337891 L3.32470703,4.46337891 Z M9.47460938,1.48779297 L9.47460938,0.408203125 L8.41650391,0.408203125 L8.41650391,1.48779297 L9.47460938,1.48779297 Z M10.3500977,8.78710938 L10.3500977,8.11035156 L9.47460938,7.95996094 L9.47460938,2.97558594 L7.54101562,2.97558594 L7.54101562,3.65771484 L8.41650391,3.80810547 L8.41650391,7.95996094 L7.54101562,8.11035156 L7.54101562,8.78710938 L10.3500977,8.78710938 Z M13.809082,8.78710938 L13.809082,8.11035156 L12.9335938,7.95996094 L12.9335938,4.54931641 C13.0732422,4.29508464 13.2603353,4.0945638 13.494873,3.94775391 C13.7294108,3.80094401 13.9988607,3.72753906 14.3032227,3.72753906 C14.7185872,3.72753906 15.0274251,3.83496094 15.2297363,4.04980469 C15.4320475,4.26464844 15.5332031,4.62809245 15.5332031,5.14013672 L15.5332031,5.14013672 L15.5332031,7.95996094 L14.6577148,8.11035156 L14.6577148,8.78710938 L17.4667969,8.78710938 L17.4667969,8.11035156 L16.5913086,7.95996094 L16.5913086,5.11865234 C16.5913086,4.3523763 16.4194336,3.78572591 16.0756836,3.41870117 C15.7319336,3.05167643 15.2467448,2.86816406 14.6201172,2.86816406 C14.2477214,2.86816406 13.9156087,2.95320638 13.6237793,3.12329102 C13.3319499,3.29337565 13.0893555,3.53238932 12.8959961,3.84033203 L12.8959961,3.84033203 L12.8208008,2.97558594 L11,2.97558594 L11,3.65771484 L11.8754883,3.80810547 L11.8754883,7.95996094 L11,8.11035156 L11,8.78710938 L13.809082,8.78710938 Z M20.7163086,11.1342773 C21.4897461,11.1342773 22.0859375,10.9185384 22.5048828,10.4870605 C22.9238281,10.0555827 23.1333008,9.46386719 23.1333008,8.71191406 L23.1333008,8.71191406 L23.1333008,2.97558594 L22.2416992,2.97558594 L22.1450195,3.70605469 C21.9588216,3.43391927 21.7278646,3.22623698 21.4521484,3.08300781 C21.1764323,2.93977865 20.855957,2.86816406 20.4907227,2.86816406 C19.7709961,2.86816406 19.2070312,3.1546224 18.7988281,3.72753906 C18.390625,4.30045573 18.1865234,5.05419922 18.1865234,5.98876953 L18.1865234,5.98876953 L18.1865234,6.1015625 C18.1865234,6.9358724 18.390625,7.61083984 18.7988281,8.12646484 C19.2070312,8.64208984 19.7674154,8.89990234 20.4799805,8.89990234 C20.8237305,8.89990234 21.1280924,8.83723958 21.3930664,8.71191406 C21.6580404,8.58658854 21.8854167,8.40218099 22.0751953,8.15869141 L22.0751953,8.15869141 L22.0751953,8.71191406 C22.0751953,9.20247396 21.9650879,9.58024089 21.744873,9.84521484 C21.5246582,10.1101888 21.1782227,10.2426758 20.7055664,10.2426758 C20.4513346,10.2426758 20.1899414,10.2086589 19.9213867,10.140625 C19.652832,10.0725911 19.4200846,9.98665365 19.2231445,9.8828125 L19.2231445,9.8828125 L18.9492188,10.7045898 C19.1962891,10.8370768 19.4827474,10.9418132 19.8085938,11.0187988 C20.1344401,11.0957845 20.4370117,11.1342773 20.7163086,11.1342773 Z M20.7431641,8.04052734 C20.2382812,8.04052734 19.8623047,7.86328125 19.6152344,7.50878906 C19.3681641,7.15429688 19.2446289,6.68522135 19.2446289,6.1015625 L19.2446289,6.1015625 L19.2446289,5.98876953 C19.2446289,5.32633464 19.3699544,4.78385417 19.6206055,4.36132812 C19.8712565,3.93880208 20.2490234,3.72753906 20.7539062,3.72753906 C21.061849,3.72753906 21.3250326,3.80004883 21.543457,3.94506836 C21.7618815,4.09008789 21.9391276,4.28613281 22.0751953,4.53320312 L22.0751953,4.53320312 L22.0751953,7.20800781 C21.9355469,7.47298177 21.7583008,7.67797852 21.543457,7.82299805 C21.3286133,7.96801758 21.061849,8.04052734 20.7431641,8.04052734 Z" id="Ring" fill="#B01E41"></path>
                <path d="M29.9545898,11.2739258 L30.1533203,10.6938477 C29.6591797,10.2784831 29.2321777,9.64916992 28.8723145,8.8059082 C28.5124512,7.96264648 28.3325195,6.91796875 28.3325195,5.671875 L28.3325195,5.671875 L28.3325195,5.60205078 C28.3325195,4.35953776 28.5133464,3.31575521 28.875,2.47070312 C29.2366536,1.62565104 29.6627604,1.01155599 30.1533203,0.628417969 L30.1533203,0.628417969 L29.9545898,0.00537109375 L29.9223633,0 C29.2957357,0.333007812 28.6977539,0.999023438 28.128418,1.99804688 C27.559082,2.99707031 27.2744141,4.20198568 27.2744141,5.61279297 L27.2744141,5.61279297 L27.2744141,5.66113281 C27.2744141,7.07552083 27.559082,8.28133138 28.128418,9.27856445 C28.6977539,10.2757975 29.2957357,10.940918 29.9223633,11.2739258 L29.9223633,11.2739258 L29.9545898,11.2739258 Z M33.5048828,8.78710938 L33.5048828,8.11035156 L32.6293945,7.95996094 L32.6293945,4.62451172 C32.7332357,4.38818359 32.8800456,4.20467122 33.0698242,4.07397461 C33.2596029,3.94327799 33.4941406,3.87792969 33.7734375,3.87792969 L33.7734375,3.87792969 L34.375,3.91015625 L34.5146484,2.92724609 C34.468099,2.91292318 34.4009603,2.89949544 34.3132324,2.88696289 C34.2255046,2.87443034 34.1404622,2.86816406 34.0581055,2.86816406 C33.746582,2.86816406 33.4699707,2.9523112 33.2282715,3.12060547 C32.9865723,3.28889974 32.7833659,3.52164714 32.6186523,3.81884766 L32.6186523,3.81884766 L32.5166016,2.97558594 L30.6958008,2.97558594 L30.6958008,3.65771484 L31.5712891,3.80810547 L31.5712891,7.95996094 L30.6958008,8.11035156 L30.6958008,8.78710938 L33.5048828,8.78710938 Z M37.1787109,1.48779297 L37.1787109,0.408203125 L36.1206055,0.408203125 L36.1206055,1.48779297 L37.1787109,1.48779297 Z M38.0541992,8.78710938 L38.0541992,8.11035156 L37.1787109,7.95996094 L37.1787109,2.97558594 L35.2451172,2.97558594 L35.2451172,3.65771484 L36.1206055,3.80810547 L36.1206055,7.95996094 L35.2451172,8.11035156 L35.2451172,8.78710938 L38.0541992,8.78710938 Z M41.3950195,11.1342773 C42.168457,11.1342773 42.7646484,10.9185384 43.1835938,10.4870605 C43.6025391,10.0555827 43.8120117,9.46386719 43.8120117,8.71191406 L43.8120117,8.71191406 L43.8120117,2.97558594 L42.9204102,2.97558594 L42.8237305,3.70605469 C42.6375326,3.43391927 42.4065755,3.22623698 42.1308594,3.08300781 C41.8551432,2.93977865 41.534668,2.86816406 41.1694336,2.86816406 C40.449707,2.86816406 39.8857422,3.1546224 39.4775391,3.72753906 C39.0693359,4.30045573 38.8652344,5.05419922 38.8652344,5.98876953 L38.8652344,5.98876953 L38.8652344,6.1015625 C38.8652344,6.9358724 39.0693359,7.61083984 39.4775391,8.12646484 C39.8857422,8.64208984 40.4461263,8.89990234 41.1586914,8.89990234 C41.5024414,8.89990234 41.8068034,8.83723958 42.0717773,8.71191406 C42.3367513,8.58658854 42.5641276,8.40218099 42.7539062,8.15869141 L42.7539062,8.15869141 L42.7539062,8.71191406 C42.7539062,9.20247396 42.6437988,9.58024089 42.423584,9.84521484 C42.2033691,10.1101888 41.8569336,10.2426758 41.3842773,10.2426758 C41.1300456,10.2426758 40.8686523,10.2086589 40.6000977,10.140625 C40.331543,10.0725911 40.0987956,9.98665365 39.9018555,9.8828125 L39.9018555,9.8828125 L39.6279297,10.7045898 C39.875,10.8370768 40.1614583,10.9418132 40.4873047,11.0187988 C40.813151,11.0957845 41.1157227,11.1342773 41.3950195,11.1342773 Z M41.421875,8.04052734 C40.9169922,8.04052734 40.5410156,7.86328125 40.2939453,7.50878906 C40.046875,7.15429688 39.9233398,6.68522135 39.9233398,6.1015625 L39.9233398,6.1015625 L39.9233398,5.98876953 C39.9233398,5.32633464 40.0486654,4.78385417 40.2993164,4.36132812 C40.5499674,3.93880208 40.9277344,3.72753906 41.4326172,3.72753906 C41.7405599,3.72753906 42.0037435,3.80004883 42.222168,3.94506836 C42.4405924,4.09008789 42.6178385,4.28613281 42.7539062,4.53320312 L42.7539062,4.53320312 L42.7539062,7.20800781 C42.6142578,7.47298177 42.4370117,7.67797852 42.222168,7.82299805 C42.0073242,7.96801758 41.7405599,8.04052734 41.421875,8.04052734 Z M47.7490234,8.78710938 L47.7490234,8.11035156 L46.8735352,7.95996094 L46.8735352,4.49560547 C47.0275065,4.25927734 47.2235514,4.07218424 47.4616699,3.93432617 C47.6997884,3.7964681 47.9638672,3.72753906 48.2539062,3.72753906 C48.6621094,3.72753906 48.9691569,3.8421224 49.1750488,4.07128906 C49.3809408,4.30045573 49.4838867,4.65494792 49.4838867,5.13476562 L49.4838867,5.13476562 L49.4838867,7.95996094 L48.6083984,8.11035156 L48.6083984,8.78710938 L51.4174805,8.78710938 L51.4174805,8.11035156 L50.5419922,7.95996094 L50.5419922,5.14550781 C50.5419922,4.37207031 50.3701172,3.79915365 50.0263672,3.42675781 C49.6826172,3.05436198 49.1992188,2.86816406 48.5761719,2.86816406 C48.2216797,2.86816406 47.8994141,2.94514974 47.609375,3.09912109 C47.3193359,3.25309245 47.074056,3.46972656 46.8735352,3.74902344 L46.8735352,3.74902344 L46.8735352,0.408203125 L44.9399414,0.408203125 L44.9399414,1.09033203 L45.8154297,1.24072266 L45.8154297,7.95996094 L44.9399414,8.11035156 L44.9399414,8.78710938 L47.7490234,8.78710938 Z M54.3823242,8.89990234 C54.5756836,8.89990234 54.769043,8.87931315 54.9624023,8.83813477 C55.1557617,8.79695638 55.3025716,8.74414062 55.402832,8.6796875 L55.402832,8.6796875 L55.2578125,7.95458984 C55.1790365,7.97249349 55.0814616,7.98950195 54.9650879,8.00561523 C54.8487142,8.02172852 54.7439779,8.02978516 54.6508789,8.02978516 C54.464681,8.02978516 54.3151855,7.97428385 54.2023926,7.86328125 C54.0895996,7.75227865 54.0332031,7.56070964 54.0332031,7.28857422 L54.0332031,7.28857422 L54.0332031,3.75976562 L55.1342773,3.75976562 L55.1342773,2.97558594 L54.0332031,2.97558594 L54.0332031,1.57373047 L52.9750977,1.57373047 L52.9750977,2.97558594 L52.0566406,2.97558594 L52.0566406,3.75976562 L52.9750977,3.75976562 L52.9750977,7.28857422 C52.9750977,7.84358724 53.1022135,8.25089518 53.3564453,8.51049805 C53.6106771,8.77010091 53.9526367,8.89990234 54.3823242,8.89990234 Z M61.5581055,8.89990234 C62.1739909,8.89990234 62.7137858,8.70564779 63.1774902,8.31713867 C63.6411947,7.92862956 63.8640951,7.48372396 63.8461914,6.98242188 L63.8461914,6.98242188 L63.8354492,6.95019531 L62.8847656,6.95019531 C62.8847656,7.26529948 62.7513835,7.53116862 62.4846191,7.74780273 C62.2178548,7.96443685 61.9090169,8.07275391 61.5581055,8.07275391 C60.9995117,8.07275391 60.6020508,7.87491862 60.3657227,7.47924805 C60.1293945,7.08357747 60.0112305,6.58854167 60.0112305,5.99414062 L60.0112305,5.99414062 L60.0112305,5.76855469 C60.0112305,5.18847656 60.1302897,4.69881185 60.3684082,4.29956055 C60.6065267,3.90030924 61.0030924,3.70068359 61.5581055,3.70068359 C61.8051758,3.70068359 62.027181,3.73828125 62.2241211,3.81347656 C62.4210612,3.88867188 62.582194,3.98714193 62.7075195,4.10888672 L62.7075195,4.10888672 L62.9384766,5.02197266 L63.7817383,5.02197266 L63.7333984,3.73291016 C63.4899089,3.46435547 63.1828613,3.25309245 62.8122559,3.09912109 C62.4416504,2.94514974 62.0236003,2.86816406 61.5581055,2.86816406 C60.7166341,2.86816406 60.0721029,3.14477539 59.6245117,3.69799805 C59.1769206,4.2512207 58.953125,4.94140625 58.953125,5.76855469 L58.953125,5.76855469 L58.953125,5.99414062 C58.953125,6.82845052 59.1760254,7.52132161 59.6218262,8.07275391 C60.067627,8.6241862 60.7130534,8.89990234 61.5581055,8.89990234 Z M67.5415039,8.78710938 L67.5415039,8.11035156 L66.6660156,7.95996094 L66.6660156,4.49560547 C66.819987,4.25927734 67.0160319,4.07218424 67.2541504,3.93432617 C67.4922689,3.7964681 67.7563477,3.72753906 68.0463867,3.72753906 C68.4545898,3.72753906 68.7616374,3.8421224 68.9675293,4.07128906 C69.1734212,4.30045573 69.2763672,4.65494792 69.2763672,5.13476562 L69.2763672,5.13476562 L69.2763672,7.95996094 L68.4008789,8.11035156 L68.4008789,8.78710938 L71.2099609,8.78710938 L71.2099609,8.11035156 L70.3344727,7.95996094 L70.3344727,5.14550781 C70.3344727,4.37207031 70.1625977,3.79915365 69.8188477,3.42675781 C69.4750977,3.05436198 68.9916992,2.86816406 68.3686523,2.86816406 C68.0141602,2.86816406 67.6918945,2.94514974 67.4018555,3.09912109 C67.1118164,3.25309245 66.8665365,3.46972656 66.6660156,3.74902344 L66.6660156,3.74902344 L66.6660156,0.408203125 L64.7324219,0.408203125 L64.7324219,1.09033203 L65.6079102,1.24072266 L65.6079102,7.95996094 L64.7324219,8.11035156 L64.7324219,8.78710938 L67.5415039,8.78710938 Z M73.9116211,8.89990234 C74.2589518,8.89990234 74.5856934,8.81306966 74.8918457,8.6394043 C75.197998,8.46573893 75.453125,8.24820964 75.6572266,7.98681641 C75.664388,8.11214193 75.6769206,8.23746745 75.6948242,8.36279297 C75.7127279,8.48811849 75.737793,8.62955729 75.7700195,8.78710938 L75.7700195,8.78710938 L77.1557617,8.78710938 L77.1557617,8.11035156 L76.7260742,8.05126953 C76.7189128,7.97965495 76.7144368,7.90804036 76.7126465,7.83642578 C76.7108561,7.7648112 76.7099609,7.69140625 76.7099609,7.61621094 L76.7099609,4.81787109 C76.7099609,4.19124349 76.5058594,3.70963542 76.0976562,3.37304688 C75.6894531,3.03645833 75.1559245,2.86816406 74.4970703,2.86816406 C74.0566406,2.86816406 73.6484375,2.93172201 73.2724609,3.05883789 C72.8964844,3.18595378 72.5760091,3.35514323 72.3110352,3.56640625 L72.3110352,3.56640625 L72.3110352,4.69433594 L73.1274414,4.69433594 L73.2402344,4.08203125 C73.3655599,3.96386719 73.5293783,3.87076823 73.7316895,3.80273438 C73.9340007,3.73470052 74.1676432,3.70068359 74.4326172,3.70068359 C74.8157552,3.70068359 75.1147461,3.80004883 75.3295898,3.9987793 C75.5444336,4.19750977 75.6518555,4.46695964 75.6518555,4.80712891 L75.6518555,4.80712891 L75.6518555,5.48388672 L74.5615234,5.48388672 C73.7845052,5.48388672 73.1730957,5.63338216 72.7272949,5.93237305 C72.2814941,6.23136393 72.0585938,6.65657552 72.0585938,7.20800781 C72.0585938,7.74511719 72.2161458,8.16137695 72.53125,8.45678711 C72.8463542,8.75219727 73.3064779,8.89990234 73.9116211,8.89990234 Z M74.0673828,8.01367188 C73.7486979,8.01367188 73.5105794,7.9465332 73.3530273,7.81225586 C73.1954753,7.67797852 73.1166992,7.48372396 73.1166992,7.22949219 C73.1166992,6.94303385 73.2429199,6.69954427 73.4953613,6.49902344 C73.7478027,6.2985026 74.0906576,6.19824219 74.5239258,6.19824219 L74.5239258,6.19824219 L75.6518555,6.19824219 L75.6518555,7.15429688 C75.5265299,7.390625 75.3188477,7.5929362 75.0288086,7.76123047 C74.7387695,7.92952474 74.4182943,8.01367188 74.0673828,8.01367188 Z M80.6899414,8.78710938 L80.6899414,8.11035156 L79.8144531,7.95996094 L79.8144531,4.54931641 C79.9541016,4.29508464 80.1411947,4.0945638 80.3757324,3.94775391 C80.6102702,3.80094401 80.8797201,3.72753906 81.184082,3.72753906 C81.5994466,3.72753906 81.9082845,3.83496094 82.1105957,4.04980469 C82.3129069,4.26464844 82.4140625,4.62809245 82.4140625,5.14013672 L82.4140625,5.14013672 L82.4140625,7.95996094 L81.5385742,8.11035156 L81.5385742,8.78710938 L84.3476562,8.78710938 L84.3476562,8.11035156 L83.472168,7.95996094 L83.472168,5.11865234 C83.472168,4.3523763 83.300293,3.78572591 82.956543,3.41870117 C82.612793,3.05167643 82.1276042,2.86816406 81.5009766,2.86816406 C81.1285807,2.86816406 80.7964681,2.95320638 80.5046387,3.12329102 C80.2128092,3.29337565 79.9702148,3.53238932 79.7768555,3.84033203 L79.7768555,3.84033203 L79.7016602,2.97558594 L77.8808594,2.97558594 L77.8808594,3.65771484 L78.7563477,3.80810547 L78.7563477,7.95996094 L77.8808594,8.11035156 L77.8808594,8.78710938 L80.6899414,8.78710938 Z M87.769043,8.78710938 L87.769043,8.11035156 L86.8935547,7.95996094 L86.8935547,4.54931641 C87.0332031,4.29508464 87.2202962,4.0945638 87.454834,3.94775391 C87.6893717,3.80094401 87.9588216,3.72753906 88.2631836,3.72753906 C88.6785482,3.72753906 88.9873861,3.83496094 89.1896973,4.04980469 C89.3920085,4.26464844 89.4931641,4.62809245 89.4931641,5.14013672 L89.4931641,5.14013672 L89.4931641,7.95996094 L88.6176758,8.11035156 L88.6176758,8.78710938 L91.4267578,8.78710938 L91.4267578,8.11035156 L90.5512695,7.95996094 L90.5512695,5.11865234 C90.5512695,4.3523763 90.3793945,3.78572591 90.0356445,3.41870117 C89.6918945,3.05167643 89.2067057,2.86816406 88.5800781,2.86816406 C88.2076823,2.86816406 87.8755697,2.95320638 87.5837402,3.12329102 C87.2919108,3.29337565 87.0493164,3.53238932 86.855957,3.84033203 L86.855957,3.84033203 L86.7807617,2.97558594 L84.9599609,2.97558594 L84.9599609,3.65771484 L85.8354492,3.80810547 L85.8354492,7.95996094 L84.9599609,8.11035156 L84.9599609,8.78710938 L87.769043,8.78710938 Z M94.7944336,8.89990234 C95.2742513,8.89990234 95.68514,8.83097331 96.0270996,8.69311523 C96.3690592,8.55525716 96.6438802,8.38606771 96.8515625,8.18554688 L96.8515625,8.18554688 L96.4379883,7.49804688 C96.2410482,7.67708333 96.0074056,7.81762695 95.7370605,7.91967773 C95.4667155,8.02172852 95.1525065,8.07275391 94.7944336,8.07275391 C94.3038737,8.07275391 93.922526,7.89282227 93.6503906,7.53295898 C93.3782552,7.1730957 93.2368164,6.71386719 93.2260742,6.15527344 L93.2260742,6.15527344 L93.2421875,6.12841797 L97.0126953,6.12841797 L97.0126953,5.46777344 C97.0126953,4.68001302 96.8112793,4.04980469 96.4084473,3.57714844 C96.0056152,3.10449219 95.4138997,2.86816406 94.6333008,2.86816406 C93.9601237,2.86816406 93.37736,3.14298503 92.8850098,3.69262695 C92.3926595,4.24226888 92.1464844,4.93066406 92.1464844,5.7578125 L92.1464844,5.7578125 L92.1464844,5.99414062 C92.1464844,6.85351562 92.385498,7.55265299 92.8635254,8.09155273 C93.3415527,8.63045247 93.9851888,8.89990234 94.7944336,8.89990234 Z M95.9545898,5.30126953 L93.2744141,5.30126953 L93.2636719,5.27441406 C93.3209635,4.82324219 93.4749349,4.44816081 93.7255859,4.14916992 C93.976237,3.85017904 94.2788086,3.70068359 94.6333008,3.70068359 C95.0701497,3.70068359 95.3995768,3.84033203 95.621582,4.11962891 C95.8435872,4.39892578 95.9545898,4.74625651 95.9545898,5.16162109 L95.9545898,5.16162109 L95.9545898,5.30126953 Z M100.71875,8.78710938 L100.71875,8.11035156 L99.8432617,7.95996094 L99.8432617,0.408203125 L97.909668,0.408203125 L97.909668,1.09033203 L98.7851562,1.24072266 L98.7851562,7.95996094 L97.909668,8.11035156 L97.909668,8.78710938 L100.71875,8.78710938 Z M101.331055,11.2739258 C101.954102,10.940918 102.551188,10.2757975 103.122314,9.27856445 C103.693441,8.28133138 103.979004,7.07552083 103.979004,5.66113281 L103.979004,5.66113281 L103.979004,5.61279297 C103.979004,4.20198568 103.693441,2.99707031 103.122314,1.99804688 C102.551188,0.999023438 101.954102,0.333007812 101.331055,0 L101.331055,0 L101.298828,0 L101.100098,0.580078125 C101.562012,0.973958333 101.980957,1.6023763 102.356934,2.46533203 C102.73291,3.32828776 102.920898,4.37386068 102.920898,5.60205078 L102.920898,5.60205078 L102.920898,5.671875 C102.920898,6.92154948 102.738281,7.9769694 102.373047,8.83813477 C102.007812,9.69930013 101.583496,10.3178711 101.100098,10.6938477 L101.100098,10.6938477 L101.298828,11.2739258 L101.331055,11.2739258 Z" id="(rightchannel)" fill="#25292C"></path>
            </g>
            <g id="Tip-(left-channel)" transform="translate(19.198730, 0.212891)" fill-rule="nonzero">
                <path d="M4.65673828,8.78710938 L4.65673828,8.11035156 L3.78125,7.95996094 L3.78125,1.79931641 L5.51611328,1.79931641 L5.59667969,2.69628906 L6.49902344,2.69628906 L6.49902344,0.966796875 L0,0.966796875 L0,2.69628906 L0.907714844,2.69628906 L0.982910156,1.79931641 L2.72314453,1.79931641 L2.72314453,7.95996094 L1.84765625,8.11035156 L1.84765625,8.78710938 L4.65673828,8.78710938 Z M9.109375,1.48779297 L9.109375,0.408203125 L8.05126953,0.408203125 L8.05126953,1.48779297 L9.109375,1.48779297 Z M9.98486328,8.78710938 L9.98486328,8.11035156 L9.109375,7.95996094 L9.109375,2.97558594 L7.17578125,2.97558594 L7.17578125,3.65771484 L8.05126953,3.80810547 L8.05126953,7.95996094 L7.17578125,8.11035156 L7.17578125,8.78710938 L9.98486328,8.78710938 Z M13.4707031,11.0214844 L13.4707031,10.3393555 L12.5952148,10.1889648 L12.5952148,8.18554688 C12.7849935,8.421875 13.0150553,8.60001628 13.2854004,8.7199707 C13.5557454,8.83992513 13.8699544,8.89990234 14.2280273,8.89990234 C14.933431,8.89990234 15.4866536,8.64298503 15.8876953,8.12915039 C16.288737,7.61531576 16.4892578,6.93945312 16.4892578,6.1015625 L16.4892578,6.1015625 L16.4892578,5.98876953 C16.4892578,5.05061849 16.2896322,4.29597982 15.8903809,3.72485352 C15.4911296,3.15372721 14.9316406,2.86816406 14.2119141,2.86816406 C13.8466797,2.86816406 13.5253092,2.93798828 13.2478027,3.07763672 C12.9702962,3.21728516 12.7348633,3.41959635 12.5415039,3.68457031 L12.5415039,3.68457031 L12.4448242,2.97558594 L10.6616211,2.97558594 L10.6616211,3.65771484 L11.5371094,3.80810547 L11.5371094,10.1889648 L10.6616211,10.3393555 L10.6616211,11.0214844 L13.4707031,11.0214844 Z M13.9003906,8.07275391 C13.5888672,8.07275391 13.3265788,8.0074056 13.1135254,7.87670898 C12.900472,7.74601237 12.7277018,7.56070964 12.5952148,7.32080078 L12.5952148,7.32080078 L12.5952148,4.49023438 C12.7277018,4.25390625 12.9013672,4.06770833 13.1162109,3.93164062 C13.3310547,3.79557292 13.5888672,3.72753906 13.8896484,3.72753906 C14.398112,3.72753906 14.78125,3.93880208 15.0390625,4.36132812 C15.296875,4.78385417 15.4257812,5.32633464 15.4257812,5.98876953 L15.4257812,5.98876953 L15.4257812,6.1015625 C15.4257812,6.68522135 15.296875,7.15966797 15.0390625,7.52490234 C14.78125,7.89013672 14.4016927,8.07275391 13.9003906,8.07275391 Z" id="Tip" fill="#164D61"></path>
                <path d="M22.9990234,11.2739258 L23.1977539,10.6938477 C22.7036133,10.2784831 22.2766113,9.64916992 21.916748,8.8059082 C21.5568848,7.96264648 21.3769531,6.91796875 21.3769531,5.671875 L21.3769531,5.671875 L21.3769531,5.60205078 C21.3769531,4.35953776 21.5577799,3.31575521 21.9194336,2.47070312 C22.2810872,1.62565104 22.707194,1.01155599 23.1977539,0.628417969 L23.1977539,0.628417969 L22.9990234,0.00537109375 L22.9667969,0 C22.3401693,0.333007812 21.7421875,0.999023438 21.1728516,1.99804688 C20.6035156,2.99707031 20.3188477,4.20198568 20.3188477,5.61279297 L20.3188477,5.61279297 L20.3188477,5.66113281 C20.3188477,7.07552083 20.6035156,8.28133138 21.1728516,9.27856445 C21.7421875,10.2757975 22.3401693,10.940918 22.9667969,11.2739258 L22.9667969,11.2739258 L22.9990234,11.2739258 Z M26.4042969,8.78710938 L26.4042969,8.11035156 L25.5288086,7.95996094 L25.5288086,0.408203125 L23.5952148,0.408203125 L23.5952148,1.09033203 L24.4707031,1.24072266 L24.4707031,7.95996094 L23.5952148,8.11035156 L23.5952148,8.78710938 L26.4042969,8.78710938 Z M29.8579102,8.89990234 C30.3377279,8.89990234 30.7486165,8.83097331 31.0905762,8.69311523 C31.4325358,8.55525716 31.7073568,8.38606771 31.9150391,8.18554688 L31.9150391,8.18554688 L31.5014648,7.49804688 C31.3045247,7.67708333 31.0708822,7.81762695 30.8005371,7.91967773 C30.5301921,8.02172852 30.2159831,8.07275391 29.8579102,8.07275391 C29.3673503,8.07275391 28.9860026,7.89282227 28.7138672,7.53295898 C28.4417318,7.1730957 28.300293,6.71386719 28.2895508,6.15527344 L28.2895508,6.15527344 L28.3056641,6.12841797 L32.0761719,6.12841797 L32.0761719,5.46777344 C32.0761719,4.68001302 31.8747559,4.04980469 31.4719238,3.57714844 C31.0690918,3.10449219 30.4773763,2.86816406 29.6967773,2.86816406 C29.0236003,2.86816406 28.4408366,3.14298503 27.9484863,3.69262695 C27.4561361,4.24226888 27.2099609,4.93066406 27.2099609,5.7578125 L27.2099609,5.7578125 L27.2099609,5.99414062 C27.2099609,6.85351562 27.4489746,7.55265299 27.927002,8.09155273 C28.4050293,8.63045247 29.0486654,8.89990234 29.8579102,8.89990234 Z M31.0180664,5.30126953 L28.3378906,5.30126953 L28.3271484,5.27441406 C28.3844401,4.82324219 28.5384115,4.44816081 28.7890625,4.14916992 C29.0397135,3.85017904 29.3422852,3.70068359 29.6967773,3.70068359 C30.1336263,3.70068359 30.4630534,3.84033203 30.6850586,4.11962891 C30.9070638,4.39892578 31.0180664,4.74625651 31.0180664,5.16162109 L31.0180664,5.16162109 L31.0180664,5.30126953 Z M35.8574219,8.78710938 L35.8574219,8.11035156 L34.9819336,7.95996094 L34.9819336,3.75976562 L36.1958008,3.75976562 L36.1958008,2.97558594 L34.9819336,2.97558594 L34.9819336,2.23974609 C34.9819336,1.88883464 35.0571289,1.62117513 35.2075195,1.43676758 C35.3579102,1.25236003 35.5888672,1.16015625 35.9003906,1.16015625 C35.9970703,1.16015625 36.0910645,1.16552734 36.182373,1.17626953 C36.2736816,1.18701172 36.3515625,1.19954427 36.4160156,1.21386719 L36.4160156,1.21386719 L36.5449219,0.408203125 C36.3945312,0.372395833 36.2575684,0.344645182 36.1340332,0.324951172 C36.010498,0.305257161 35.8878581,0.295410156 35.7661133,0.295410156 C35.1860352,0.295410156 34.7339681,0.464599609 34.4099121,0.802978516 C34.0858561,1.14135742 33.9238281,1.62027995 33.9238281,2.23974609 L33.9238281,2.23974609 L33.9238281,2.97558594 L33.0161133,2.97558594 L33.0161133,3.75976562 L33.9238281,3.75976562 L33.9238281,7.95996094 L33.0483398,8.11035156 L33.0483398,8.78710938 L35.8574219,8.78710938 Z M39.2250977,8.89990234 C39.418457,8.89990234 39.6118164,8.87931315 39.8051758,8.83813477 C39.9985352,8.79695638 40.1453451,8.74414062 40.2456055,8.6796875 L40.2456055,8.6796875 L40.1005859,7.95458984 C40.0218099,7.97249349 39.924235,7.98950195 39.8078613,8.00561523 C39.6914876,8.02172852 39.5867513,8.02978516 39.4936523,8.02978516 C39.3074544,8.02978516 39.157959,7.97428385 39.045166,7.86328125 C38.932373,7.75227865 38.8759766,7.56070964 38.8759766,7.28857422 L38.8759766,7.28857422 L38.8759766,3.75976562 L39.9770508,3.75976562 L39.9770508,2.97558594 L38.8759766,2.97558594 L38.8759766,1.57373047 L37.8178711,1.57373047 L37.8178711,2.97558594 L36.8994141,2.97558594 L36.8994141,3.75976562 L37.8178711,3.75976562 L37.8178711,7.28857422 C37.8178711,7.84358724 37.944987,8.25089518 38.1992188,8.51049805 C38.4534505,8.77010091 38.7954102,8.89990234 39.2250977,8.89990234 Z M46.4008789,8.89990234 C47.0167643,8.89990234 47.5565592,8.70564779 48.0202637,8.31713867 C48.4839681,7.92862956 48.7068685,7.48372396 48.6889648,6.98242188 L48.6889648,6.98242188 L48.6782227,6.95019531 L47.7275391,6.95019531 C47.7275391,7.26529948 47.5941569,7.53116862 47.3273926,7.74780273 C47.0606283,7.96443685 46.7517904,8.07275391 46.4008789,8.07275391 C45.8422852,8.07275391 45.4448242,7.87491862 45.2084961,7.47924805 C44.972168,7.08357747 44.8540039,6.58854167 44.8540039,5.99414062 L44.8540039,5.99414062 L44.8540039,5.76855469 C44.8540039,5.18847656 44.9730632,4.69881185 45.2111816,4.29956055 C45.4493001,3.90030924 45.8458659,3.70068359 46.4008789,3.70068359 C46.6479492,3.70068359 46.8699544,3.73828125 47.0668945,3.81347656 C47.2638346,3.88867188 47.4249674,3.98714193 47.550293,4.10888672 L47.550293,4.10888672 L47.78125,5.02197266 L48.6245117,5.02197266 L48.5761719,3.73291016 C48.3326823,3.46435547 48.0256348,3.25309245 47.6550293,3.09912109 C47.2844238,2.94514974 46.8663737,2.86816406 46.4008789,2.86816406 C45.5594076,2.86816406 44.9148763,3.14477539 44.4672852,3.69799805 C44.019694,4.2512207 43.7958984,4.94140625 43.7958984,5.76855469 L43.7958984,5.76855469 L43.7958984,5.99414062 C43.7958984,6.82845052 44.0187988,7.52132161 44.4645996,8.07275391 C44.9104004,8.6241862 45.5558268,8.89990234 46.4008789,8.89990234 Z M52.3842773,8.78710938 L52.3842773,8.11035156 L51.5087891,7.95996094 L51.5087891,4.49560547 C51.6627604,4.25927734 51.8588053,4.07218424 52.0969238,3.93432617 C52.3350423,3.7964681 52.5991211,3.72753906 52.8891602,3.72753906 C53.2973633,3.72753906 53.6044108,3.8421224 53.8103027,4.07128906 C54.0161947,4.30045573 54.1191406,4.65494792 54.1191406,5.13476562 L54.1191406,5.13476562 L54.1191406,7.95996094 L53.2436523,8.11035156 L53.2436523,8.78710938 L56.0527344,8.78710938 L56.0527344,8.11035156 L55.1772461,7.95996094 L55.1772461,5.14550781 C55.1772461,4.37207031 55.0053711,3.79915365 54.6616211,3.42675781 C54.3178711,3.05436198 53.8344727,2.86816406 53.2114258,2.86816406 C52.8569336,2.86816406 52.534668,2.94514974 52.2446289,3.09912109 C51.9545898,3.25309245 51.7093099,3.46972656 51.5087891,3.74902344 L51.5087891,3.74902344 L51.5087891,0.408203125 L49.5751953,0.408203125 L49.5751953,1.09033203 L50.4506836,1.24072266 L50.4506836,7.95996094 L49.5751953,8.11035156 L49.5751953,8.78710938 L52.3842773,8.78710938 Z M58.7543945,8.89990234 C59.1017253,8.89990234 59.4284668,8.81306966 59.7346191,8.6394043 C60.0407715,8.46573893 60.2958984,8.24820964 60.5,7.98681641 C60.5071615,8.11214193 60.519694,8.23746745 60.5375977,8.36279297 C60.5555013,8.48811849 60.5805664,8.62955729 60.612793,8.78710938 L60.612793,8.78710938 L61.9985352,8.78710938 L61.9985352,8.11035156 L61.5688477,8.05126953 C61.5616862,7.97965495 61.5572103,7.90804036 61.5554199,7.83642578 C61.5536296,7.7648112 61.5527344,7.69140625 61.5527344,7.61621094 L61.5527344,7.61621094 L61.5527344,4.81787109 C61.5527344,4.19124349 61.3486328,3.70963542 60.9404297,3.37304688 C60.5322266,3.03645833 59.9986979,2.86816406 59.3398438,2.86816406 C58.8994141,2.86816406 58.4912109,2.93172201 58.1152344,3.05883789 C57.7392578,3.18595378 57.4187826,3.35514323 57.1538086,3.56640625 L57.1538086,3.56640625 L57.1538086,4.69433594 L57.9702148,4.69433594 L58.0830078,4.08203125 C58.2083333,3.96386719 58.3721517,3.87076823 58.5744629,3.80273438 C58.7767741,3.73470052 59.0104167,3.70068359 59.2753906,3.70068359 C59.6585286,3.70068359 59.9575195,3.80004883 60.1723633,3.9987793 C60.387207,4.19750977 60.4946289,4.46695964 60.4946289,4.80712891 L60.4946289,4.80712891 L60.4946289,5.48388672 L59.4042969,5.48388672 C58.6272786,5.48388672 58.0158691,5.63338216 57.5700684,5.93237305 C57.1242676,6.23136393 56.9013672,6.65657552 56.9013672,7.20800781 C56.9013672,7.74511719 57.0589193,8.16137695 57.3740234,8.45678711 C57.6891276,8.75219727 58.1492513,8.89990234 58.7543945,8.89990234 Z M58.9101562,8.01367188 C58.5914714,8.01367188 58.3533529,7.9465332 58.1958008,7.81225586 C58.0382487,7.67797852 57.9594727,7.48372396 57.9594727,7.22949219 C57.9594727,6.94303385 58.0856934,6.69954427 58.3381348,6.49902344 C58.5905762,6.2985026 58.933431,6.19824219 59.3666992,6.19824219 L59.3666992,6.19824219 L60.4946289,6.19824219 L60.4946289,7.15429688 C60.3693034,7.390625 60.1616211,7.5929362 59.871582,7.76123047 C59.581543,7.92952474 59.2610677,8.01367188 58.9101562,8.01367188 Z M65.5327148,8.78710938 L65.5327148,8.11035156 L64.6572266,7.95996094 L64.6572266,4.54931641 C64.796875,4.29508464 64.9839681,4.0945638 65.2185059,3.94775391 C65.4530436,3.80094401 65.7224935,3.72753906 66.0268555,3.72753906 C66.4422201,3.72753906 66.7510579,3.83496094 66.9533691,4.04980469 C67.1556803,4.26464844 67.2568359,4.62809245 67.2568359,5.14013672 L67.2568359,5.14013672 L67.2568359,7.95996094 L66.3813477,8.11035156 L66.3813477,8.78710938 L69.1904297,8.78710938 L69.1904297,8.11035156 L68.3149414,7.95996094 L68.3149414,5.11865234 C68.3149414,4.3523763 68.1430664,3.78572591 67.7993164,3.41870117 C67.4555664,3.05167643 66.9703776,2.86816406 66.34375,2.86816406 C65.9713542,2.86816406 65.6392415,2.95320638 65.3474121,3.12329102 C65.0555827,3.29337565 64.8129883,3.53238932 64.6196289,3.84033203 L64.6196289,3.84033203 L64.5444336,2.97558594 L62.7236328,2.97558594 L62.7236328,3.65771484 L63.5991211,3.80810547 L63.5991211,7.95996094 L62.7236328,8.11035156 L62.7236328,8.78710938 L65.5327148,8.78710938 Z M72.6118164,8.78710938 L72.6118164,8.11035156 L71.7363281,7.95996094 L71.7363281,4.54931641 C71.8759766,4.29508464 72.0630697,4.0945638 72.2976074,3.94775391 C72.5321452,3.80094401 72.8015951,3.72753906 73.105957,3.72753906 C73.5213216,3.72753906 73.8301595,3.83496094 74.0324707,4.04980469 C74.2347819,4.26464844 74.3359375,4.62809245 74.3359375,5.14013672 L74.3359375,5.14013672 L74.3359375,7.95996094 L73.4604492,8.11035156 L73.4604492,8.78710938 L76.2695312,8.78710938 L76.2695312,8.11035156 L75.394043,7.95996094 L75.394043,5.11865234 C75.394043,4.3523763 75.222168,3.78572591 74.878418,3.41870117 C74.534668,3.05167643 74.0494792,2.86816406 73.4228516,2.86816406 C73.0504557,2.86816406 72.7183431,2.95320638 72.4265137,3.12329102 C72.1346842,3.29337565 71.8920898,3.53238932 71.6987305,3.84033203 L71.6987305,3.84033203 L71.6235352,2.97558594 L69.8027344,2.97558594 L69.8027344,3.65771484 L70.6782227,3.80810547 L70.6782227,7.95996094 L69.8027344,8.11035156 L69.8027344,8.78710938 L72.6118164,8.78710938 Z M79.637207,8.89990234 C80.1170247,8.89990234 80.5279134,8.83097331 80.869873,8.69311523 C81.2118327,8.55525716 81.4866536,8.38606771 81.6943359,8.18554688 L81.6943359,8.18554688 L81.2807617,7.49804688 C81.0838216,7.67708333 80.850179,7.81762695 80.579834,7.91967773 C80.3094889,8.02172852 79.9952799,8.07275391 79.637207,8.07275391 C79.1466471,8.07275391 78.7652995,7.89282227 78.4931641,7.53295898 C78.2210286,7.1730957 78.0795898,6.71386719 78.0688477,6.15527344 L78.0688477,6.15527344 L78.0849609,6.12841797 L81.8554688,6.12841797 L81.8554688,5.46777344 C81.8554688,4.68001302 81.6540527,4.04980469 81.2512207,3.57714844 C80.8483887,3.10449219 80.2566732,2.86816406 79.4760742,2.86816406 C78.8028971,2.86816406 78.2201335,3.14298503 77.7277832,3.69262695 C77.2354329,4.24226888 76.9892578,4.93066406 76.9892578,5.7578125 L76.9892578,5.7578125 L76.9892578,5.99414062 C76.9892578,6.85351562 77.2282715,7.55265299 77.7062988,8.09155273 C78.1843262,8.63045247 78.8279622,8.89990234 79.637207,8.89990234 Z M80.7973633,5.30126953 L78.1171875,5.30126953 L78.1064453,5.27441406 C78.163737,4.82324219 78.3177083,4.44816081 78.5683594,4.14916992 C78.8190104,3.85017904 79.121582,3.70068359 79.4760742,3.70068359 C79.9129232,3.70068359 80.2423503,3.84033203 80.4643555,4.11962891 C80.6863607,4.39892578 80.7973633,4.74625651 80.7973633,5.16162109 L80.7973633,5.16162109 L80.7973633,5.30126953 Z M85.5615234,8.78710938 L85.5615234,8.11035156 L84.6860352,7.95996094 L84.6860352,0.408203125 L82.7524414,0.408203125 L82.7524414,1.09033203 L83.6279297,1.24072266 L83.6279297,7.95996094 L82.7524414,8.11035156 L82.7524414,8.78710938 L85.5615234,8.78710938 Z M86.1738281,11.2739258 C86.796875,10.940918 87.3939616,10.2757975 87.9650879,9.27856445 C88.5362142,8.28133138 88.8217773,7.07552083 88.8217773,5.66113281 L88.8217773,5.66113281 L88.8217773,5.61279297 C88.8217773,4.20198568 88.5362142,2.99707031 87.9650879,1.99804688 C87.3939616,0.999023438 86.796875,0.333007812 86.1738281,0 L86.1738281,0 L86.1416016,0 L85.9428711,0.580078125 C86.4047852,0.973958333 86.8237305,1.6023763 87.199707,2.46533203 C87.5756836,3.32828776 87.7636719,4.37386068 87.7636719,5.60205078 L87.7636719,5.60205078 L87.7636719,5.671875 C87.7636719,6.92154948 87.5810547,7.9769694 87.2158203,8.83813477 C86.8505859,9.69930013 86.4262695,10.3178711 85.9428711,10.6938477 L85.9428711,10.6938477 L86.1416016,11.2739258 L86.1738281,11.2739258 Z" id="(leftchannel)" fill="#25292C"></path>
            </g>
            <line x1="14.5" y1="5" x2="0.5" y2="5" id="Line" stroke="#164D61" stroke-linecap="square" stroke-dasharray="2"></line>
            <line x1="14.5" y1="18" x2="0.5" y2="18" id="Line" stroke="#B01E41" stroke-linecap="square" stroke-dasharray="2"></line>
            <line x1="14.5" y1="31" x2="0.5" y2="31" id="Line" stroke="#D6805A" stroke-linecap="square" stroke-dasharray="2"></line>
        </g>
    </g>
</svg>