<?xml version="1.0" encoding="UTF-8"?>
<svg width="715px" height="740px" viewBox="0 0 715 740" version="1.1" xmlns="http://www.w3.org/2000/svg" xmlns:xlink="http://www.w3.org/1999/xlink">
    <!-- Generator: Sketch 54.1 (76490) - https://sketchapp.com -->
    <title>12x12_q104_wordgraph</title>
    <desc>Created with Sketch.</desc>
    <g id="q104_wordgraph" stroke="none" stroke-width="1" fill="none" fill-rule="evenodd">
        <rect id="Rectangle" stroke="#000000" fill="#FFFFFF" x="315.5" y="0.5" width="239" height="59" rx="8"></rect>
        <path d="M342.196289,20.6386719 L339.594727,21.0429688 L342.881836,35.140625 L343.356445,38.3398438 L343.461914,38.3574219 L344.147461,35.140625 L348.858398,18.40625 L351.916992,18.40625 L356.645508,35.140625 L357.348633,38.4277344 L357.454102,38.4277344 L357.963867,35.140625 L361.180664,21.0429688 L358.561523,20.6386719 L358.561523,18.40625 L366.700195,18.40625 L366.700195,20.6386719 L364.643555,20.9023438 L359.071289,44 L355.977539,44 L350.915039,26.2460938 L350.458008,23.9433594 L350.352539,23.9433594 L349.913086,26.2460938 L344.780273,44 L341.704102,44 L336.131836,20.9023438 L334.075195,20.6386719 L334.075195,18.40625 L342.196289,18.40625 L342.196289,20.6386719 Z M367.385742,41.7851562 L369.28418,41.5214844 L378.231445,18.40625 L381.202148,18.40625 L389.991211,41.5214844 L391.87207,41.7851562 L391.87207,44 L384.524414,44 L384.524414,41.7851562 L386.458008,41.4511719 L384.770508,36.7402344 L374.522461,36.7402344 L372.782227,41.4511719 L374.71582,41.7851562 L374.71582,44 L367.385742,44 L367.385742,41.7851562 Z M375.594727,33.8398438 L383.71582,33.8398438 L379.743164,22.8535156 L379.637695,22.8535156 L375.594727,33.8398438 Z M405.266602,18.4238281 C408.055678,18.4238281 410.194328,19.041986 411.682617,20.2783203 C413.170906,21.5146546 413.915039,23.2695199 413.915039,25.5429688 C413.915039,26.7851625 413.569339,27.8867139 412.87793,28.8476562 C412.18652,29.8085986 411.196296,30.5644504 409.907227,31.1152344 C411.301765,31.5722679 412.306638,32.3164011 412.921875,33.3476562 C413.537112,34.3789114 413.844727,35.6503831 413.844727,37.1621094 L413.844727,39.21875 C413.844727,40.0039102 413.944335,40.5839825 414.143555,40.9589844 C414.342774,41.3339863 414.670896,41.5566403 415.12793,41.6269531 L415.97168,41.7324219 L415.97168,44 L414.108398,44 C412.760735,44 411.802737,43.5312547 411.234375,42.59375 C410.666013,41.6562453 410.381836,40.5195379 410.381836,39.1835938 L410.381836,37.1972656 C410.381836,35.8027274 409.977543,34.683598 409.168945,33.8398438 C408.360348,32.9960895 407.276374,32.5742188 405.916992,32.5742188 L400.362305,32.5742188 L400.362305,41.2929688 L403.227539,41.7851562 L403.227539,44 L394.03418,44 L394.03418,41.7851562 L396.899414,41.2929688 L396.899414,21.1308594 L394.03418,20.6386719 L394.03418,18.4238281 L405.266602,18.4238281 Z M400.362305,29.8496094 L404.915039,29.8496094 C406.848642,29.8496094 408.254878,29.4804724 409.133789,28.7421875 C410.0127,28.0039026 410.452148,26.9257883 410.452148,25.5078125 C410.452148,24.1601495 410.030278,23.0937539 409.186523,22.3085938 C408.342769,21.5234336 407.036142,21.1308594 405.266602,21.1308594 L400.362305,21.1308594 L400.362305,29.8496094 Z M438.243164,26.2636719 L435.799805,26.2636719 L435.149414,22.6425781 C434.586911,22.0917941 433.895512,21.6406268 433.075195,21.2890625 C432.254879,20.9374982 431.276373,20.7617188 430.139648,20.7617188 C427.479479,20.7617188 425.434577,21.7255763 424.004883,23.6533203 C422.575188,25.5810643 421.860352,28.0273289 421.860352,30.9921875 L421.860352,31.3964844 C421.860352,34.3613429 422.56054,36.8134669 423.960938,38.7529297 C425.361335,40.6923925 427.303699,41.6621094 429.788086,41.6621094 C430.948248,41.6621094 432.002925,41.4804706 432.952148,41.1171875 C433.901372,40.7539044 434.633786,40.3085964 435.149414,39.78125 L435.799805,36.1601562 L438.243164,36.1601562 L438.243164,40.7128906 C437.504879,41.6621141 436.397468,42.5087853 434.920898,43.2529297 C433.444329,43.997074 431.733408,44.3691406 429.788086,44.3691406 C426.459944,44.3691406 423.729503,43.1386842 421.59668,40.6777344 C419.463857,38.2167846 418.397461,35.1230655 418.397461,31.3964844 L418.397461,31.0273438 C418.397461,27.277325 419.446279,24.174817 421.543945,21.7197266 C423.641612,19.2646362 426.389631,18.0371094 429.788086,18.0371094 C431.733408,18.0371094 433.444329,18.4150353 434.920898,19.1708984 C436.397468,19.9267616 437.504879,20.7734328 438.243164,21.7109375 L438.243164,26.2636719 Z M452.850586,18.4238281 C455.639662,18.4238281 457.778313,19.041986 459.266602,20.2783203 C460.75489,21.5146546 461.499023,23.2695199 461.499023,25.5429688 C461.499023,26.7851625 461.153324,27.8867139 460.461914,28.8476562 C459.770504,29.8085986 458.78028,30.5644504 457.491211,31.1152344 C458.885749,31.5722679 459.890622,32.3164011 460.505859,33.3476562 C461.121097,34.3789114 461.428711,35.6503831 461.428711,37.1621094 L461.428711,39.21875 C461.428711,40.0039102 461.528319,40.5839825 461.727539,40.9589844 C461.926759,41.3339863 462.254881,41.5566403 462.711914,41.6269531 L463.555664,41.7324219 L463.555664,44 L461.692383,44 C460.34472,44 459.386722,43.5312547 458.818359,42.59375 C458.249997,41.6562453 457.96582,40.5195379 457.96582,39.1835938 L457.96582,37.1972656 C457.96582,35.8027274 457.561527,34.683598 456.75293,33.8398438 C455.944332,32.9960895 454.860358,32.5742188 453.500977,32.5742188 L447.946289,32.5742188 L447.946289,41.2929688 L450.811523,41.7851562 L450.811523,44 L441.618164,44 L441.618164,41.7851562 L444.483398,41.2929688 L444.483398,21.1308594 L441.618164,20.6386719 L441.618164,18.4238281 L452.850586,18.4238281 Z M447.946289,29.8496094 L452.499023,29.8496094 C454.432627,29.8496094 455.838863,29.4804724 456.717773,28.7421875 C457.596684,28.0039026 458.036133,26.9257883 458.036133,25.5078125 C458.036133,24.1601495 457.614262,23.0937539 456.770508,22.3085938 C455.926754,21.5234336 454.620126,21.1308594 452.850586,21.1308594 L447.946289,21.1308594 L447.946289,29.8496094 Z M465.700195,41.7851562 L467.598633,41.5214844 L476.545898,18.40625 L479.516602,18.40625 L488.305664,41.5214844 L490.186523,41.7851562 L490.186523,44 L482.838867,44 L482.838867,41.7851562 L484.772461,41.4511719 L483.084961,36.7402344 L472.836914,36.7402344 L471.09668,41.4511719 L473.030273,41.7851562 L473.030273,44 L465.700195,44 L465.700195,41.7851562 Z M473.90918,33.8398438 L482.030273,33.8398438 L478.057617,22.8535156 L477.952148,22.8535156 L473.90918,33.8398438 Z M492.348633,41.7851562 L495.213867,41.2929688 L495.213867,21.1308594 L492.348633,20.6386719 L492.348633,18.40625 L512.124023,18.40625 L512.124023,24.5585938 L509.170898,24.5585938 L508.889648,21.1308594 L498.676758,21.1308594 L498.676758,29.9550781 L508.573242,29.9550781 L508.573242,32.6796875 L498.676758,32.6796875 L498.676758,41.2929688 L501.541992,41.7851562 L501.541992,44 L492.348633,44 L492.348633,41.7851562 Z M535.749023,18.40625 L535.749023,24.0664062 L532.795898,24.0664062 L532.532227,21.1308594 L526.854492,21.1308594 L526.854492,41.2929688 L529.719727,41.7851562 L529.719727,44 L520.526367,44 L520.526367,41.7851562 L523.391602,41.2929688 L523.391602,21.1308594 L517.696289,21.1308594 L517.450195,24.0664062 L514.479492,24.0664062 L514.479492,18.40625 L535.749023,18.40625 Z" id="WARCRAFT" fill="#000000" fill-rule="nonzero"></path>
        <rect id="Rectangle" stroke="#000000" fill="#FFFFFF" x="95.5" y="180.5" width="319" height="59" rx="8"></rect>
        <path d="M144.020508,205.964844 L141.401367,205.964844 L140.750977,202.308594 C140.22363,201.863279 139.520512,201.494142 138.641602,201.201172 C137.762691,200.908202 136.74317,200.761719 135.583008,200.761719 C133.743155,200.761719 132.33106,201.151363 131.34668,201.930664 C130.3623,202.709965 129.870117,203.726556 129.870117,204.980469 C129.870117,206.093756 130.371089,207.022457 131.373047,207.766602 C132.375005,208.510746 133.995106,209.16406 136.233398,209.726562 C138.928724,210.394535 140.976555,211.3789 142.376953,212.679688 C143.777351,213.980475 144.477539,215.591787 144.477539,217.513672 C144.477539,219.576182 143.636727,221.234369 141.955078,222.488281 C140.273429,223.742194 138.073256,224.369141 135.354492,224.369141 C133.385732,224.369141 131.636726,224.046878 130.107422,223.402344 C128.578117,222.757809 127.333013,221.914068 126.37207,220.871094 L126.37207,216.107422 L128.973633,216.107422 L129.641602,219.78125 C130.309574,220.332034 131.106441,220.783201 132.032227,221.134766 C132.958012,221.48633 134.065423,221.662109 135.354492,221.662109 C137.100595,221.662109 138.480464,221.292972 139.494141,220.554688 C140.507818,219.816403 141.014648,218.814459 141.014648,217.548828 C141.014648,216.376947 140.5752,215.395512 139.696289,214.604492 C138.817378,213.813473 137.26466,213.14844 135.038086,212.609375 C132.331041,211.964841 130.215828,211.015631 128.692383,209.761719 C127.168938,208.507806 126.407227,206.93165 126.407227,205.033203 C126.407227,203.029287 127.256827,201.362311 128.956055,200.032227 C130.655282,198.702142 132.864244,198.037109 135.583008,198.037109 C137.375986,198.037109 139.007805,198.344723 140.478516,198.959961 C141.949226,199.575198 143.129878,200.322261 144.020508,201.201172 L144.020508,205.964844 Z M168.084961,198.40625 L168.084961,204.066406 L165.131836,204.066406 L164.868164,201.130859 L159.19043,201.130859 L159.19043,221.292969 L162.055664,221.785156 L162.055664,224 L152.862305,224 L152.862305,221.785156 L155.727539,221.292969 L155.727539,201.130859 L150.032227,201.130859 L149.786133,204.066406 L146.81543,204.066406 L146.81543,198.40625 L168.084961,198.40625 Z M166.538086,221.785156 L168.436523,221.521484 L177.383789,198.40625 L180.354492,198.40625 L189.143555,221.521484 L191.024414,221.785156 L191.024414,224 L183.676758,224 L183.676758,221.785156 L185.610352,221.451172 L183.922852,216.740234 L173.674805,216.740234 L171.93457,221.451172 L173.868164,221.785156 L173.868164,224 L166.538086,224 L166.538086,221.785156 Z M174.74707,213.839844 L182.868164,213.839844 L178.895508,202.853516 L178.790039,202.853516 L174.74707,213.839844 Z M204.418945,198.423828 C207.208022,198.423828 209.346672,199.041986 210.834961,200.27832 C212.32325,201.514655 213.067383,203.26952 213.067383,205.542969 C213.067383,206.785162 212.721683,207.886714 212.030273,208.847656 C211.338864,209.808599 210.348639,210.56445 209.05957,211.115234 C210.454109,211.572268 211.458981,212.316401 212.074219,213.347656 C212.689456,214.378911 212.99707,215.650383 212.99707,217.162109 L212.99707,219.21875 C212.99707,220.00391 213.096679,220.583982 213.295898,220.958984 C213.495118,221.333986 213.82324,221.55664 214.280273,221.626953 L215.124023,221.732422 L215.124023,224 L213.260742,224 C211.913079,224 210.955081,223.531255 210.386719,222.59375 C209.818357,221.656245 209.53418,220.519538 209.53418,219.183594 L209.53418,217.197266 C209.53418,215.802727 209.129887,214.683598 208.321289,213.839844 C207.512691,212.99609 206.428718,212.574219 205.069336,212.574219 L199.514648,212.574219 L199.514648,221.292969 L202.379883,221.785156 L202.379883,224 L193.186523,224 L193.186523,221.785156 L196.051758,221.292969 L196.051758,201.130859 L193.186523,200.638672 L193.186523,198.423828 L204.418945,198.423828 Z M199.514648,209.849609 L204.067383,209.849609 C206.000986,209.849609 207.407222,209.480472 208.286133,208.742188 C209.165043,208.003903 209.604492,206.925788 209.604492,205.507812 C209.604492,204.16015 209.182621,203.093754 208.338867,202.308594 C207.495113,201.523434 206.188485,201.130859 204.418945,201.130859 L199.514648,201.130859 L199.514648,209.849609 Z M237.395508,206.263672 L234.952148,206.263672 L234.301758,202.642578 C233.739255,202.091794 233.047856,201.640627 232.227539,201.289062 C231.407222,200.937498 230.428717,200.761719 229.291992,200.761719 C226.631823,200.761719 224.586921,201.725576 223.157227,203.65332 C221.727532,205.581064 221.012695,208.027329 221.012695,210.992188 L221.012695,211.396484 C221.012695,214.361343 221.712884,216.813467 223.113281,218.75293 C224.513679,220.692393 226.456042,221.662109 228.94043,221.662109 C230.100592,221.662109 231.155269,221.480471 232.104492,221.117188 C233.053716,220.753904 233.78613,220.308596 234.301758,219.78125 L234.952148,216.160156 L237.395508,216.160156 L237.395508,220.712891 C236.657223,221.662114 235.549812,222.508785 234.073242,223.25293 C232.596672,223.997074 230.885752,224.369141 228.94043,224.369141 C225.612288,224.369141 222.881847,223.138684 220.749023,220.677734 C218.6162,218.216785 217.549805,215.123066 217.549805,211.396484 L217.549805,211.027344 C217.549805,207.277325 218.598622,204.174817 220.696289,201.719727 C222.793956,199.264636 225.541975,198.037109 228.94043,198.037109 C230.885752,198.037109 232.596672,198.415035 234.073242,199.170898 C235.549812,199.926762 236.657223,200.773433 237.395508,201.710938 L237.395508,206.263672 Z M263.569336,211.396484 C263.569336,215.123066 262.500011,218.216785 260.361328,220.677734 C258.222646,223.138684 255.454119,224.369141 252.055664,224.369141 C248.75096,224.369141 246.067393,223.138684 244.004883,220.677734 C241.942373,218.216785 240.911133,215.123066 240.911133,211.396484 L240.911133,211.027344 C240.911133,207.312481 241.942373,204.218762 244.004883,201.746094 C246.067393,199.273425 248.75096,198.037109 252.055664,198.037109 C255.454119,198.037109 258.222646,199.273425 260.361328,201.746094 C262.500011,204.218762 263.569336,207.312481 263.569336,211.027344 L263.569336,211.396484 Z M260.106445,210.992188 C260.106445,208.01561 259.394538,205.586923 257.970703,203.706055 C256.546868,201.825186 254.575208,200.884766 252.055664,200.884766 C249.641589,200.884766 247.757819,201.828116 246.404297,203.714844 C245.050774,205.601572 244.374023,208.027329 244.374023,210.992188 L244.374023,211.396484 C244.374023,214.396499 245.050774,216.836905 246.404297,218.717773 C247.757819,220.598642 249.641589,221.539062 252.055664,221.539062 C254.610364,221.539062 256.590813,220.601572 257.99707,218.726562 C259.403327,216.851553 260.106445,214.408218 260.106445,211.396484 L260.106445,210.992188 Z M291.237305,198.40625 L291.237305,200.638672 L288.37207,201.130859 L288.37207,224 L284.90918,224 L272.604492,204.242188 L272.499023,204.277344 L272.499023,221.292969 L275.364258,221.785156 L275.364258,224 L266.170898,224 L266.170898,221.785156 L269.036133,221.292969 L269.036133,201.130859 L266.170898,200.638672 L266.170898,198.40625 L272.499023,198.40625 L284.803711,218.146484 L284.90918,218.111328 L284.90918,201.130859 L282.043945,200.638672 L282.043945,198.40625 L291.237305,198.40625 Z M314.264648,198.40625 L314.264648,204.066406 L311.311523,204.066406 L311.047852,201.130859 L305.370117,201.130859 L305.370117,221.292969 L308.235352,221.785156 L308.235352,224 L299.041992,224 L299.041992,221.785156 L301.907227,221.292969 L301.907227,201.130859 L296.211914,201.130859 L295.96582,204.066406 L292.995117,204.066406 L292.995117,198.40625 L314.264648,198.40625 Z M327.395508,198.423828 C330.184584,198.423828 332.323235,199.041986 333.811523,200.27832 C335.299812,201.514655 336.043945,203.26952 336.043945,205.542969 C336.043945,206.785162 335.698246,207.886714 335.006836,208.847656 C334.315426,209.808599 333.325202,210.56445 332.036133,211.115234 C333.430671,211.572268 334.435544,212.316401 335.050781,213.347656 C335.666019,214.378911 335.973633,215.650383 335.973633,217.162109 L335.973633,219.21875 C335.973633,220.00391 336.073241,220.583982 336.272461,220.958984 C336.471681,221.333986 336.799802,221.55664 337.256836,221.626953 L338.100586,221.732422 L338.100586,224 L336.237305,224 C334.889642,224 333.931643,223.531255 333.363281,222.59375 C332.794919,221.656245 332.510742,220.519538 332.510742,219.183594 L332.510742,217.197266 C332.510742,215.802727 332.106449,214.683598 331.297852,213.839844 C330.489254,212.99609 329.40528,212.574219 328.045898,212.574219 L322.491211,212.574219 L322.491211,221.292969 L325.356445,221.785156 L325.356445,224 L316.163086,224 L316.163086,221.785156 L319.02832,221.292969 L319.02832,201.130859 L316.163086,200.638672 L316.163086,198.423828 L327.395508,198.423828 Z M322.491211,209.849609 L327.043945,209.849609 C328.977549,209.849609 330.383785,209.480472 331.262695,208.742188 C332.141606,208.003903 332.581055,206.925788 332.581055,205.507812 C332.581055,204.16015 332.159184,203.093754 331.31543,202.308594 C330.471675,201.523434 329.165048,201.130859 327.395508,201.130859 L322.491211,201.130859 L322.491211,209.849609 Z M363.325195,211.396484 C363.325195,215.123066 362.25587,218.216785 360.117188,220.677734 C357.978505,223.138684 355.209978,224.369141 351.811523,224.369141 C348.506819,224.369141 345.823252,223.138684 343.760742,220.677734 C341.698232,218.216785 340.666992,215.123066 340.666992,211.396484 L340.666992,211.027344 C340.666992,207.312481 341.698232,204.218762 343.760742,201.746094 C345.823252,199.273425 348.506819,198.037109 351.811523,198.037109 C355.209978,198.037109 357.978505,199.273425 360.117188,201.746094 C362.25587,204.218762 363.325195,207.312481 363.325195,211.027344 L363.325195,211.396484 Z M359.862305,210.992188 C359.862305,208.01561 359.150398,205.586923 357.726562,203.706055 C356.302727,201.825186 354.331067,200.884766 351.811523,200.884766 C349.397449,200.884766 347.513679,201.828116 346.160156,203.714844 C344.806634,205.601572 344.129883,208.027329 344.129883,210.992188 L344.129883,211.396484 C344.129883,214.396499 344.806634,216.836905 346.160156,218.717773 C347.513679,220.598642 349.397449,221.539062 351.811523,221.539062 C354.366224,221.539062 356.346673,220.601572 357.75293,218.726562 C359.159187,216.851553 359.862305,214.408218 359.862305,211.396484 L359.862305,210.992188 Z M365.926758,224 L365.926758,221.785156 L368.791992,221.292969 L368.791992,201.130859 L365.926758,200.638672 L365.926758,198.40625 L375.120117,198.40625 L375.120117,200.638672 L372.254883,201.130859 L372.254883,221.292969 L381.149414,221.292969 L381.413086,218.357422 L384.366211,218.357422 L384.366211,224 L365.926758,224 Z" id="STARCONTROL" fill="#000000" fill-rule="nonzero"></path>
        <rect id="Rectangle" stroke="#000000" fill="#FFFFFF" x="35.5" y="280.5" width="179" height="59" rx="8"></rect>
        <path d="M79.6132812,321.099609 C78.8632775,321.88477 77.7558667,322.625973 76.2910156,323.323242 C74.8261646,324.020511 72.9218867,324.369141 70.578125,324.369141 C67.1562329,324.369141 64.3642686,323.167981 62.2021484,320.765625 C60.0400283,318.363269 58.9589844,315.246113 58.9589844,311.414062 L58.9589844,310.992188 C58.9589844,307.136699 60.0283096,304.013684 62.1669922,301.623047 C64.3056748,299.23241 67.1503729,298.037109 70.7011719,298.037109 C72.5996189,298.037109 74.2665944,298.333005 75.7021484,298.924805 C77.1377025,299.516605 78.3476513,300.298823 79.3320312,301.271484 L79.3320312,305.912109 L76.90625,305.912109 L76.0625,302.378906 C75.4882784,301.910154 74.7939494,301.523439 73.9794922,301.21875 C73.165035,300.914061 72.1894588,300.761719 71.0527344,300.761719 C68.2870955,300.761719 66.157234,301.707998 64.6630859,303.600586 C63.1689378,305.493174 62.421875,307.945297 62.421875,310.957031 L62.421875,311.414062 C62.421875,314.472672 63.1455006,316.945303 64.5927734,318.832031 C66.0400463,320.718759 68.0351435,321.662109 70.578125,321.662109 C71.9726632,321.662109 73.1152299,321.515626 74.0058594,321.222656 C74.8964888,320.929686 75.6113254,320.607424 76.1503906,320.255859 L76.1503906,314.648438 L71.9492188,314.472656 L71.9492188,311.923828 L79.6132812,311.923828 L79.6132812,321.099609 Z M83.6035156,300.638672 L83.6035156,298.40625 L92.796875,298.40625 L92.796875,300.638672 L89.9316406,301.130859 L89.9316406,321.292969 L92.796875,321.785156 L92.796875,324 L83.6035156,324 L83.6035156,321.785156 L86.46875,321.292969 L86.46875,301.130859 L83.6035156,300.638672 Z M94.9765625,321.785156 L96.875,321.521484 L105.822266,298.40625 L108.792969,298.40625 L117.582031,321.521484 L119.462891,321.785156 L119.462891,324 L112.115234,324 L112.115234,321.785156 L114.048828,321.451172 L112.361328,316.740234 L102.113281,316.740234 L100.373047,321.451172 L102.306641,321.785156 L102.306641,324 L94.9765625,324 L94.9765625,321.785156 Z M103.185547,313.839844 L111.306641,313.839844 L107.333984,302.853516 L107.228516,302.853516 L103.185547,313.839844 Z M146.691406,298.40625 L146.691406,300.638672 L143.826172,301.130859 L143.826172,324 L140.363281,324 L128.058594,304.242188 L127.953125,304.277344 L127.953125,321.292969 L130.818359,321.785156 L130.818359,324 L121.625,324 L121.625,321.785156 L124.490234,321.292969 L124.490234,301.130859 L121.625,300.638672 L121.625,298.40625 L127.953125,298.40625 L140.257812,318.146484 L140.363281,318.111328 L140.363281,301.130859 L137.498047,300.638672 L137.498047,298.40625 L146.691406,298.40625 Z M169.71875,298.40625 L169.71875,304.066406 L166.765625,304.066406 L166.501953,301.130859 L160.824219,301.130859 L160.824219,321.292969 L163.689453,321.785156 L163.689453,324 L154.496094,324 L154.496094,321.785156 L157.361328,321.292969 L157.361328,301.130859 L151.666016,301.130859 L151.419922,304.066406 L148.449219,304.066406 L148.449219,298.40625 L169.71875,298.40625 Z M189.863281,305.964844 L187.244141,305.964844 L186.59375,302.308594 C186.066404,301.863279 185.363286,301.494142 184.484375,301.201172 C183.605464,300.908202 182.585943,300.761719 181.425781,300.761719 C179.585928,300.761719 178.173833,301.151363 177.189453,301.930664 C176.205073,302.709965 175.712891,303.726556 175.712891,304.980469 C175.712891,306.093756 176.213862,307.022457 177.21582,307.766602 C178.217778,308.510746 179.837879,309.16406 182.076172,309.726562 C184.771498,310.394535 186.819329,311.3789 188.219727,312.679688 C189.620124,313.980475 190.320312,315.591787 190.320312,317.513672 C190.320312,319.576182 189.479501,321.234369 187.797852,322.488281 C186.116203,323.742194 183.916029,324.369141 181.197266,324.369141 C179.228506,324.369141 177.4795,324.046878 175.950195,323.402344 C174.420891,322.757809 173.175786,321.914068 172.214844,320.871094 L172.214844,316.107422 L174.816406,316.107422 L175.484375,319.78125 C176.152347,320.332034 176.949214,320.783201 177.875,321.134766 C178.800786,321.48633 179.908197,321.662109 181.197266,321.662109 C182.943368,321.662109 184.323237,321.292972 185.336914,320.554688 C186.350591,319.816403 186.857422,318.814459 186.857422,317.548828 C186.857422,316.376947 186.417973,315.395512 185.539062,314.604492 C184.660152,313.813473 183.107433,313.14844 180.880859,312.609375 C178.173815,311.964841 176.058601,311.015631 174.535156,309.761719 C173.011711,308.507806 172.25,306.93165 172.25,305.033203 C172.25,303.029287 173.099601,301.362311 174.798828,300.032227 C176.498055,298.702142 178.707018,298.037109 181.425781,298.037109 C183.218759,298.037109 184.850579,298.344723 186.321289,298.959961 C187.792,299.575198 188.972652,300.322261 189.863281,301.201172 L189.863281,305.964844 Z" id="GIANTS" fill="#000000" fill-rule="nonzero"></path>
        <rect id="Rectangle" stroke="#000000" fill="#FFFFFF" x="195.5" y="520.5" width="219" height="59" rx="8"></rect>
        <path d="M206.834961,564 L206.834961,561.785156 L209.700195,561.292969 L209.700195,541.130859 L206.834961,540.638672 L206.834961,538.40625 L226.487305,538.40625 L226.487305,544.558594 L223.516602,544.558594 L223.235352,541.130859 L213.163086,541.130859 L213.163086,549.410156 L222.954102,549.410156 L222.954102,552.134766 L213.163086,552.134766 L213.163086,561.292969 L223.446289,561.292969 L223.727539,557.865234 L226.680664,557.865234 L226.680664,564 L206.834961,564 Z M229.299805,561.785156 L231.602539,561.398438 L238.879883,551.097656 L231.77832,541.025391 L229.475586,540.638672 L229.475586,538.40625 L237.772461,538.40625 L237.772461,540.638672 L235.71582,540.867188 L240.831055,548.548828 L245.999023,540.867188 L243.942383,540.638672 L243.942383,538.40625 L252.291992,538.40625 L252.291992,540.638672 L249.989258,541.025391 L242.887695,551.097656 L250.147461,561.398438 L252.467773,561.785156 L252.467773,564 L244.188477,564 L244.188477,561.785156 L246.209961,561.556641 L240.901367,553.681641 L235.575195,561.556641 L237.631836,561.785156 L237.631836,564 L229.299805,564 L229.299805,561.785156 Z M254.19043,561.785156 L256.088867,561.521484 L265.036133,538.40625 L268.006836,538.40625 L276.795898,561.521484 L278.676758,561.785156 L278.676758,564 L271.329102,564 L271.329102,561.785156 L273.262695,561.451172 L271.575195,556.740234 L261.327148,556.740234 L259.586914,561.451172 L261.520508,561.785156 L261.520508,564 L254.19043,564 L254.19043,561.785156 Z M262.399414,553.839844 L270.520508,553.839844 L266.547852,542.853516 L266.442383,542.853516 L262.399414,553.839844 Z M292.598633,538.40625 C295.329115,538.40625 297.453117,539.109368 298.970703,540.515625 C300.488289,541.921882 301.24707,543.773426 301.24707,546.070312 C301.24707,548.390637 300.488289,550.24804 298.970703,551.642578 C297.453117,553.037116 295.329115,553.734375 292.598633,553.734375 L287.166992,553.734375 L287.166992,561.292969 L290.032227,561.785156 L290.032227,564 L280.838867,564 L280.838867,561.785156 L283.704102,561.292969 L283.704102,541.130859 L280.838867,540.638672 L280.838867,538.40625 L292.598633,538.40625 Z M287.166992,551.027344 L292.598633,551.027344 C294.333016,551.027344 295.630855,550.561528 296.492188,549.629883 C297.35352,548.698238 297.78418,547.523445 297.78418,546.105469 C297.78418,544.687493 297.35352,543.503911 296.492188,542.554688 C295.630855,541.605464 294.333016,541.130859 292.598633,541.130859 L287.166992,541.130859 L287.166992,551.027344 Z M312.708008,538.40625 L312.708008,540.638672 L309.842773,541.130859 L309.842773,555.755859 C309.842773,557.689463 310.393549,559.157222 311.495117,560.15918 C312.596685,561.161138 314.049796,561.662109 315.854492,561.662109 C317.752939,561.662109 319.282221,561.164067 320.442383,560.167969 C321.602545,559.17187 322.182617,557.701182 322.182617,555.755859 L322.182617,541.130859 L319.317383,540.638672 L319.317383,538.40625 L328.510742,538.40625 L328.510742,540.638672 L325.645508,541.130859 L325.645508,555.755859 C325.645508,558.533217 324.740243,560.663079 322.929688,562.145508 C321.119132,563.627937 318.760757,564.369141 315.854492,564.369141 C313.030259,564.369141 310.745126,563.627937 308.999023,562.145508 C307.252921,560.663079 306.379883,558.533217 306.379883,555.755859 L306.379883,541.130859 L303.514648,540.638672 L303.514648,538.40625 L312.708008,538.40625 Z M355.862305,538.40625 L355.862305,540.638672 L352.99707,541.130859 L352.99707,564 L349.53418,564 L337.229492,544.242188 L337.124023,544.277344 L337.124023,561.292969 L339.989258,561.785156 L339.989258,564 L330.795898,564 L330.795898,561.785156 L333.661133,561.292969 L333.661133,541.130859 L330.795898,540.638672 L330.795898,538.40625 L337.124023,538.40625 L349.428711,558.146484 L349.53418,558.111328 L349.53418,541.130859 L346.668945,540.638672 L346.668945,538.40625 L355.862305,538.40625 Z M358.217773,561.785156 L361.083008,561.292969 L361.083008,541.130859 L358.217773,540.638672 L358.217773,538.40625 L367.411133,538.40625 L367.411133,540.638672 L364.545898,541.130859 L364.545898,549.726562 L367.200195,549.726562 L374.354492,540.884766 L372.438477,540.638672 L372.438477,538.40625 L380.55957,538.40625 L380.55957,540.638672 L378.151367,541.078125 L370.329102,550.78125 L378.87207,561.345703 L381.280273,561.785156 L381.280273,564 L372.87793,564 L372.87793,561.785156 L374.829102,561.539062 L367.53418,552.451172 L364.545898,552.451172 L364.545898,561.292969 L367.411133,561.785156 L367.411133,564 L358.217773,564 L358.217773,561.785156 Z M402.268555,545.964844 L399.649414,545.964844 L398.999023,542.308594 C398.471677,541.863279 397.768559,541.494142 396.889648,541.201172 C396.010738,540.908202 394.991217,540.761719 393.831055,540.761719 C391.991202,540.761719 390.579106,541.151363 389.594727,541.930664 C388.610347,542.709965 388.118164,543.726556 388.118164,544.980469 C388.118164,546.093756 388.619136,547.022457 389.621094,547.766602 C390.623052,548.510746 392.243153,549.16406 394.481445,549.726562 C397.176771,550.394535 399.224602,551.3789 400.625,552.679688 C402.025398,553.980475 402.725586,555.591787 402.725586,557.513672 C402.725586,559.576182 401.884774,561.234369 400.203125,562.488281 C398.521476,563.742194 396.321303,564.369141 393.602539,564.369141 C391.633779,564.369141 389.884773,564.046878 388.355469,563.402344 C386.826164,562.757809 385.581059,561.914068 384.620117,560.871094 L384.620117,556.107422 L387.22168,556.107422 L387.889648,559.78125 C388.557621,560.332034 389.354488,560.783201 390.280273,561.134766 C391.206059,561.48633 392.31347,561.662109 393.602539,561.662109 C395.348642,561.662109 396.728511,561.292972 397.742188,560.554688 C398.755864,559.816403 399.262695,558.814459 399.262695,557.548828 C399.262695,556.376947 398.823247,555.395512 397.944336,554.604492 C397.065425,553.813473 395.512706,553.14844 393.286133,552.609375 C390.579088,551.964841 388.463875,551.015631 386.94043,549.761719 C385.416985,548.507806 384.655273,546.93165 384.655273,545.033203 C384.655273,543.029287 385.504874,541.362311 387.204102,540.032227 C388.903329,538.702142 391.112291,538.037109 393.831055,538.037109 C395.624032,538.037109 397.255852,538.344723 398.726562,538.959961 C400.197273,539.575198 401.377925,540.322261 402.268555,541.201172 L402.268555,545.964844 Z" id="EXAPUNKS" fill="#000000" fill-rule="nonzero"></path>
        <rect id="Rectangle" stroke="#000000" fill="#FFFFFF" x="455.5" y="260.5" width="199" height="59" rx="8"></rect>
        <path d="M498.029297,304 L498.029297,301.785156 L500.894531,301.292969 L500.894531,281.130859 L498.029297,280.638672 L498.029297,278.40625 L507.222656,278.40625 L507.222656,280.638672 L504.357422,281.130859 L504.357422,301.292969 L513.251953,301.292969 L513.515625,298.357422 L516.46875,298.357422 L516.46875,304 L498.029297,304 Z M540.761719,291.396484 C540.761719,295.123066 539.692394,298.216785 537.553711,300.677734 C535.415028,303.138684 532.646501,304.369141 529.248047,304.369141 C525.943343,304.369141 523.259776,303.138684 521.197266,300.677734 C519.134755,298.216785 518.103516,295.123066 518.103516,291.396484 L518.103516,291.027344 C518.103516,287.312481 519.134755,284.218762 521.197266,281.746094 C523.259776,279.273425 525.943343,278.037109 529.248047,278.037109 C532.646501,278.037109 535.415028,279.273425 537.553711,281.746094 C539.692394,284.218762 540.761719,287.312481 540.761719,291.027344 L540.761719,291.396484 Z M537.298828,290.992188 C537.298828,288.01561 536.586921,285.586923 535.163086,283.706055 C533.739251,281.825186 531.767591,280.884766 529.248047,280.884766 C526.833972,280.884766 524.950202,281.828116 523.59668,283.714844 C522.243157,285.601572 521.566406,288.027329 521.566406,290.992188 L521.566406,291.396484 C521.566406,294.396499 522.243157,296.836905 523.59668,298.717773 C524.950202,300.598642 526.833972,301.539062 529.248047,301.539062 C531.802747,301.539062 533.783196,300.601572 535.189453,298.726562 C536.59571,296.851553 537.298828,294.408218 537.298828,291.396484 L537.298828,290.992188 Z M563.560547,278.40625 L563.560547,284.066406 L560.607422,284.066406 L560.34375,281.130859 L554.666016,281.130859 L554.666016,301.292969 L557.53125,301.785156 L557.53125,304 L548.337891,304 L548.337891,301.785156 L551.203125,301.292969 L551.203125,281.130859 L545.507812,281.130859 L545.261719,284.066406 L542.291016,284.066406 L542.291016,278.40625 L563.560547,278.40625 Z M574.458984,278.40625 L574.458984,280.638672 L571.59375,281.130859 L571.59375,295.755859 C571.59375,297.689463 572.144526,299.157222 573.246094,300.15918 C574.347662,301.161138 575.800772,301.662109 577.605469,301.662109 C579.503916,301.662109 581.033197,301.164067 582.193359,300.167969 C583.353521,299.17187 583.933594,297.701182 583.933594,295.755859 L583.933594,281.130859 L581.068359,280.638672 L581.068359,278.40625 L590.261719,278.40625 L590.261719,280.638672 L587.396484,281.130859 L587.396484,295.755859 C587.396484,298.533217 586.49122,300.663079 584.680664,302.145508 C582.870108,303.627937 580.511733,304.369141 577.605469,304.369141 C574.781236,304.369141 572.496102,303.627937 570.75,302.145508 C569.003898,300.663079 568.130859,298.533217 568.130859,295.755859 L568.130859,281.130859 L565.265625,280.638672 L565.265625,278.40625 L574.458984,278.40625 Z M611.074219,285.964844 L608.455078,285.964844 L607.804688,282.308594 C607.277341,281.863279 606.574223,281.494142 605.695312,281.201172 C604.816402,280.908202 603.796881,280.761719 602.636719,280.761719 C600.796866,280.761719 599.384771,281.151363 598.400391,281.930664 C597.416011,282.709965 596.923828,283.726556 596.923828,284.980469 C596.923828,286.093756 597.4248,287.022457 598.426758,287.766602 C599.428716,288.510746 601.048817,289.16406 603.287109,289.726562 C605.982435,290.394535 608.030266,291.3789 609.430664,292.679688 C610.831062,293.980475 611.53125,295.591787 611.53125,297.513672 C611.53125,299.576182 610.690438,301.234369 609.008789,302.488281 C607.32714,303.742194 605.126967,304.369141 602.408203,304.369141 C600.439443,304.369141 598.690437,304.046878 597.161133,303.402344 C595.631828,302.757809 594.386724,301.914068 593.425781,300.871094 L593.425781,296.107422 L596.027344,296.107422 L596.695312,299.78125 C597.363285,300.332034 598.160152,300.783201 599.085938,301.134766 C600.011723,301.48633 601.119134,301.662109 602.408203,301.662109 C604.154306,301.662109 605.534175,301.292972 606.547852,300.554688 C607.561529,299.816403 608.068359,298.814459 608.068359,297.548828 C608.068359,296.376947 607.628911,295.395512 606.75,294.604492 C605.871089,293.813473 604.318371,293.14844 602.091797,292.609375 C599.384752,291.964841 597.269539,291.015631 595.746094,289.761719 C594.222649,288.507806 593.460938,286.93165 593.460938,285.033203 C593.460938,283.029287 594.310538,281.362311 596.009766,280.032227 C597.708993,278.702142 599.917955,278.037109 602.636719,278.037109 C604.429696,278.037109 606.061516,278.344723 607.532227,278.959961 C609.002937,279.575198 610.183589,280.322261 611.074219,281.201172 L611.074219,285.964844 Z" id="LOTUS" fill="#000000" fill-rule="nonzero"></path>
        <rect id="Rectangle" stroke="#000000" fill="#FFFFFF" transform="translate(125.000000, 70.000000) rotate(-90.000000) translate(-125.000000, -70.000000) " x="55.5" y="40.5" width="139" height="59" rx="8"></rect>
        <path d="M101.119141,62.0019531 L101.03125,61.984375 L92.7519531,82.4980469 L90.4492188,82.4980469 L82.1699219,62.0019531 L82.0820312,62.0195312 L82.4335938,72.3730469 L82.4335938,79.7910156 L85.2988281,80.2832031 L85.2988281,82.4980469 L76.1054688,82.4980469 L76.1054688,80.2832031 L78.9707031,79.7910156 L78.9707031,59.6289062 L76.1054688,59.1367188 L76.1054688,56.9042969 L83.4003906,56.9042969 L91.5566406,77.6992188 L91.6621094,77.6992188 L99.8007812,56.9042969 L107.113281,56.9042969 L107.113281,59.1367188 L104.248047,59.6289062 L104.248047,79.7910156 L107.113281,80.2832031 L107.113281,82.4980469 L97.9199219,82.4980469 L97.9199219,80.2832031 L100.785156,79.7910156 L100.785156,72.3730469 L101.119141,62.0019531 Z M117.607422,59.1367188 L114.847656,59.4707031 L120.208984,69.9121094 L125.570312,59.4707031 L122.828125,59.1367188 L122.828125,56.9042969 L131.617188,56.9042969 L131.617188,59.1367188 L129.455078,59.4707031 L121.861328,73.4980469 L121.861328,79.7910156 L124.726562,80.2832031 L124.726562,82.4980469 L115.550781,82.4980469 L115.550781,80.2832031 L118.416016,79.7910156 L118.416016,73.234375 L110.962891,59.4707031 L108.818359,59.1367188 L108.818359,56.9042969 L117.607422,56.9042969 L117.607422,59.1367188 Z M152.236328,64.4628906 L149.617188,64.4628906 L148.966797,60.8066406 C148.43945,60.3613259 147.736333,59.992189 146.857422,59.6992188 C145.978511,59.4062485 144.95899,59.2597656 143.798828,59.2597656 C141.958975,59.2597656 140.54688,59.6494102 139.5625,60.4287109 C138.57812,61.2080117 138.085938,62.2246031 138.085938,63.4785156 C138.085938,64.5918024 138.586909,65.5205041 139.588867,66.2646484 C140.590825,67.0087928 142.210926,67.6621066 144.449219,68.2246094 C147.144545,68.8925815 149.192376,69.8769466 150.592773,71.1777344 C151.993171,72.4785221 152.693359,74.0898341 152.693359,76.0117188 C152.693359,78.0742291 151.852547,79.7324156 150.170898,80.9863281 C148.489249,82.2402406 146.289076,82.8671875 143.570312,82.8671875 C141.601553,82.8671875 139.852547,82.5449251 138.323242,81.9003906 C136.793938,81.2558562 135.548833,80.4121146 134.587891,79.3691406 L134.587891,74.6054688 L137.189453,74.6054688 L137.857422,78.2792969 C138.525394,78.8300809 139.322261,79.2812482 140.248047,79.6328125 C141.173833,79.9843768 142.281244,80.1601562 143.570312,80.1601562 C145.316415,80.1601562 146.696284,79.7910193 147.709961,79.0527344 C148.723638,78.3144494 149.230469,77.3125063 149.230469,76.046875 C149.230469,74.8749941 148.79102,73.8935586 147.912109,73.1025391 C147.033199,72.3115195 145.48048,71.6464871 143.253906,71.1074219 C140.546861,70.4628874 138.431648,69.5136781 136.908203,68.2597656 C135.384758,67.0058531 134.623047,65.429697 134.623047,63.53125 C134.623047,61.5273337 135.472648,59.8603582 137.171875,58.5302734 C138.871102,57.2001887 141.080065,56.5351562 143.798828,56.5351562 C145.591806,56.5351562 147.223625,56.8427704 148.694336,57.4580078 C150.165046,58.0732453 151.345699,58.8203081 152.236328,59.6992188 L152.236328,64.4628906 Z M176.300781,56.9042969 L176.300781,62.5644531 L173.347656,62.5644531 L173.083984,59.6289062 L167.40625,59.6289062 L167.40625,79.7910156 L170.271484,80.2832031 L170.271484,82.4980469 L161.078125,82.4980469 L161.078125,80.2832031 L163.943359,79.7910156 L163.943359,59.6289062 L158.248047,59.6289062 L158.001953,62.5644531 L155.03125,62.5644531 L155.03125,56.9042969 L176.300781,56.9042969 Z" id="MYST" fill="#000000" fill-rule="nonzero" transform="translate(126.203125, 69.701172) rotate(-90.000000) translate(-126.203125, -69.701172) "></path>
        <rect id="Rectangle" stroke="#000000" fill="#FFFFFF" transform="translate(285.000000, 380.000000) rotate(-90.000000) translate(-285.000000, -380.000000) " x="185.5" y="350.5" width="199" height="59" rx="8"></rect>
        <path d="M232.458008,374.893555 L230.014648,374.893555 L229.364258,371.272461 C228.801755,370.721677 228.110356,370.27051 227.290039,369.918945 C226.469722,369.567381 225.491217,369.391602 224.354492,369.391602 C221.694323,369.391602 219.649421,370.355459 218.219727,372.283203 C216.790032,374.210947 216.075195,376.657212 216.075195,379.62207 L216.075195,380.026367 C216.075195,382.991226 216.775384,385.44335 218.175781,387.382812 C219.576179,389.322275 221.518542,390.291992 224.00293,390.291992 C225.163092,390.291992 226.217769,390.110353 227.166992,389.74707 C228.116216,389.383787 228.84863,388.938479 229.364258,388.411133 L230.014648,384.790039 L232.458008,384.790039 L232.458008,389.342773 C231.719723,390.291997 230.612312,391.138668 229.135742,391.882812 C227.659172,392.626957 225.948252,392.999023 224.00293,392.999023 C220.674788,392.999023 217.944347,391.768567 215.811523,389.307617 C213.6787,386.846667 212.612305,383.752948 212.612305,380.026367 L212.612305,379.657227 C212.612305,375.907208 213.661122,372.8047 215.758789,370.349609 C217.856456,367.894519 220.604475,366.666992 224.00293,366.666992 C225.948252,366.666992 227.659172,367.044918 229.135742,367.800781 C230.612312,368.556644 231.719723,369.403316 232.458008,370.34082 L232.458008,374.893555 Z M258.631836,380.026367 C258.631836,383.752948 257.562511,386.846667 255.423828,389.307617 C253.285146,391.768567 250.516619,392.999023 247.118164,392.999023 C243.81346,392.999023 241.129893,391.768567 239.067383,389.307617 C237.004872,386.846667 235.973633,383.752948 235.973633,380.026367 L235.973633,379.657227 C235.973633,375.942364 237.004872,372.848645 239.067383,370.375977 C241.129893,367.903308 243.81346,366.666992 247.118164,366.666992 C250.516619,366.666992 253.285146,367.903308 255.423828,370.375977 C257.562511,372.848645 258.631836,375.942364 258.631836,379.657227 L258.631836,380.026367 Z M255.168945,379.62207 C255.168945,376.645493 254.457038,374.216806 253.033203,372.335938 C251.609368,370.455069 249.637708,369.514648 247.118164,369.514648 C244.704089,369.514648 242.820319,370.457998 241.466797,372.344727 C240.113274,374.231455 239.436523,376.657212 239.436523,379.62207 L239.436523,380.026367 C239.436523,383.026382 240.113274,385.466787 241.466797,387.347656 C242.820319,389.228525 244.704089,390.168945 247.118164,390.168945 C249.672864,390.168945 251.653313,389.231455 253.05957,387.356445 C254.465827,385.481436 255.168945,383.038101 255.168945,380.026367 L255.168945,379.62207 Z M286.299805,367.036133 L286.299805,369.268555 L283.43457,369.760742 L283.43457,392.629883 L279.97168,392.629883 L267.666992,372.87207 L267.561523,372.907227 L267.561523,389.922852 L270.426758,390.415039 L270.426758,392.629883 L261.233398,392.629883 L261.233398,390.415039 L264.098633,389.922852 L264.098633,369.760742 L261.233398,369.268555 L261.233398,367.036133 L267.561523,367.036133 L279.866211,386.776367 L279.97168,386.741211 L279.97168,369.760742 L277.106445,369.268555 L277.106445,367.036133 L286.299805,367.036133 Z M309.327148,367.036133 L309.327148,372.696289 L306.374023,372.696289 L306.110352,369.760742 L300.432617,369.760742 L300.432617,389.922852 L303.297852,390.415039 L303.297852,392.629883 L294.104492,392.629883 L294.104492,390.415039 L296.969727,389.922852 L296.969727,369.760742 L291.274414,369.760742 L291.02832,372.696289 L288.057617,372.696289 L288.057617,367.036133 L309.327148,367.036133 Z M322.458008,367.053711 C325.247084,367.053711 327.385735,367.671869 328.874023,368.908203 C330.362312,370.144537 331.106445,371.899403 331.106445,374.172852 C331.106445,375.415045 330.760746,376.516597 330.069336,377.477539 C329.377926,378.438481 328.387702,379.194333 327.098633,379.745117 C328.493171,380.202151 329.498044,380.946284 330.113281,381.977539 C330.728519,383.008794 331.036133,384.280266 331.036133,385.791992 L331.036133,387.848633 C331.036133,388.633793 331.135741,389.213865 331.334961,389.588867 C331.534181,389.963869 331.862302,390.186523 332.319336,390.256836 L333.163086,390.362305 L333.163086,392.629883 L331.299805,392.629883 C329.952142,392.629883 328.994143,392.161137 328.425781,391.223633 C327.857419,390.286128 327.573242,389.149421 327.573242,387.813477 L327.573242,385.827148 C327.573242,384.43261 327.168949,383.313481 326.360352,382.469727 C325.551754,381.625972 324.46778,381.204102 323.108398,381.204102 L317.553711,381.204102 L317.553711,389.922852 L320.418945,390.415039 L320.418945,392.629883 L311.225586,392.629883 L311.225586,390.415039 L314.09082,389.922852 L314.09082,369.760742 L311.225586,369.268555 L311.225586,367.053711 L322.458008,367.053711 Z M317.553711,378.479492 L322.106445,378.479492 C324.040049,378.479492 325.446285,378.110355 326.325195,377.37207 C327.204106,376.633785 327.643555,375.555671 327.643555,374.137695 C327.643555,372.790032 327.221684,371.723637 326.37793,370.938477 C325.534175,370.153316 324.227548,369.760742 322.458008,369.760742 L317.553711,369.760742 L317.553711,378.479492 Z M335.307617,390.415039 L337.206055,390.151367 L346.15332,367.036133 L349.124023,367.036133 L357.913086,390.151367 L359.793945,390.415039 L359.793945,392.629883 L352.446289,392.629883 L352.446289,390.415039 L354.379883,390.081055 L352.692383,385.370117 L342.444336,385.370117 L340.704102,390.081055 L342.637695,390.415039 L342.637695,392.629883 L335.307617,392.629883 L335.307617,390.415039 Z M343.516602,382.469727 L351.637695,382.469727 L347.665039,371.483398 L347.55957,371.483398 L343.516602,382.469727 Z" id="CONTRA" fill="#000000" fill-rule="nonzero" transform="translate(286.203125, 379.833008) rotate(-90.000000) translate(-286.203125, -379.833008) "></path>
        <rect id="Rectangle" stroke="#000000" fill="#FFFFFF" transform="translate(85.000000, 480.000000) rotate(-90.000000) translate(-85.000000, -480.000000) " x="-14.5" y="450.5" width="199" height="59" rx="8"></rect>
        <path d="M30.4453125,490.256836 C29.6953087,491.041996 28.5878979,491.7832 27.1230469,492.480469 C25.6581958,493.177738 23.753918,493.526367 21.4101562,493.526367 C17.9882641,493.526367 15.1962999,492.325207 13.0341797,489.922852 C10.8720595,487.520496 9.79101562,484.403339 9.79101562,480.571289 L9.79101562,480.149414 C9.79101562,476.293926 10.8603409,473.17091 12.9990234,470.780273 C15.137706,468.389636 17.9824041,467.194336 21.5332031,467.194336 C23.4316501,467.194336 25.0986256,467.490231 26.5341797,468.082031 C27.9697337,468.673831 29.1796826,469.45605 30.1640625,470.428711 L30.1640625,475.069336 L27.7382812,475.069336 L26.8945312,471.536133 C26.3203096,471.06738 25.6259806,470.680666 24.8115234,470.375977 C23.9970662,470.071288 23.0214901,469.918945 21.8847656,469.918945 C19.1191268,469.918945 16.9892653,470.865225 15.4951172,472.757812 C14.0009691,474.6504 13.2539062,477.102524 13.2539062,480.114258 L13.2539062,480.571289 C13.2539062,483.629898 13.9775318,486.10253 15.4248047,487.989258 C16.8720775,489.875986 18.8671748,490.819336 21.4101562,490.819336 C22.8046945,490.819336 23.9472612,490.672853 24.8378906,490.379883 C25.7285201,490.086913 26.4433567,489.76465 26.9824219,489.413086 L26.9824219,483.805664 L22.78125,483.629883 L22.78125,481.081055 L30.4453125,481.081055 L30.4453125,490.256836 Z M57.2519531,480.553711 C57.2519531,484.280292 56.1826279,487.374011 54.0439453,489.834961 C51.9052627,492.295911 49.1367357,493.526367 45.7382812,493.526367 C42.4335772,493.526367 39.7500103,492.295911 37.6875,489.834961 C35.6249897,487.374011 34.59375,484.280292 34.59375,480.553711 L34.59375,480.18457 C34.59375,476.469708 35.6249897,473.375989 37.6875,470.90332 C39.7500103,468.430652 42.4335772,467.194336 45.7382812,467.194336 C49.1367357,467.194336 51.9052627,468.430652 54.0439453,470.90332 C56.1826279,473.375989 57.2519531,476.469708 57.2519531,480.18457 L57.2519531,480.553711 Z M53.7890625,480.149414 C53.7890625,477.172837 53.0771556,474.74415 51.6533203,472.863281 C50.2294851,470.982412 48.2578251,470.041992 45.7382812,470.041992 C43.3242067,470.041992 41.4404365,470.985342 40.0869141,472.87207 C38.7333917,474.758798 38.0566406,477.184555 38.0566406,480.149414 L38.0566406,480.553711 C38.0566406,483.553726 38.7333917,485.994131 40.0869141,487.875 C41.4404365,489.755869 43.3242067,490.696289 45.7382812,490.696289 C48.2929815,490.696289 50.2734305,489.758798 51.6796875,487.883789 C53.0859445,486.00878 53.7890625,483.565445 53.7890625,480.553711 L53.7890625,480.149414 Z M71.0683594,467.563477 C73.7402477,467.563477 75.829094,468.140619 77.3349609,469.294922 C78.8408278,470.449225 79.59375,472.180653 79.59375,474.489258 C79.59375,475.625982 79.233402,476.642574 78.5126953,477.539062 C77.7919886,478.435551 76.8398497,479.100584 75.65625,479.53418 C77.1914139,479.862306 78.4042924,480.618158 79.2949219,481.801758 C80.1855513,482.985357 80.6308594,484.362297 80.6308594,485.932617 C80.6308594,488.276379 79.8691482,490.0664 78.3457031,491.302734 C76.822258,492.539069 74.7597786,493.157227 72.1582031,493.157227 L59.8535156,493.157227 L59.8535156,490.942383 L62.71875,490.450195 L62.71875,470.288086 L59.8535156,469.795898 L59.8535156,467.563477 L71.0683594,467.563477 Z M66.1816406,481.151367 L66.1816406,490.450195 L72.1582031,490.450195 C73.7402423,490.450195 74.9677691,490.060551 75.8408203,489.28125 C76.7138716,488.501949 77.1503906,487.397468 77.1503906,485.967773 C77.1503906,484.467766 76.7841833,483.290043 76.0517578,482.43457 C75.3193323,481.579097 74.1972732,481.151367 72.6855469,481.151367 L66.1816406,481.151367 Z M66.1816406,478.444336 L71.9648437,478.444336 C73.2070375,478.40918 74.2119102,478.040043 74.9794922,477.336914 C75.7470742,476.633786 76.1308594,475.661139 76.1308594,474.418945 C76.1308594,473.036126 75.69727,472.001957 74.8300781,471.316406 C73.9628863,470.630856 72.7089926,470.288086 71.0683594,470.288086 L66.1816406,470.288086 L66.1816406,478.444336 Z M83.4960937,493.157227 L83.4960937,490.942383 L86.3613281,490.450195 L86.3613281,470.288086 L83.4960937,469.795898 L83.4960937,467.563477 L92.6894531,467.563477 L92.6894531,469.795898 L89.8242187,470.288086 L89.8242187,490.450195 L98.71875,490.450195 L98.9824219,487.514648 L101.935547,487.514648 L101.935547,493.157227 L83.4960937,493.157227 Z M104.554687,469.795898 L104.554687,467.563477 L113.748047,467.563477 L113.748047,469.795898 L110.882812,470.288086 L110.882812,490.450195 L113.748047,490.942383 L113.748047,493.157227 L104.554687,493.157227 L104.554687,490.942383 L107.419922,490.450195 L107.419922,470.288086 L104.554687,469.795898 Z M141.275391,467.563477 L141.275391,469.795898 L138.410156,470.288086 L138.410156,493.157227 L134.947266,493.157227 L122.642578,473.399414 L122.537109,473.43457 L122.537109,490.450195 L125.402344,490.942383 L125.402344,493.157227 L116.208984,493.157227 L116.208984,490.942383 L119.074219,490.450195 L119.074219,470.288086 L116.208984,469.795898 L116.208984,467.563477 L122.537109,467.563477 L134.841797,487.303711 L134.947266,487.268555 L134.947266,470.288086 L132.082031,469.795898 L132.082031,467.563477 L141.275391,467.563477 Z M162.158203,475.12207 L159.539062,475.12207 L158.888672,471.46582 C158.361325,471.020506 157.658208,470.651369 156.779297,470.358398 C155.900386,470.065428 154.880865,469.918945 153.720703,469.918945 C151.88085,469.918945 150.468755,470.30859 149.484375,471.087891 C148.499995,471.867191 148.007812,472.883783 148.007812,474.137695 C148.007812,475.250982 148.508784,476.179684 149.510742,476.923828 C150.5127,477.667972 152.132801,478.321286 154.371094,478.883789 C157.06642,479.551761 159.114251,480.536126 160.514648,481.836914 C161.915046,483.137702 162.615234,484.749014 162.615234,486.670898 C162.615234,488.733409 161.774422,490.391595 160.092773,491.645508 C158.411124,492.89942 156.210951,493.526367 153.492187,493.526367 C151.523428,493.526367 149.774422,493.204105 148.245117,492.55957 C146.715813,491.915036 145.470708,491.071294 144.509766,490.02832 L144.509766,485.264648 L147.111328,485.264648 L147.779297,488.938477 C148.447269,489.489261 149.244136,489.940428 150.169922,490.291992 C151.095708,490.643556 152.203119,490.819336 153.492187,490.819336 C155.23829,490.819336 156.618159,490.450199 157.631836,489.711914 C158.645513,488.973629 159.152344,487.971686 159.152344,486.706055 C159.152344,485.534174 158.712895,484.552738 157.833984,483.761719 C156.955074,482.970699 155.402355,482.305667 153.175781,481.766602 C150.468736,481.122067 148.353523,480.172858 146.830078,478.918945 C145.306633,477.665033 144.544922,476.088877 144.544922,474.19043 C144.544922,472.186513 145.394523,470.519538 147.09375,469.189453 C148.792977,467.859368 151.00194,467.194336 153.720703,467.194336 C155.513681,467.194336 157.1455,467.50195 158.616211,468.117188 C160.086921,468.732425 161.267574,469.479488 162.158203,470.358398 L162.158203,475.12207 Z" id="GOBLINS" fill="#000000" fill-rule="nonzero" transform="translate(86.203125, 480.360352) rotate(-90.000000) translate(-86.203125, -480.360352) "></path>
        <rect id="Rectangle" stroke="#000000" fill="#FFFFFF" transform="translate(625.000000, 110.000000) rotate(-90.000000) translate(-625.000000, -110.000000) " x="515.5" y="80.5" width="219" height="59" rx="8"></rect>
        <path d="M547.374023,120.283203 L550.239258,119.791016 L550.239258,99.6289062 L547.374023,99.1367187 L547.374023,96.9042969 L567.149414,96.9042969 L567.149414,103.056641 L564.196289,103.056641 L563.915039,99.6289062 L553.702148,99.6289062 L553.702148,108.453125 L563.598633,108.453125 L563.598633,111.177734 L553.702148,111.177734 L553.702148,119.791016 L556.567383,120.283203 L556.567383,122.498047 L547.374023,122.498047 L547.374023,120.283203 Z M564.213867,120.283203 L566.112305,120.019531 L575.05957,96.9042969 L578.030273,96.9042969 L586.819336,120.019531 L588.700195,120.283203 L588.700195,122.498047 L581.352539,122.498047 L581.352539,120.283203 L583.286133,119.949219 L581.598633,115.238281 L571.350586,115.238281 L569.610352,119.949219 L571.543945,120.283203 L571.543945,122.498047 L564.213867,122.498047 L564.213867,120.283203 Z M572.422852,112.337891 L580.543945,112.337891 L576.571289,101.351562 L576.46582,101.351562 L572.422852,112.337891 Z M590.862305,122.498047 L590.862305,120.283203 L593.727539,119.791016 L593.727539,99.6289062 L590.862305,99.1367187 L590.862305,96.9042969 L600.055664,96.9042969 L600.055664,99.1367187 L597.19043,99.6289062 L597.19043,119.791016 L606.084961,119.791016 L606.348633,116.855469 L609.301758,116.855469 L609.301758,122.498047 L590.862305,122.498047 Z M611.938477,122.498047 L611.938477,120.283203 L614.803711,119.791016 L614.803711,99.6289062 L611.938477,99.1367187 L611.938477,96.9042969 L621.131836,96.9042969 L621.131836,99.1367187 L618.266602,99.6289062 L618.266602,119.791016 L627.161133,119.791016 L627.424805,116.855469 L630.37793,116.855469 L630.37793,122.498047 L611.938477,122.498047 Z M654.670898,109.894531 C654.670898,113.621112 653.601573,116.714831 651.462891,119.175781 C649.324208,121.636731 646.555681,122.867187 643.157227,122.867187 C639.852523,122.867187 637.168956,121.636731 635.106445,119.175781 C633.043935,116.714831 632.012695,113.621112 632.012695,109.894531 L632.012695,109.525391 C632.012695,105.810528 633.043935,102.716809 635.106445,100.244141 C637.168956,97.771472 639.852523,96.5351562 643.157227,96.5351562 C646.555681,96.5351562 649.324208,97.771472 651.462891,100.244141 C653.601573,102.716809 654.670898,105.810528 654.670898,109.525391 L654.670898,109.894531 Z M651.208008,109.490234 C651.208008,106.513657 650.496101,104.08497 649.072266,102.204102 C647.64843,100.323233 645.67677,99.3828125 643.157227,99.3828125 C640.743152,99.3828125 638.859382,100.326162 637.505859,102.212891 C636.152337,104.099619 635.475586,106.525376 635.475586,109.490234 L635.475586,109.894531 C635.475586,112.894546 636.152337,115.334952 637.505859,117.21582 C638.859382,119.096689 640.743152,120.037109 643.157227,120.037109 C645.711927,120.037109 647.692376,119.099619 649.098633,117.224609 C650.50489,115.3496 651.208008,112.906265 651.208008,109.894531 L651.208008,109.490234 Z M666.272461,96.9042969 L666.272461,99.1367187 L663.407227,99.6289062 L663.407227,114.253906 C663.407227,116.18751 663.958002,117.655268 665.05957,118.657227 C666.161138,119.659185 667.614249,120.160156 669.418945,120.160156 C671.317392,120.160156 672.846674,119.662114 674.006836,118.666016 C675.166998,117.669917 675.74707,116.199228 675.74707,114.253906 L675.74707,99.6289062 L672.881836,99.1367187 L672.881836,96.9042969 L682.075195,96.9042969 L682.075195,99.1367187 L679.209961,99.6289062 L679.209961,114.253906 C679.209961,117.031264 678.304697,119.161125 676.494141,120.643555 C674.683585,122.125984 672.32521,122.867187 669.418945,122.867187 C666.594712,122.867187 664.309579,122.125984 662.563477,120.643555 C660.817374,119.161125 659.944336,117.031264 659.944336,114.253906 L659.944336,99.6289062 L657.079102,99.1367187 L657.079102,96.9042969 L666.272461,96.9042969 Z M705.032227,96.9042969 L705.032227,102.564453 L702.079102,102.564453 L701.81543,99.6289062 L696.137695,99.6289062 L696.137695,119.791016 L699.00293,120.283203 L699.00293,122.498047 L689.80957,122.498047 L689.80957,120.283203 L692.674805,119.791016 L692.674805,99.6289062 L686.979492,99.6289062 L686.733398,102.564453 L683.762695,102.564453 L683.762695,96.9042969 L705.032227,96.9042969 Z" id="FALLOUT" fill="#000000" fill-rule="nonzero" transform="translate(626.203125, 109.701172) rotate(-90.000000) translate(-626.203125, -109.701172) "></path>
        <rect id="Rectangle" stroke="#000000" fill="#FFFFFF" transform="translate(385.000000, 340.000000) rotate(-90.000000) translate(-385.000000, -340.000000) " x="325.5" y="310.5" width="119" height="59" rx="8"></rect>
        <path d="M373.959961,326.957031 L373.959961,329.189453 L371.094727,329.681641 L371.094727,352.550781 L367.631836,352.550781 L355.327148,332.792969 L355.22168,332.828125 L355.22168,349.84375 L358.086914,350.335938 L358.086914,352.550781 L348.893555,352.550781 L348.893555,350.335938 L351.758789,349.84375 L351.758789,329.681641 L348.893555,329.189453 L348.893555,326.957031 L355.22168,326.957031 L367.526367,346.697266 L367.631836,346.662109 L367.631836,329.681641 L364.766602,329.189453 L364.766602,326.957031 L373.959961,326.957031 Z M399.114258,339.947266 C399.114258,343.673847 398.044933,346.767566 395.90625,349.228516 C393.767567,351.689465 390.99904,352.919922 387.600586,352.919922 C384.295882,352.919922 381.612315,351.689465 379.549805,349.228516 C377.487294,346.767566 376.456055,343.673847 376.456055,339.947266 L376.456055,339.578125 C376.456055,335.863263 377.487294,332.769544 379.549805,330.296875 C381.612315,327.824206 384.295882,326.587891 387.600586,326.587891 C390.99904,326.587891 393.767567,327.824206 395.90625,330.296875 C398.044933,332.769544 399.114258,335.863263 399.114258,339.578125 L399.114258,339.947266 Z M395.651367,339.542969 C395.651367,336.566391 394.93946,334.137705 393.515625,332.256836 C392.09179,330.375967 390.12013,329.435547 387.600586,329.435547 C385.186511,329.435547 383.302741,330.378897 381.949219,332.265625 C380.595696,334.152353 379.918945,336.57811 379.918945,339.542969 L379.918945,339.947266 C379.918945,342.947281 380.595696,345.387686 381.949219,347.268555 C383.302741,349.149423 385.186511,350.089844 387.600586,350.089844 C390.155286,350.089844 392.135735,349.152353 393.541992,347.277344 C394.948249,345.402334 395.651367,342.958999 395.651367,339.947266 L395.651367,339.542969 Z M400.344727,350.335938 L402.647461,349.949219 L409.924805,339.648438 L402.823242,329.576172 L400.520508,329.189453 L400.520508,326.957031 L408.817383,326.957031 L408.817383,329.189453 L406.760742,329.417969 L411.875977,337.099609 L417.043945,329.417969 L414.987305,329.189453 L414.987305,326.957031 L423.336914,326.957031 L423.336914,329.189453 L421.03418,329.576172 L413.932617,339.648438 L421.192383,349.949219 L423.512695,350.335938 L423.512695,352.550781 L415.233398,352.550781 L415.233398,350.335938 L417.254883,350.107422 L411.946289,342.232422 L406.620117,350.107422 L408.676758,350.335938 L408.676758,352.550781 L400.344727,352.550781 L400.344727,350.335938 Z" id="NOX" fill="#000000" fill-rule="nonzero" transform="translate(386.203125, 339.753906) rotate(-90.000000) translate(-386.203125, -339.753906) "></path>
        <rect id="Rectangle" stroke="#000000" fill="#FFFFFF" transform="translate(485.000000, 430.000000) rotate(-90.000000) translate(-485.000000, -430.000000) " x="415.5" y="400.5" width="139" height="59" rx="8"></rect>
        <path d="M443.365234,439.887695 L454.457031,439.887695 L454.738281,436.952148 L457.691406,436.952148 L457.691406,442.594727 L439.480469,442.594727 L439.480469,440.02832 L453.138672,419.725586 L442.873047,419.725586 L442.626953,422.661133 L439.65625,422.661133 L439.65625,417.000977 L457.111328,417.000977 L457.111328,419.479492 L443.365234,439.887695 Z M482.898438,429.991211 C482.898438,433.717792 481.829112,436.811511 479.69043,439.272461 C477.551747,441.733411 474.78322,442.963867 471.384766,442.963867 C468.080062,442.963867 465.396495,441.733411 463.333984,439.272461 C461.271474,436.811511 460.240234,433.717792 460.240234,429.991211 L460.240234,429.62207 C460.240234,425.907208 461.271474,422.813489 463.333984,420.34082 C465.396495,417.868152 468.080062,416.631836 471.384766,416.631836 C474.78322,416.631836 477.551747,417.868152 479.69043,420.34082 C481.829112,422.813489 482.898438,425.907208 482.898438,429.62207 L482.898438,429.991211 Z M479.435547,429.586914 C479.435547,426.610337 478.72364,424.18165 477.299805,422.300781 C475.875969,420.419912 473.904309,419.479492 471.384766,419.479492 C468.970691,419.479492 467.086921,420.422842 465.733398,422.30957 C464.379876,424.196298 463.703125,426.622055 463.703125,429.586914 L463.703125,429.991211 C463.703125,432.991226 464.379876,435.431631 465.733398,437.3125 C467.086921,439.193369 468.970691,440.133789 471.384766,440.133789 C473.939466,440.133789 475.919915,439.196298 477.326172,437.321289 C478.732429,435.44628 479.435547,433.002945 479.435547,429.991211 L479.435547,429.586914 Z M496.732422,417.018555 C499.521498,417.018555 501.660149,417.636713 503.148438,418.873047 C504.636726,420.109381 505.380859,421.864246 505.380859,424.137695 C505.380859,425.379889 505.03516,426.481441 504.34375,427.442383 C503.65234,428.403325 502.662116,429.159177 501.373047,429.709961 C502.767585,430.166994 503.772458,430.911128 504.387695,431.942383 C505.002933,432.973638 505.310547,434.24511 505.310547,435.756836 L505.310547,437.813477 C505.310547,438.598637 505.410155,439.178709 505.609375,439.553711 C505.808595,439.928713 506.136716,440.151367 506.59375,440.22168 L507.4375,440.327148 L507.4375,442.594727 L505.574219,442.594727 C504.226556,442.594727 503.268558,442.125981 502.700195,441.188477 C502.131833,440.250972 501.847656,439.114264 501.847656,437.77832 L501.847656,435.791992 C501.847656,434.397454 501.443363,433.278325 500.634766,432.43457 C499.826168,431.590816 498.742194,431.168945 497.382812,431.168945 L491.828125,431.168945 L491.828125,439.887695 L494.693359,440.379883 L494.693359,442.594727 L485.5,442.594727 L485.5,440.379883 L488.365234,439.887695 L488.365234,419.725586 L485.5,419.233398 L485.5,417.018555 L496.732422,417.018555 Z M491.828125,428.444336 L496.380859,428.444336 C498.314463,428.444336 499.720699,428.075199 500.599609,427.336914 C501.47852,426.598629 501.917969,425.520515 501.917969,424.102539 C501.917969,422.754876 501.496098,421.68848 500.652344,420.90332 C499.80859,420.11816 498.501962,419.725586 496.732422,419.725586 L491.828125,419.725586 L491.828125,428.444336 Z M509.863281,440.379883 L512.728516,439.887695 L512.728516,419.725586 L509.863281,419.233398 L509.863281,417.000977 L519.056641,417.000977 L519.056641,419.233398 L516.191406,419.725586 L516.191406,428.321289 L518.845703,428.321289 L526,419.479492 L524.083984,419.233398 L524.083984,417.000977 L532.205078,417.000977 L532.205078,419.233398 L529.796875,419.672852 L521.974609,429.375977 L530.517578,439.94043 L532.925781,440.379883 L532.925781,442.594727 L524.523438,442.594727 L524.523438,440.379883 L526.474609,440.133789 L519.179688,431.045898 L516.191406,431.045898 L516.191406,439.887695 L519.056641,440.379883 L519.056641,442.594727 L509.863281,442.594727 L509.863281,440.379883 Z" id="ZORK" fill="#000000" fill-rule="nonzero" transform="translate(486.203125, 429.797852) rotate(-90.000000) translate(-486.203125, -429.797852) "></path>
        <rect id="Rectangle" stroke="#000000" fill="#FFFFFF" transform="translate(485.000000, 670.000000) rotate(-90.000000) translate(-485.000000, -670.000000) " x="415.5" y="640.5" width="139" height="59" rx="8"></rect>
        <path d="M447.460938,657.326172 C450.800798,657.326172 453.487295,658.354482 455.520508,660.411133 C457.553721,662.467784 458.570313,665.124984 458.570313,668.382812 L458.570313,671.880859 C458.570313,675.150407 457.553721,677.807607 455.520508,679.852539 C453.487295,681.897471 450.800798,682.919922 447.460938,682.919922 L436.738281,682.919922 L436.738281,680.705078 L439.603516,680.212891 L439.603516,660.050781 L436.738281,659.558594 L436.738281,657.326172 L447.460938,657.326172 Z M443.066406,660.050781 L443.066406,680.212891 L447.460938,680.212891 C449.828137,680.212891 451.694329,679.433602 453.05957,677.875 C454.424812,676.316398 455.107422,674.318372 455.107422,671.880859 L455.107422,668.347656 C455.107422,665.933582 454.424812,663.947273 453.05957,662.388672 C451.694329,660.83007 449.828137,660.050781 447.460938,660.050781 L443.066406,660.050781 Z M470.681641,657.326172 L470.681641,659.558594 L467.816406,660.050781 L467.816406,674.675781 C467.816406,676.609385 468.367182,678.077143 469.46875,679.079102 C470.570318,680.08106 472.023428,680.582031 473.828125,680.582031 C475.726572,680.582031 477.255854,680.083989 478.416016,679.087891 C479.576178,678.091792 480.15625,676.621103 480.15625,674.675781 L480.15625,660.050781 L477.291016,659.558594 L477.291016,657.326172 L486.484375,657.326172 L486.484375,659.558594 L483.619141,660.050781 L483.619141,674.675781 C483.619141,677.453139 482.713876,679.583 480.90332,681.06543 C479.092764,682.547859 476.73439,683.289062 473.828125,683.289062 C471.003892,683.289062 468.718759,682.547859 466.972656,681.06543 C465.226554,679.583 464.353516,677.453139 464.353516,674.675781 L464.353516,660.050781 L461.488281,659.558594 L461.488281,657.326172 L470.681641,657.326172 Z M513.835938,657.326172 L513.835938,659.558594 L510.970703,660.050781 L510.970703,682.919922 L507.507813,682.919922 L495.203125,663.162109 L495.097656,663.197266 L495.097656,680.212891 L497.962891,680.705078 L497.962891,682.919922 L488.769531,682.919922 L488.769531,680.705078 L491.634766,680.212891 L491.634766,660.050781 L488.769531,659.558594 L488.769531,657.326172 L495.097656,657.326172 L507.402344,677.066406 L507.507813,677.03125 L507.507813,660.050781 L504.642578,659.558594 L504.642578,657.326172 L513.835938,657.326172 Z M516.191406,682.919922 L516.191406,680.705078 L519.056641,680.212891 L519.056641,660.050781 L516.191406,659.558594 L516.191406,657.326172 L535.84375,657.326172 L535.84375,663.478516 L532.873047,663.478516 L532.591797,660.050781 L522.519531,660.050781 L522.519531,668.330078 L532.310547,668.330078 L532.310547,671.054688 L522.519531,671.054688 L522.519531,680.212891 L532.802734,680.212891 L533.083984,676.785156 L536.037109,676.785156 L536.037109,682.919922 L516.191406,682.919922 Z" id="DUNE" fill="#000000" fill-rule="nonzero" transform="translate(486.387695, 670.307617) rotate(-90.000000) translate(-486.387695, -670.307617) "></path>
        <rect id="Rectangle" stroke="#000000" fill="#FFFFFF" x="35.5" y="620.5" width="179" height="59" rx="8"></rect>
        <path d="M69.9541016,645.964844 L67.3349609,645.964844 L66.6845703,642.308594 C66.1572239,641.863279 65.454106,641.494142 64.5751953,641.201172 C63.6962847,640.908202 62.6767636,640.761719 61.5166016,640.761719 C59.6767486,640.761719 58.2646534,641.151363 57.2802734,641.930664 C56.2958935,642.709965 55.8037109,643.726556 55.8037109,644.980469 C55.8037109,646.093756 56.3046825,647.022457 57.3066406,647.766602 C58.3085988,648.510746 59.9286997,649.16406 62.1669922,649.726562 C64.8623182,650.394535 66.9101492,651.3789 68.3105469,652.679688 C69.7109445,653.980475 70.4111328,655.591787 70.4111328,657.513672 C70.4111328,659.576182 69.5703209,661.234369 67.8886719,662.488281 C66.2070228,663.742194 64.0068495,664.369141 61.2880859,664.369141 C59.3193261,664.369141 57.5703201,664.046878 56.0410156,663.402344 C54.5117111,662.757809 53.2666064,661.914068 52.3056641,660.871094 L52.3056641,656.107422 L54.9072266,656.107422 L55.5751953,659.78125 C56.2431674,660.332034 57.0400344,660.783201 57.9658203,661.134766 C58.8916062,661.48633 59.999017,661.662109 61.2880859,661.662109 C63.0341884,661.662109 64.4140574,661.292972 65.4277344,660.554688 C66.4414113,659.816403 66.9482422,658.814459 66.9482422,657.548828 C66.9482422,656.376947 66.5087935,655.395512 65.6298828,654.604492 C64.7509722,653.813473 63.1982533,653.14844 60.9716797,652.609375 C58.2646349,651.964841 56.1494217,651.015631 54.6259766,649.761719 C53.1025314,648.507806 52.3408203,646.93165 52.3408203,645.033203 C52.3408203,643.029287 53.1904212,641.362311 54.8896484,640.032227 C56.5888757,638.702142 58.797838,638.037109 61.5166016,638.037109 C63.3095793,638.037109 64.9413989,638.344723 66.4121094,638.959961 C67.8828199,639.575198 69.0634721,640.322261 69.9541016,641.201172 L69.9541016,645.964844 Z M73.3291016,640.638672 L73.3291016,638.40625 L82.5224609,638.40625 L82.5224609,640.638672 L79.6572266,641.130859 L79.6572266,661.292969 L82.5224609,661.785156 L82.5224609,664 L73.3291016,664 L73.3291016,661.785156 L76.1943359,661.292969 L76.1943359,641.130859 L73.3291016,640.638672 Z M109.99707,643.503906 L109.90918,643.486328 L101.629883,664 L99.3271484,664 L91.0478516,643.503906 L90.9599609,643.521484 L91.3115234,653.875 L91.3115234,661.292969 L94.1767578,661.785156 L94.1767578,664 L84.9833984,664 L84.9833984,661.785156 L87.8486328,661.292969 L87.8486328,641.130859 L84.9833984,640.638672 L84.9833984,638.40625 L92.2783203,638.40625 L100.43457,659.201172 L100.540039,659.201172 L108.678711,638.40625 L115.991211,638.40625 L115.991211,640.638672 L113.125977,641.130859 L113.125977,661.292969 L115.991211,661.785156 L115.991211,664 L106.797852,664 L106.797852,661.785156 L109.663086,661.292969 L109.663086,653.875 L109.99707,643.503906 Z M138.31543,646.263672 L135.87207,646.263672 L135.22168,642.642578 C134.659177,642.091794 133.967778,641.640627 133.147461,641.289062 C132.327144,640.937498 131.348638,640.761719 130.211914,640.761719 C127.551745,640.761719 125.506843,641.725576 124.077148,643.65332 C122.647454,645.581064 121.932617,648.027329 121.932617,650.992188 L121.932617,651.396484 C121.932617,654.361343 122.632805,656.813467 124.033203,658.75293 C125.433601,660.692393 127.375964,661.662109 129.860352,661.662109 C131.020514,661.662109 132.075191,661.480471 133.024414,661.117188 C133.973638,660.753904 134.706052,660.308596 135.22168,659.78125 L135.87207,656.160156 L138.31543,656.160156 L138.31543,660.712891 C137.577145,661.662114 136.469734,662.508785 134.993164,663.25293 C133.516594,663.997074 131.805674,664.369141 129.860352,664.369141 C126.53221,664.369141 123.801768,663.138684 121.668945,660.677734 C119.536122,658.216785 118.469727,655.123066 118.469727,651.396484 L118.469727,651.027344 C118.469727,647.277325 119.518544,644.174817 121.616211,641.719727 C123.713878,639.264636 126.461897,638.037109 129.860352,638.037109 C131.805674,638.037109 133.516594,638.415035 134.993164,639.170898 C136.469734,639.926762 137.577145,640.773433 138.31543,641.710938 L138.31543,646.263672 Z M141.672852,640.638672 L141.672852,638.40625 L150.866211,638.40625 L150.866211,640.638672 L148.000977,641.130859 L148.000977,661.292969 L150.866211,661.785156 L150.866211,664 L141.672852,664 L141.672852,661.785156 L144.538086,661.292969 L144.538086,641.130859 L141.672852,640.638672 Z M173.999023,638.40625 L173.999023,644.066406 L171.045898,644.066406 L170.782227,641.130859 L165.104492,641.130859 L165.104492,661.292969 L167.969727,661.785156 L167.969727,664 L158.776367,664 L158.776367,661.785156 L161.641602,661.292969 L161.641602,641.130859 L155.946289,641.130859 L155.700195,644.066406 L152.729492,644.066406 L152.729492,638.40625 L173.999023,638.40625 Z M184.686523,640.638672 L181.926758,640.972656 L187.288086,651.414062 L192.649414,640.972656 L189.907227,640.638672 L189.907227,638.40625 L198.696289,638.40625 L198.696289,640.638672 L196.53418,640.972656 L188.94043,655 L188.94043,661.292969 L191.805664,661.785156 L191.805664,664 L182.629883,664 L182.629883,661.785156 L185.495117,661.292969 L185.495117,654.736328 L178.041992,640.972656 L175.897461,640.638672 L175.897461,638.40625 L184.686523,638.40625 L184.686523,640.638672 Z" id="SIMCITY" fill="#000000" fill-rule="nonzero"></path>
        <rect id="Rectangle" stroke="#000000" fill="#FFFFFF" x="255.5" y="680.5" width="159" height="59" rx="8"></rect>
        <path d="M295.897461,711.396484 C295.897461,713.669933 295.47559,715.744131 294.631836,717.619141 C293.788082,719.49415 292.610359,721.005854 291.098633,722.154297 L296.28418,725.810547 L293.911133,727.919922 L288.092773,723.771484 C287.506833,723.958985 286.903323,724.105468 286.282227,724.210938 C285.66113,724.316407 285.028324,724.369141 284.383789,724.369141 C281.079085,724.369141 278.395518,723.138684 276.333008,720.677734 C274.270497,718.216785 273.239258,715.123066 273.239258,711.396484 L273.239258,711.027344 C273.239258,707.312481 274.270497,704.218762 276.333008,701.746094 C278.395518,699.273425 281.079085,698.037109 284.383789,698.037109 C287.782244,698.037109 290.550771,699.273425 292.689453,701.746094 C294.828136,704.218762 295.897461,707.312481 295.897461,711.027344 L295.897461,711.396484 Z M292.43457,710.992188 C292.43457,708.01561 291.722663,705.586923 290.298828,703.706055 C288.874993,701.825186 286.903333,700.884766 284.383789,700.884766 C281.969714,700.884766 280.085944,701.828116 278.732422,703.714844 C277.378899,705.601572 276.702148,708.027329 276.702148,710.992188 L276.702148,711.396484 C276.702148,714.396499 277.378899,716.836905 278.732422,718.717773 C280.085944,720.598642 281.969714,721.539062 284.383789,721.539062 C286.938489,721.539062 288.918938,720.601572 290.325195,718.726562 C291.731452,716.851553 292.43457,714.408218 292.43457,711.396484 L292.43457,710.992188 Z M307.516602,698.40625 L307.516602,700.638672 L304.651367,701.130859 L304.651367,715.755859 C304.651367,717.689463 305.202143,719.157222 306.303711,720.15918 C307.405279,721.161138 308.858389,721.662109 310.663086,721.662109 C312.561533,721.662109 314.090815,721.164067 315.250977,720.167969 C316.411139,719.17187 316.991211,717.701182 316.991211,715.755859 L316.991211,701.130859 L314.125977,700.638672 L314.125977,698.40625 L323.319336,698.40625 L323.319336,700.638672 L320.454102,701.130859 L320.454102,715.755859 C320.454102,718.533217 319.548837,720.663079 317.738281,722.145508 C315.927725,723.627937 313.56935,724.369141 310.663086,724.369141 C307.838853,724.369141 305.55372,723.627937 303.807617,722.145508 C302.061515,720.663079 301.188477,718.533217 301.188477,715.755859 L301.188477,701.130859 L298.323242,700.638672 L298.323242,698.40625 L307.516602,698.40625 Z M324.268555,721.785156 L326.166992,721.521484 L335.114258,698.40625 L338.084961,698.40625 L346.874023,721.521484 L348.754883,721.785156 L348.754883,724 L341.407227,724 L341.407227,721.785156 L343.34082,721.451172 L341.65332,716.740234 L331.405273,716.740234 L329.665039,721.451172 L331.598633,721.785156 L331.598633,724 L324.268555,724 L324.268555,721.785156 Z M332.477539,713.839844 L340.598633,713.839844 L336.625977,702.853516 L336.520508,702.853516 L332.477539,713.839844 Z M350.916992,721.785156 L353.782227,721.292969 L353.782227,701.130859 L350.916992,700.638672 L350.916992,698.40625 L360.110352,698.40625 L360.110352,700.638672 L357.245117,701.130859 L357.245117,709.726562 L359.899414,709.726562 L367.053711,700.884766 L365.137695,700.638672 L365.137695,698.40625 L373.258789,698.40625 L373.258789,700.638672 L370.850586,701.078125 L363.02832,710.78125 L371.571289,721.345703 L373.979492,721.785156 L373.979492,724 L365.577148,724 L365.577148,721.785156 L367.52832,721.539062 L360.233398,712.451172 L357.245117,712.451172 L357.245117,721.292969 L360.110352,721.785156 L360.110352,724 L350.916992,724 L350.916992,721.785156 Z M376.44043,724 L376.44043,721.785156 L379.305664,721.292969 L379.305664,701.130859 L376.44043,700.638672 L376.44043,698.40625 L396.092773,698.40625 L396.092773,704.558594 L393.12207,704.558594 L392.84082,701.130859 L382.768555,701.130859 L382.768555,709.410156 L392.55957,709.410156 L392.55957,712.134766 L382.768555,712.134766 L382.768555,721.292969 L393.051758,721.292969 L393.333008,717.865234 L396.286133,717.865234 L396.286133,724 L376.44043,724 Z" id="QUAKE" fill="#000000" fill-rule="nonzero"></path>
        <rect id="Rectangle" stroke="#000000" fill="#FFFFFF" x="555.5" y="660.5" width="159" height="59" rx="8"></rect>
        <path d="M600.634766,683.503906 L600.546875,683.486328 L592.267578,704 L589.964844,704 L581.685547,683.503906 L581.597656,683.521484 L581.949219,693.875 L581.949219,701.292969 L584.814453,701.785156 L584.814453,704 L575.621094,704 L575.621094,701.785156 L578.486328,701.292969 L578.486328,681.130859 L575.621094,680.638672 L575.621094,678.40625 L582.916016,678.40625 L591.072266,699.201172 L591.177734,699.201172 L599.316406,678.40625 L606.628906,678.40625 L606.628906,680.638672 L603.763672,681.130859 L603.763672,701.292969 L606.628906,701.785156 L606.628906,704 L597.435547,704 L597.435547,701.785156 L600.300781,701.292969 L600.300781,693.875 L600.634766,683.503906 Z M608.826172,701.785156 L610.724609,701.521484 L619.671875,678.40625 L622.642578,678.40625 L631.431641,701.521484 L633.3125,701.785156 L633.3125,704 L625.964844,704 L625.964844,701.785156 L627.898438,701.451172 L626.210938,696.740234 L615.962891,696.740234 L614.222656,701.451172 L616.15625,701.785156 L616.15625,704 L608.826172,704 L608.826172,701.785156 Z M617.035156,693.839844 L625.15625,693.839844 L621.183594,682.853516 L621.078125,682.853516 L617.035156,693.839844 Z M646.707031,678.423828 C649.496108,678.423828 651.634758,679.041986 653.123047,680.27832 C654.611336,681.514655 655.355469,683.26952 655.355469,685.542969 C655.355469,686.785162 655.009769,687.886714 654.318359,688.847656 C653.62695,689.808599 652.636725,690.56445 651.347656,691.115234 C652.742194,691.572268 653.747067,692.316401 654.362305,693.347656 C654.977542,694.378911 655.285156,695.650383 655.285156,697.162109 L655.285156,699.21875 C655.285156,700.00391 655.384765,700.583983 655.583984,700.958984 C655.783204,701.333986 656.111326,701.55664 656.568359,701.626953 L657.412109,701.732422 L657.412109,704 L655.548828,704 C654.201165,704 653.243167,703.531255 652.674805,702.59375 C652.106442,701.656245 651.822266,700.519538 651.822266,699.183594 L651.822266,697.197266 C651.822266,695.802727 651.417973,694.683598 650.609375,693.839844 C649.800777,692.99609 648.716804,692.574219 647.357422,692.574219 L641.802734,692.574219 L641.802734,701.292969 L644.667969,701.785156 L644.667969,704 L635.474609,704 L635.474609,701.785156 L638.339844,701.292969 L638.339844,681.130859 L635.474609,680.638672 L635.474609,678.423828 L646.707031,678.423828 Z M641.802734,689.849609 L646.355469,689.849609 C648.289072,689.849609 649.695308,689.480472 650.574219,688.742188 C651.453129,688.003903 651.892578,686.925788 651.892578,685.507812 C651.892578,684.16015 651.470707,683.093754 650.626953,682.308594 C649.783199,681.523434 648.476571,681.130859 646.707031,681.130859 L641.802734,681.130859 L641.802734,689.849609 Z M659.820312,680.638672 L659.820312,678.40625 L669.013672,678.40625 L669.013672,680.638672 L666.148438,681.130859 L666.148438,701.292969 L669.013672,701.785156 L669.013672,704 L659.820312,704 L659.820312,701.785156 L662.685547,701.292969 L662.685547,681.130859 L659.820312,680.638672 Z M694.273438,691.396484 C694.273438,695.123066 693.204112,698.216785 691.06543,700.677734 C688.926747,703.138684 686.15822,704.369141 682.759766,704.369141 C679.455062,704.369141 676.771495,703.138684 674.708984,700.677734 C672.646474,698.216785 671.615234,695.123066 671.615234,691.396484 L671.615234,691.027344 C671.615234,687.312481 672.646474,684.218762 674.708984,681.746094 C676.771495,679.273425 679.455062,678.037109 682.759766,678.037109 C686.15822,678.037109 688.926747,679.273425 691.06543,681.746094 C693.204112,684.218762 694.273438,687.312481 694.273438,691.027344 L694.273438,691.396484 Z M690.810547,690.992188 C690.810547,688.01561 690.09864,685.586923 688.674805,683.706055 C687.250969,681.825186 685.279309,680.884766 682.759766,680.884766 C680.345691,680.884766 678.461921,681.828116 677.108398,683.714844 C675.754876,685.601572 675.078125,688.027329 675.078125,690.992188 L675.078125,691.396484 C675.078125,694.396499 675.754876,696.836905 677.108398,698.717773 C678.461921,700.598642 680.345691,701.539062 682.759766,701.539062 C685.314466,701.539062 687.294915,700.601572 688.701172,698.726562 C690.107429,696.851553 690.810547,694.408218 690.810547,691.396484 L690.810547,690.992188 Z" id="MARIO" fill="#000000" fill-rule="nonzero"></path>
        <rect id="Rectangle" stroke="#000000" fill="#FFFFFF" transform="translate(585.000000, 540.000000) rotate(-90.000000) translate(-585.000000, -540.000000) " x="505.5" y="510.5" width="159" height="59" rx="8"></rect>
        <path d="M545.870117,534.375 L543.250977,534.375 L542.600586,530.71875 C542.07324,530.273435 541.370122,529.904298 540.491211,529.611328 C539.6123,529.318358 538.592779,529.171875 537.432617,529.171875 C535.592764,529.171875 534.180669,529.56152 533.196289,530.34082 C532.211909,531.120121 531.719727,532.136712 531.719727,533.390625 C531.719727,534.503912 532.220698,535.432613 533.222656,536.176758 C534.224614,536.920902 535.844715,537.574216 538.083008,538.136719 C540.778334,538.804691 542.826165,539.789056 544.226562,541.089844 C545.62696,542.390632 546.327148,544.001944 546.327148,545.923828 C546.327148,547.986338 545.486337,549.644525 543.804688,550.898438 C542.123038,552.15235 539.922865,552.779297 537.204102,552.779297 C535.235342,552.779297 533.486336,552.457034 531.957031,551.8125 C530.427727,551.167966 529.182622,550.324224 528.22168,549.28125 L528.22168,544.517578 L530.823242,544.517578 L531.491211,548.191406 C532.159183,548.74219 532.95605,549.193358 533.881836,549.544922 C534.807622,549.896486 535.915033,550.072266 537.204102,550.072266 C538.950204,550.072266 540.330073,549.703129 541.34375,548.964844 C542.357427,548.226559 542.864258,547.224616 542.864258,545.958984 C542.864258,544.787104 542.424809,543.805668 541.545898,543.014648 C540.666988,542.223629 539.114269,541.558596 536.887695,541.019531 C534.180651,540.374997 532.065437,539.425788 530.541992,538.171875 C529.018547,536.917962 528.256836,535.341806 528.256836,533.443359 C528.256836,531.439443 529.106437,529.772468 530.805664,528.442383 C532.504891,527.112298 534.713854,526.447266 537.432617,526.447266 C539.225595,526.447266 540.857415,526.75488 542.328125,527.370117 C543.798835,527.985355 544.979488,528.732417 545.870117,529.611328 L545.870117,534.375 Z M561.022461,526.816406 C563.752943,526.816406 565.876946,527.519524 567.394531,528.925781 C568.912117,530.332038 569.670898,532.183582 569.670898,534.480469 C569.670898,536.800793 568.912117,538.658196 567.394531,540.052734 C565.876946,541.447273 563.752943,542.144531 561.022461,542.144531 L555.59082,542.144531 L555.59082,549.703125 L558.456055,550.195312 L558.456055,552.410156 L549.262695,552.410156 L549.262695,550.195312 L552.12793,549.703125 L552.12793,529.541016 L549.262695,529.048828 L549.262695,526.816406 L561.022461,526.816406 Z M555.59082,539.4375 L561.022461,539.4375 C562.756845,539.4375 564.054683,538.971684 564.916016,538.040039 C565.777348,537.108394 566.208008,535.933601 566.208008,534.515625 C566.208008,533.097649 565.777348,531.914067 564.916016,530.964844 C564.054683,530.01562 562.756845,529.541016 561.022461,529.541016 L555.59082,529.541016 L555.59082,539.4375 Z M580.639648,529.048828 L577.879883,529.382812 L583.241211,539.824219 L588.602539,529.382812 L585.860352,529.048828 L585.860352,526.816406 L594.649414,526.816406 L594.649414,529.048828 L592.487305,529.382812 L584.893555,543.410156 L584.893555,549.703125 L587.758789,550.195312 L587.758789,552.410156 L578.583008,552.410156 L578.583008,550.195312 L581.448242,549.703125 L581.448242,543.146484 L573.995117,529.382812 L571.850586,529.048828 L571.850586,526.816406 L580.639648,526.816406 L580.639648,529.048828 Z M608.254883,526.833984 C611.043959,526.833984 613.18261,527.452142 614.670898,528.688477 C616.159187,529.924811 616.90332,531.679676 616.90332,533.953125 C616.90332,535.195319 616.557621,536.29687 615.866211,537.257812 C615.174801,538.218755 614.184577,538.974607 612.895508,539.525391 C614.290046,539.982424 615.294919,540.726557 615.910156,541.757812 C616.525394,542.789068 616.833008,544.060539 616.833008,545.572266 L616.833008,547.628906 C616.833008,548.414066 616.932616,548.994139 617.131836,549.369141 C617.331056,549.744142 617.659177,549.966797 618.116211,550.037109 L618.959961,550.142578 L618.959961,552.410156 L617.09668,552.410156 C615.749017,552.410156 614.791018,551.941411 614.222656,551.003906 C613.654294,550.066402 613.370117,548.929694 613.370117,547.59375 L613.370117,545.607422 C613.370117,544.212884 612.965824,543.093754 612.157227,542.25 C611.348629,541.406246 610.264655,540.984375 608.905273,540.984375 L603.350586,540.984375 L603.350586,549.703125 L606.21582,550.195312 L606.21582,552.410156 L597.022461,552.410156 L597.022461,550.195312 L599.887695,549.703125 L599.887695,529.541016 L597.022461,529.048828 L597.022461,526.833984 L608.254883,526.833984 Z M603.350586,538.259766 L607.90332,538.259766 C609.836924,538.259766 611.24316,537.890629 612.12207,537.152344 C613.000981,536.414059 613.44043,535.335945 613.44043,533.917969 C613.44043,532.570306 613.018559,531.50391 612.174805,530.71875 C611.33105,529.93359 610.024423,529.541016 608.254883,529.541016 L603.350586,529.541016 L603.350586,538.259766 Z M644.18457,539.806641 C644.18457,543.533222 643.115245,546.626941 640.976562,549.087891 C638.83788,551.54884 636.069353,552.779297 632.670898,552.779297 C629.366194,552.779297 626.682627,551.54884 624.620117,549.087891 C622.557607,546.626941 621.526367,543.533222 621.526367,539.806641 L621.526367,539.4375 C621.526367,535.722638 622.557607,532.628919 624.620117,530.15625 C626.682627,527.683581 629.366194,526.447266 632.670898,526.447266 C636.069353,526.447266 638.83788,527.683581 640.976562,530.15625 C643.115245,532.628919 644.18457,535.722638 644.18457,539.4375 L644.18457,539.806641 Z M640.72168,539.402344 C640.72168,536.425766 640.009773,533.99708 638.585938,532.116211 C637.162102,530.235342 635.190442,529.294922 632.670898,529.294922 C630.256824,529.294922 628.373054,530.238272 627.019531,532.125 C625.666009,534.011728 624.989258,536.437485 624.989258,539.402344 L624.989258,539.806641 C624.989258,542.806656 625.666009,545.247061 627.019531,547.12793 C628.373054,549.008798 630.256824,549.949219 632.670898,549.949219 C635.225599,549.949219 637.206048,549.011728 638.612305,547.136719 C640.018562,545.261709 640.72168,542.818374 640.72168,539.806641 L640.72168,539.402344 Z" id="SPYRO" fill="#000000" fill-rule="nonzero" transform="translate(586.203125, 539.613281) rotate(-90.000000) translate(-586.203125, -539.613281) "></path>
        <rect id="Rectangle" stroke="#000000" fill="#FFFFFF" transform="translate(685.000000, 540.000000) rotate(-90.000000) translate(-685.000000, -540.000000) " x="605.5" y="510.5" width="159" height="59" rx="8"></rect>
        <path d="M639.313477,527.510742 C641.985365,527.510742 644.074211,528.087885 645.580078,529.242188 C647.085945,530.39649 647.838867,532.127918 647.838867,534.436523 C647.838867,535.573248 647.478519,536.589839 646.757812,537.486328 C646.037106,538.382817 645.084967,539.047849 643.901367,539.481445 C645.436531,539.809572 646.64941,540.565424 647.540039,541.749023 C648.430669,542.932623 648.875977,544.309562 648.875977,545.879883 C648.875977,548.223645 648.114265,550.013666 646.59082,551.25 C645.067375,552.486334 643.004896,553.104492 640.40332,553.104492 L628.098633,553.104492 L628.098633,550.889648 L630.963867,550.397461 L630.963867,530.235352 L628.098633,529.743164 L628.098633,527.510742 L639.313477,527.510742 Z M634.426758,541.098633 L634.426758,550.397461 L640.40332,550.397461 C641.985359,550.397461 643.212886,550.007816 644.085938,549.228516 C644.958989,548.449215 645.395508,547.344734 645.395508,545.915039 C645.395508,544.415032 645.029301,543.237309 644.296875,542.381836 C643.564449,541.526363 642.44239,541.098633 640.930664,541.098633 L634.426758,541.098633 Z M634.426758,538.391602 L640.209961,538.391602 C641.452155,538.356445 642.457027,537.987308 643.224609,537.28418 C643.992191,536.581051 644.375977,535.608405 644.375977,534.366211 C644.375977,532.983392 643.942387,531.949222 643.075195,531.263672 C642.208003,530.578122 640.95411,530.235352 639.313477,530.235352 L634.426758,530.235352 L634.426758,538.391602 Z M651.741211,553.104492 L651.741211,550.889648 L654.606445,550.397461 L654.606445,530.235352 L651.741211,529.743164 L651.741211,527.510742 L660.93457,527.510742 L660.93457,529.743164 L658.069336,530.235352 L658.069336,550.397461 L666.963867,550.397461 L667.227539,547.461914 L670.180664,547.461914 L670.180664,553.104492 L651.741211,553.104492 Z M694.473633,540.500977 C694.473633,544.227558 693.404308,547.321277 691.265625,549.782227 C689.126942,552.243176 686.358415,553.473633 682.959961,553.473633 C679.655257,553.473633 676.97169,552.243176 674.90918,549.782227 C672.846669,547.321277 671.81543,544.227558 671.81543,540.500977 L671.81543,540.131836 C671.81543,536.416974 672.846669,533.323255 674.90918,530.850586 C676.97169,528.377917 679.655257,527.141602 682.959961,527.141602 C686.358415,527.141602 689.126942,528.377917 691.265625,530.850586 C693.404308,533.323255 694.473633,536.416974 694.473633,540.131836 L694.473633,540.500977 Z M691.010742,540.09668 C691.010742,537.120102 690.298835,534.691416 688.875,532.810547 C687.451165,530.929678 685.479505,529.989258 682.959961,529.989258 C680.545886,529.989258 678.662116,530.932608 677.308594,532.819336 C675.955071,534.706064 675.27832,537.131821 675.27832,540.09668 L675.27832,540.500977 C675.27832,543.500992 675.955071,545.941397 677.308594,547.822266 C678.662116,549.703134 680.545886,550.643555 682.959961,550.643555 C685.514661,550.643555 687.49511,549.706064 688.901367,547.831055 C690.307624,545.956045 691.010742,543.51271 691.010742,540.500977 L691.010742,540.09668 Z M719.874023,540.500977 C719.874023,544.227558 718.804698,547.321277 716.666016,549.782227 C714.527333,552.243176 711.758806,553.473633 708.360352,553.473633 C705.055648,553.473633 702.372081,552.243176 700.30957,549.782227 C698.24706,547.321277 697.21582,544.227558 697.21582,540.500977 L697.21582,540.131836 C697.21582,536.416974 698.24706,533.323255 700.30957,530.850586 C702.372081,528.377917 705.055648,527.141602 708.360352,527.141602 C711.758806,527.141602 714.527333,528.377917 716.666016,530.850586 C718.804698,533.323255 719.874023,536.416974 719.874023,540.131836 L719.874023,540.500977 Z M716.411133,540.09668 C716.411133,537.120102 715.699226,534.691416 714.275391,532.810547 C712.851555,530.929678 710.879895,529.989258 708.360352,529.989258 C705.946277,529.989258 704.062507,530.932608 702.708984,532.819336 C701.355462,534.706064 700.678711,537.131821 700.678711,540.09668 L700.678711,540.500977 C700.678711,543.500992 701.355462,545.941397 702.708984,547.822266 C704.062507,549.703134 705.946277,550.643555 708.360352,550.643555 C710.915052,550.643555 712.895501,549.706064 714.301758,547.831055 C715.708015,545.956045 716.411133,543.51271 716.411133,540.500977 L716.411133,540.09668 Z M733.198242,527.510742 C736.538103,527.510742 739.224599,528.539052 741.257812,530.595703 C743.291026,532.652354 744.307617,535.309554 744.307617,538.567383 L744.307617,542.06543 C744.307617,545.334977 743.291026,547.992177 741.257812,550.037109 C739.224599,552.082041 736.538103,553.104492 733.198242,553.104492 L722.475586,553.104492 L722.475586,550.889648 L725.34082,550.397461 L725.34082,530.235352 L722.475586,529.743164 L722.475586,527.510742 L733.198242,527.510742 Z M728.803711,530.235352 L728.803711,550.397461 L733.198242,550.397461 C735.565442,550.397461 737.431634,549.618172 738.796875,548.05957 C740.162116,546.500969 740.844727,544.502942 740.844727,542.06543 L740.844727,538.532227 C740.844727,536.118152 740.162116,534.131844 738.796875,532.573242 C737.431634,531.014641 735.565442,530.235352 733.198242,530.235352 L728.803711,530.235352 Z" id="BLOOD" fill="#000000" fill-rule="nonzero" transform="translate(686.203125, 540.307617) rotate(-90.000000) translate(-686.203125, -540.307617) "></path>
        <rect id="Rectangle" stroke="#000000" fill="#FFFFFF" transform="translate(225.000000, 70.000000) rotate(-90.000000) translate(-225.000000, -70.000000) " x="155.5" y="40.5" width="139" height="59" rx="8"></rect>
        <path d="M195.933594,64.6738281 L193.490234,64.6738281 L192.839844,61.0527344 C192.277341,60.5019504 191.585942,60.050783 190.765625,59.6992188 C189.945308,59.3476545 188.966803,59.171875 187.830078,59.171875 C185.169909,59.171875 183.125007,60.1357325 181.695312,62.0634766 C180.265618,63.9912206 179.550781,66.4374852 179.550781,69.4023438 L179.550781,69.8066406 C179.550781,72.7714992 180.25097,75.2236231 181.651367,77.1630859 C183.051765,79.1025488 184.994128,80.0722656 187.478516,80.0722656 C188.638678,80.0722656 189.693355,79.8906268 190.642578,79.5273438 C191.591802,79.1640607 192.324216,78.7187526 192.839844,78.1914062 L193.490234,74.5703125 L195.933594,74.5703125 L195.933594,79.1230469 C195.195309,80.0722704 194.087898,80.9189416 192.611328,81.6630859 C191.134758,82.4072303 189.423838,82.7792969 187.478516,82.7792969 C184.150374,82.7792969 181.419933,81.5488404 179.287109,79.0878906 C177.154286,76.6269408 176.087891,73.5332218 176.087891,69.8066406 L176.087891,69.4375 C176.087891,65.6874813 177.136708,62.5849732 179.234375,60.1298828 C181.332042,57.6747924 184.080061,56.4472656 187.478516,56.4472656 C189.423838,56.4472656 191.134758,56.8251915 192.611328,57.5810547 C194.087898,58.3369178 195.195309,59.1835891 195.933594,60.1210938 L195.933594,64.6738281 Z M199.308594,82.4101562 L199.308594,80.1953125 L202.173828,79.703125 L202.173828,59.5410156 L199.308594,59.0488281 L199.308594,56.8164062 L208.501953,56.8164062 L208.501953,59.0488281 L205.636719,59.5410156 L205.636719,79.703125 L214.53125,79.703125 L214.794922,76.7675781 L217.748047,76.7675781 L217.748047,82.4101562 L199.308594,82.4101562 Z M220.4375,80.1953125 L222.335938,79.9316406 L231.283203,56.8164062 L234.253906,56.8164062 L243.042969,79.9316406 L244.923828,80.1953125 L244.923828,82.4101562 L237.576172,82.4101562 L237.576172,80.1953125 L239.509766,79.8613281 L237.822266,75.1503906 L227.574219,75.1503906 L225.833984,79.8613281 L227.767578,80.1953125 L227.767578,82.4101562 L220.4375,82.4101562 L220.4375,80.1953125 Z M228.646484,72.25 L236.767578,72.25 L232.794922,61.2636719 L232.689453,61.2636719 L228.646484,72.25 Z M251.814453,59.0488281 L249.212891,59.453125 L252.5,73.5507812 L252.974609,76.75 L253.080078,76.7675781 L253.765625,73.5507812 L258.476562,56.8164062 L261.535156,56.8164062 L266.263672,73.5507812 L266.966797,76.8378906 L267.072266,76.8378906 L267.582031,73.5507812 L270.798828,59.453125 L268.179688,59.0488281 L268.179688,56.8164062 L276.318359,56.8164062 L276.318359,59.0488281 L274.261719,59.3125 L268.689453,82.4101562 L265.595703,82.4101562 L260.533203,64.65625 L260.076172,62.3535156 L259.970703,62.3535156 L259.53125,64.65625 L254.398438,82.4101562 L251.322266,82.4101562 L245.75,59.3125 L243.693359,59.0488281 L243.693359,56.8164062 L251.814453,56.8164062 L251.814453,59.0488281 Z" id="CLAW" fill="#000000" fill-rule="nonzero" transform="translate(226.203125, 69.613281) rotate(-90.000000) translate(-226.203125, -69.613281) "></path>
        <path d="" id="Path" stroke="#979797"></path>
        <path d="M125,140 L125,180" id="Line" stroke="#000000" stroke-linecap="square"></path>
        <path d="M225,140 L225,180" id="Line-Copy" stroke="#000000" stroke-linecap="square"></path>
        <path d="M575,10 L575,50" id="Line-Copy-11" stroke="#000000" stroke-linecap="square" transform="translate(575.000000, 30.000000) rotate(-270.000000) translate(-575.000000, -30.000000) "></path>
        <path d="M485,480 L485,620" id="Line-Copy-11" stroke="#000000" stroke-linecap="square" transform="translate(485.000000, 550.000000) rotate(-270.000000) translate(-485.000000, -550.000000) "></path>
        <path d="M285,240 L285,280" id="Line-Copy-3" stroke="#000000" stroke-linecap="square"></path>
        <path d="M85,340 L85,380" id="Line-Copy-9" stroke="#000000" stroke-linecap="square"></path>
        <path d="M85,580 L85,620" id="Line-Copy-10" stroke="#000000" stroke-linecap="square"></path>
        <path d="M285,480 L285,520" id="Line-Copy-5" stroke="#000000" stroke-linecap="square"></path>
        <path d="M385,240 L385,280" id="Line-Copy-4" stroke="#000000" stroke-linecap="square"></path>
        <path d="M485,320 L485,360" id="Line-Copy-6" stroke="#000000" stroke-linecap="square"></path>
        <path d="M585,620 L585,660" id="Line-Copy-7" stroke="#000000" stroke-linecap="square"></path>
        <path d="M685,620 L685,660" id="Line-Copy-8" stroke="#000000" stroke-linecap="square"></path>
        <path d="M625,220 L625,260" id="Line-Copy-2" stroke="#000000" stroke-linecap="square"></path>
        <path d="M435,690 L435,730" id="Line-Copy-11" stroke="#000000" stroke-linecap="square" transform="translate(435.000000, 710.000000) rotate(-270.000000) translate(-435.000000, -710.000000) "></path>
        <path d="M235,290 L235,330" id="Line-Copy-11" stroke="#000000" stroke-linecap="square" transform="translate(235.000000, 310.000000) rotate(-270.000000) translate(-235.000000, -310.000000) "></path>
        <path d="M405,470 L445,529.5" id="Line-Copy-11" stroke="#000000" stroke-linecap="square" transform="translate(425.000000, 500.000000) rotate(-270.000000) translate(-425.000000, -500.000000) "></path>
        <path d="M445,570 L405,629.5" id="Line-Copy-11" stroke="#000000" stroke-linecap="square" transform="translate(425.000000, 600.000000) rotate(-270.000000) translate(-425.000000, -600.000000) "></path>
    </g>
</svg>