<?xml version="1.0" encoding="UTF-8"?>
<svg width="720px" height="720px" viewBox="0 0 720 720" version="1.1" xmlns="http://www.w3.org/2000/svg" xmlns:xlink="http://www.w3.org/1999/xlink">
    <!-- Generator: Sketch 54.1 (76490) - https://sketchapp.com -->
    <title>q104</title>
    <desc>Created with Sketch.</desc>
    <g id="q104" stroke="none" stroke-width="1" fill="none" fill-rule="evenodd">
        <rect id="Rectangle" stroke="#CCCCCC" x="60" y="0" width="60" height="60"></rect>
        <rect id="Rectangle-Copy" stroke="#CCCCCC" x="60" y="60" width="60" height="60"></rect>
        <rect id="Rectangle-Copy-2" stroke="#CCCCCC" x="180" y="0" width="60" height="60"></rect>
        <rect id="Rectangle-Copy-3" stroke="#CCCCCC" x="180" y="60" width="60" height="60"></rect>
        <rect id="Rectangle-Copy-23" stroke="#CCCCCC" x="0" y="240" width="60" height="60"></rect>
        <rect id="Rectangle-Copy-39" stroke="#CCCCCC" x="120" y="480" width="60" height="60"></rect>
        <rect id="Rectangle-Copy-47" stroke="#CCCCCC" x="180" y="600" width="60" height="60"></rect>
        <rect id="Rectangle-Copy-6" stroke="#CCCCCC" x="360" y="60" width="60" height="60"></rect>
        <rect id="Rectangle-Copy-4" stroke="#CCCCCC" x="240" y="60" width="60" height="60"></rect>
        <rect id="Rectangle-Copy-24" stroke="#CCCCCC" x="60" y="240" width="60" height="60"></rect>
        <rect id="Rectangle-Copy-40" stroke="#CCCCCC" x="180" y="480" width="60" height="60"></rect>
        <rect id="Rectangle-Copy-48" stroke="#CCCCCC" x="240" y="600" width="60" height="60"></rect>
        <rect id="Rectangle-Copy-27" stroke="#CCCCCC" x="60" y="360" width="60" height="60"></rect>
        <rect id="Rectangle-Copy-26" stroke="#CCCCCC" x="60" y="180" width="60" height="60"></rect>
        <rect id="Rectangle-Copy-7" stroke="#CCCCCC" x="420" y="60" width="60" height="60"></rect>
        <rect id="Rectangle-Copy-10" stroke="#CCCCCC" x="420" y="180" width="60" height="60"></rect>
        <rect id="Rectangle-Copy-19" stroke="#CCCCCC" x="300" y="180" width="60" height="60"></rect>
        <rect id="Rectangle-Copy-21" stroke="#CCCCCC" x="180" y="180" width="60" height="60"></rect>
        <rect id="Rectangle-Copy-5" stroke="#CCCCCC" x="300" y="60" width="60" height="60"></rect>
        <rect id="Rectangle-Copy-25" stroke="#CCCCCC" x="120" y="240" width="60" height="60"></rect>
        <rect id="Rectangle-Copy-41" stroke="#CCCCCC" x="240" y="480" width="60" height="60"></rect>
        <rect id="Rectangle-Copy-49" stroke="#CCCCCC" x="300" y="600" width="60" height="60"></rect>
        <rect id="Rectangle-Copy-43" stroke="#CCCCCC" x="420" y="480" width="60" height="60"></rect>
        <rect id="Rectangle-Copy-45" stroke="#CCCCCC" x="420" y="540" width="60" height="60"></rect>
        <rect id="Rectangle-Copy-52" stroke="#CCCCCC" x="420" y="660" width="60" height="60"></rect>
        <rect id="Rectangle-Copy-28" stroke="#CCCCCC" x="120" y="360" width="60" height="60"></rect>
        <rect id="Rectangle-Copy-8" stroke="#CCCCCC" x="480" y="60" width="60" height="60"></rect>
        <rect id="Rectangle-Copy-11" stroke="#CCCCCC" x="480" y="180" width="60" height="60"></rect>
        <rect id="Rectangle-Copy-9" stroke="#CCCCCC" x="540" y="60" width="60" height="60"></rect>
        <rect id="Rectangle-Copy-13" stroke="#CCCCCC" x="660" y="60" width="60" height="60"></rect>
        <rect id="Rectangle-Copy-35" stroke="#CCCCCC" x="60" y="420" width="60" height="60"></rect>
        <rect id="Rectangle-Copy-14" stroke="#CCCCCC" x="660" y="120" width="60" height="60"></rect>
        <rect id="Rectangle-Copy-55" stroke="#CCCCCC" x="600" y="420" width="60" height="60"></rect>
        <rect id="Rectangle-Copy-36" stroke="#CCCCCC" x="60" y="480" width="60" height="60"></rect>
        <rect id="Rectangle-Copy-50" stroke="#CCCCCC" x="120" y="600" width="60" height="60"></rect>
        <rect id="Rectangle-Copy-15" stroke="#CCCCCC" x="660" y="180" width="60" height="60"></rect>
        <rect id="Rectangle-Copy-56" stroke="#CCCCCC" x="600" y="480" width="60" height="60"></rect>
        <rect id="Rectangle-Copy-37" stroke="#CCCCCC" x="60" y="540" width="60" height="60"></rect>
        <rect id="Rectangle-Copy-16" stroke="#CCCCCC" x="660" y="240" width="60" height="60"></rect>
        <rect id="Rectangle-Copy-57" stroke="#CCCCCC" x="600" y="540" width="60" height="60"></rect>
        <rect id="Rectangle-Copy-38" stroke="#CCCCCC" x="60" y="600" width="60" height="60"></rect>
        <rect id="Rectangle-Copy-17" stroke="#CCCCCC" x="540" y="240" width="60" height="60"></rect>
        <rect id="Rectangle-Copy-18" stroke="#CCCCCC" x="420" y="240" width="60" height="60"></rect>
        <rect id="Rectangle-Copy-20" stroke="#CCCCCC" x="300" y="240" width="60" height="60"></rect>
        <rect id="Rectangle-Copy-30" stroke="#CCCCCC" x="360" y="300" width="60" height="60"></rect>
        <rect id="Rectangle-Copy-32" stroke="#CCCCCC" x="420" y="360" width="60" height="60"></rect>
        <rect id="Rectangle-Copy-33" stroke="#CCCCCC" x="540" y="360" width="60" height="60"></rect>
        <rect id="Rectangle-Copy-34" stroke="#CCCCCC" x="660" y="360" width="60" height="60"></rect>
        <rect id="Rectangle-Copy-31" stroke="#CCCCCC" x="300" y="360" width="60" height="60"></rect>
        <rect id="Rectangle-Copy-22" stroke="#CCCCCC" x="180" y="240" width="60" height="60"></rect>
        <rect id="Rectangle-Copy-42" stroke="#CCCCCC" x="300" y="480" width="60" height="60"></rect>
        <rect id="Rectangle-Copy-51" stroke="#CCCCCC" x="360" y="600" width="60" height="60"></rect>
        <rect id="Rectangle-Copy-44" stroke="#CCCCCC" x="480" y="480" width="60" height="60"></rect>
        <rect id="Rectangle-Copy-46" stroke="#CCCCCC" x="480" y="540" width="60" height="60"></rect>
        <rect id="Rectangle-Copy-53" stroke="#CCCCCC" x="480" y="660" width="60" height="60"></rect>
        <rect id="Rectangle-Copy-54" stroke="#CCCCCC" x="600" y="660" width="60" height="60"></rect>
        <rect id="Rectangle-Copy-29" stroke="#CCCCCC" x="180" y="360" width="60" height="60"></rect>
        <rect id="Rectangle-Copy-12" stroke="#CCCCCC" x="540" y="180" width="60" height="60"></rect>
        <rect id="Rectangle" stroke="#000000" fill="#FFFFFF" x="0" y="0" width="60" height="60"></rect>
        <polygon id="M" fill="#000000" fill-rule="nonzero" points="39.5185547 23.5039062 39.4306641 23.4863281 31.1513672 44 28.8486328 44 20.5693359 23.5039062 20.4814453 23.5214844 20.8330078 33.875 20.8330078 41.2929688 23.6982422 41.7851562 23.6982422 44 14.5048828 44 14.5048828 41.7851562 17.3701172 41.2929688 17.3701172 21.1308594 14.5048828 20.6386719 14.5048828 18.40625 21.7998047 18.40625 29.9560547 39.2011719 30.0615234 39.2011719 38.2001953 18.40625 45.5126953 18.40625 45.5126953 20.6386719 42.6474609 21.1308594 42.6474609 41.2929688 45.5126953 41.7851562 45.5126953 44 36.3193359 44 36.3193359 41.7851562 39.1845703 41.2929688 39.1845703 33.875"></polygon>
        <rect id="Rectangle" stroke="#000000" fill="#FFFFFF" x="420" y="600" width="60" height="60"></rect>
        <polygon id="M" fill="#000000" fill-rule="nonzero" points="459.518555 623.503906 459.430664 623.486328 451.151367 644 448.848633 644 440.569336 623.503906 440.481445 623.521484 440.833008 633.875 440.833008 641.292969 443.698242 641.785156 443.698242 644 434.504883 644 434.504883 641.785156 437.370117 641.292969 437.370117 621.130859 434.504883 620.638672 434.504883 618.40625 441.799805 618.40625 449.956055 639.201172 450.061523 639.201172 458.200195 618.40625 465.512695 618.40625 465.512695 620.638672 462.647461 621.130859 462.647461 641.292969 465.512695 641.785156 465.512695 644 456.319336 644 456.319336 641.785156 459.18457 641.292969 459.18457 633.875"></polygon>
        <rect id="Rectangle" stroke="#000000" fill="#FFFFFF" x="0" y="60" width="60" height="60"></rect>
        <polygon id="Y" fill="#000000" fill-rule="nonzero" points="27.3105469 80.6386719 24.5507812 80.9726562 29.9121094 91.4140625 35.2734375 80.9726562 32.53125 80.6386719 32.53125 78.40625 41.3203125 78.40625 41.3203125 80.6386719 39.1582031 80.9726562 31.5644531 95 31.5644531 101.292969 34.4296875 101.785156 34.4296875 104 25.2539062 104 25.2539062 101.785156 28.1191406 101.292969 28.1191406 94.7363281 20.6660156 80.9726562 18.5214844 80.6386719 18.5214844 78.40625 27.3105469 78.40625"></polygon>
        <rect id="Rectangle" stroke="#000000" fill="#FFFFFF" x="360" y="660" width="60" height="60"></rect>
        <polygon id="Y" fill="#000000" fill-rule="nonzero" points="387.310547 680.638672 384.550781 680.972656 389.912109 691.414062 395.273438 680.972656 392.53125 680.638672 392.53125 678.40625 401.320312 678.40625 401.320312 680.638672 399.158203 680.972656 391.564453 695 391.564453 701.292969 394.429688 701.785156 394.429688 704 385.253906 704 385.253906 701.785156 388.119141 701.292969 388.119141 694.736328 380.666016 680.972656 378.521484 680.638672 378.521484 678.40625 387.310547 678.40625"></polygon>
        <rect id="Rectangle" stroke="#000000" fill="#FFFFFF" x="540" y="540" width="60" height="60"></rect>
        <polygon id="Y" fill="#000000" fill-rule="nonzero" points="567.310547 560.638672 564.550781 560.972656 569.912109 571.414062 575.273438 560.972656 572.53125 560.638672 572.53125 558.40625 581.320312 558.40625 581.320312 560.638672 579.158203 560.972656 571.564453 575 571.564453 581.292969 574.429688 581.785156 574.429688 584 565.253906 584 565.253906 581.785156 568.119141 581.292969 568.119141 574.736328 560.666016 560.972656 558.521484 560.638672 558.521484 558.40625 567.310547 558.40625"></polygon>
        <rect id="Rectangle" stroke="#000000" fill="#FFFFFF" x="0" y="120" width="60" height="60"></rect>
        <path d="M38.8154297,145.964844 L36.1962891,145.964844 L35.5458984,142.308594 C35.0185521,141.863279 34.3154341,141.494142 33.4365234,141.201172 C32.5576128,140.908202 31.5380917,140.761719 30.3779297,140.761719 C28.5380767,140.761719 27.1259815,141.151363 26.1416016,141.930664 C25.1572216,142.709965 24.6650391,143.726556 24.6650391,144.980469 C24.6650391,146.093756 25.1660106,147.022457 26.1679688,147.766602 C27.1699269,148.510746 28.7900279,149.16406 31.0283203,149.726562 C33.7236463,150.394535 35.7714774,151.3789 37.171875,152.679688 C38.5722726,153.980475 39.2724609,155.591787 39.2724609,157.513672 C39.2724609,159.576182 38.431649,161.234369 36.75,162.488281 C35.068351,163.742194 32.8681777,164.369141 30.1494141,164.369141 C28.1806542,164.369141 26.4316483,164.046878 24.9023438,163.402344 C23.3730392,162.757809 22.1279345,161.914068 21.1669922,160.871094 L21.1669922,156.107422 L23.7685547,156.107422 L24.4365234,159.78125 C25.1044955,160.332034 25.9013626,160.783201 26.8271484,161.134766 C27.7529343,161.48633 28.8603451,161.662109 30.1494141,161.662109 C31.8955165,161.662109 33.2753856,161.292972 34.2890625,160.554688 C35.3027394,159.816403 35.8095703,158.814459 35.8095703,157.548828 C35.8095703,156.376947 35.3701216,155.395512 34.4912109,154.604492 C33.6123003,153.813473 32.0595814,153.14844 29.8330078,152.609375 C27.125963,151.964841 25.0107498,151.015631 23.4873047,149.761719 C21.9638596,148.507806 21.2021484,146.93165 21.2021484,145.033203 C21.2021484,143.029287 22.0517493,141.362311 23.7509766,140.032227 C25.4502038,138.702142 27.6591661,138.037109 30.3779297,138.037109 C32.1709074,138.037109 33.802727,138.344723 35.2734375,138.959961 C36.744148,139.575198 37.9248002,140.322261 38.8154297,141.201172 L38.8154297,145.964844 Z" id="S" fill="#000000" fill-rule="nonzero"></path>
        <rect id="Rectangle" stroke="#000000" fill="#FFFFFF" x="660" y="300" width="60" height="60"></rect>
        <path d="M698.81543,325.964844 L696.196289,325.964844 L695.545898,322.308594 C695.018552,321.863279 694.315434,321.494142 693.436523,321.201172 C692.557613,320.908202 691.538092,320.761719 690.37793,320.761719 C688.538077,320.761719 687.125981,321.151363 686.141602,321.930664 C685.157222,322.709965 684.665039,323.726556 684.665039,324.980469 C684.665039,326.093756 685.166011,327.022457 686.167969,327.766602 C687.169927,328.510746 688.790028,329.16406 691.02832,329.726562 C693.723646,330.394535 695.771477,331.3789 697.171875,332.679688 C698.572273,333.980475 699.272461,335.591787 699.272461,337.513672 C699.272461,339.576182 698.431649,341.234369 696.75,342.488281 C695.068351,343.742194 692.868178,344.369141 690.149414,344.369141 C688.180654,344.369141 686.431648,344.046878 684.902344,343.402344 C683.373039,342.757809 682.127934,341.914068 681.166992,340.871094 L681.166992,336.107422 L683.768555,336.107422 L684.436523,339.78125 C685.104496,340.332034 685.901363,340.783201 686.827148,341.134766 C687.752934,341.48633 688.860345,341.662109 690.149414,341.662109 C691.895517,341.662109 693.275386,341.292972 694.289062,340.554688 C695.302739,339.816403 695.80957,338.814459 695.80957,337.548828 C695.80957,336.376947 695.370122,335.395512 694.491211,334.604492 C693.6123,333.813473 692.059581,333.14844 689.833008,332.609375 C687.125963,331.964841 685.01075,331.015631 683.487305,329.761719 C681.96386,328.507806 681.202148,326.93165 681.202148,325.033203 C681.202148,323.029287 682.051749,321.362311 683.750977,320.032227 C685.450204,318.702142 687.659166,318.037109 690.37793,318.037109 C692.170907,318.037109 693.802727,318.344723 695.273438,318.959961 C696.744148,319.575198 697.9248,320.322261 698.81543,321.201172 L698.81543,325.964844 Z" id="S" fill="#000000" fill-rule="nonzero"></path>
        <rect id="Rectangle" stroke="#000000" fill="#FFFFFF" x="300" y="300" width="60" height="60"></rect>
        <path d="M338.81543,325.964844 L336.196289,325.964844 L335.545898,322.308594 C335.018552,321.863279 334.315434,321.494142 333.436523,321.201172 C332.557613,320.908202 331.538092,320.761719 330.37793,320.761719 C328.538077,320.761719 327.125981,321.151363 326.141602,321.930664 C325.157222,322.709965 324.665039,323.726556 324.665039,324.980469 C324.665039,326.093756 325.166011,327.022457 326.167969,327.766602 C327.169927,328.510746 328.790028,329.16406 331.02832,329.726562 C333.723646,330.394535 335.771477,331.3789 337.171875,332.679688 C338.572273,333.980475 339.272461,335.591787 339.272461,337.513672 C339.272461,339.576182 338.431649,341.234369 336.75,342.488281 C335.068351,343.742194 332.868178,344.369141 330.149414,344.369141 C328.180654,344.369141 326.431648,344.046878 324.902344,343.402344 C323.373039,342.757809 322.127934,341.914068 321.166992,340.871094 L321.166992,336.107422 L323.768555,336.107422 L324.436523,339.78125 C325.104496,340.332034 325.901363,340.783201 326.827148,341.134766 C327.752934,341.48633 328.860345,341.662109 330.149414,341.662109 C331.895517,341.662109 333.275386,341.292972 334.289062,340.554688 C335.302739,339.816403 335.80957,338.814459 335.80957,337.548828 C335.80957,336.376947 335.370122,335.395512 334.491211,334.604492 C333.6123,333.813473 332.059581,333.14844 329.833008,332.609375 C327.125963,331.964841 325.01075,331.015631 323.487305,329.761719 C321.96386,328.507806 321.202148,326.93165 321.202148,325.033203 C321.202148,323.029287 322.051749,321.362311 323.750977,320.032227 C325.450204,318.702142 327.659166,318.037109 330.37793,318.037109 C332.170907,318.037109 333.802727,318.344723 335.273438,318.959961 C336.744148,319.575198 337.9248,320.322261 338.81543,321.201172 L338.81543,325.964844 Z" id="S" fill="#000000" fill-rule="nonzero"></path>
        <rect id="Rectangle" stroke="#000000" fill="#FFFFFF" x="540" y="420" width="60" height="60"></rect>
        <path d="M578.81543,445.964844 L576.196289,445.964844 L575.545898,442.308594 C575.018552,441.863279 574.315434,441.494142 573.436523,441.201172 C572.557613,440.908202 571.538092,440.761719 570.37793,440.761719 C568.538077,440.761719 567.125981,441.151363 566.141602,441.930664 C565.157222,442.709965 564.665039,443.726556 564.665039,444.980469 C564.665039,446.093756 565.166011,447.022457 566.167969,447.766602 C567.169927,448.510746 568.790028,449.16406 571.02832,449.726562 C573.723646,450.394535 575.771477,451.3789 577.171875,452.679688 C578.572273,453.980475 579.272461,455.591787 579.272461,457.513672 C579.272461,459.576182 578.431649,461.234369 576.75,462.488281 C575.068351,463.742194 572.868178,464.369141 570.149414,464.369141 C568.180654,464.369141 566.431648,464.046878 564.902344,463.402344 C563.373039,462.757809 562.127934,461.914068 561.166992,460.871094 L561.166992,456.107422 L563.768555,456.107422 L564.436523,459.78125 C565.104496,460.332034 565.901363,460.783201 566.827148,461.134766 C567.752934,461.48633 568.860345,461.662109 570.149414,461.662109 C571.895517,461.662109 573.275386,461.292972 574.289062,460.554688 C575.302739,459.816403 575.80957,458.814459 575.80957,457.548828 C575.80957,456.376947 575.370122,455.395512 574.491211,454.604492 C573.6123,453.813473 572.059581,453.14844 569.833008,452.609375 C567.125963,451.964841 565.01075,451.015631 563.487305,449.761719 C561.96386,448.507806 561.202148,446.93165 561.202148,445.033203 C561.202148,443.029287 562.051749,441.362311 563.750977,440.032227 C565.450204,438.702142 567.659166,438.037109 570.37793,438.037109 C572.170907,438.037109 573.802727,438.344723 575.273438,438.959961 C576.744148,439.575198 577.9248,440.322261 578.81543,441.201172 L578.81543,445.964844 Z" id="S" fill="#000000" fill-rule="nonzero"></path>
        <rect id="Rectangle" stroke="#000000" fill="#FFFFFF" x="0" y="660" width="60" height="60"></rect>
        <path d="M38.8154297,685.964844 L36.1962891,685.964844 L35.5458984,682.308594 C35.0185521,681.863279 34.3154341,681.494142 33.4365234,681.201172 C32.5576128,680.908202 31.5380917,680.761719 30.3779297,680.761719 C28.5380767,680.761719 27.1259815,681.151363 26.1416016,681.930664 C25.1572216,682.709965 24.6650391,683.726556 24.6650391,684.980469 C24.6650391,686.093756 25.1660106,687.022457 26.1679688,687.766602 C27.1699269,688.510746 28.7900279,689.16406 31.0283203,689.726562 C33.7236463,690.394535 35.7714774,691.3789 37.171875,692.679688 C38.5722726,693.980475 39.2724609,695.591787 39.2724609,697.513672 C39.2724609,699.576182 38.431649,701.234369 36.75,702.488281 C35.068351,703.742194 32.8681777,704.369141 30.1494141,704.369141 C28.1806542,704.369141 26.4316483,704.046878 24.9023438,703.402344 C23.3730392,702.757809 22.1279345,701.914068 21.1669922,700.871094 L21.1669922,696.107422 L23.7685547,696.107422 L24.4365234,699.78125 C25.1044955,700.332034 25.9013626,700.783201 26.8271484,701.134766 C27.7529343,701.48633 28.8603451,701.662109 30.1494141,701.662109 C31.8955165,701.662109 33.2753856,701.292972 34.2890625,700.554688 C35.3027394,699.816403 35.8095703,698.814459 35.8095703,697.548828 C35.8095703,696.376947 35.3701216,695.395512 34.4912109,694.604492 C33.6123003,693.813473 32.0595814,693.14844 29.8330078,692.609375 C27.125963,691.964841 25.0107498,691.015631 23.4873047,689.761719 C21.9638596,688.507806 21.2021484,686.93165 21.2021484,685.033203 C21.2021484,683.029287 22.0517493,681.362311 23.7509766,680.032227 C25.4502038,678.702142 27.6591661,678.037109 30.3779297,678.037109 C32.1709074,678.037109 33.802727,678.344723 35.2734375,678.959961 C36.744148,679.575198 37.9248002,680.322261 38.8154297,681.201172 L38.8154297,685.964844 Z" id="S" fill="#000000" fill-rule="nonzero"></path>
        <rect id="Rectangle" stroke="#000000" fill="#FFFFFF" x="60" y="120" width="60" height="60"></rect>
        <polygon id="T" fill="#000000" fill-rule="nonzero" points="100.634766 138.40625 100.634766 144.066406 97.6816406 144.066406 97.4179688 141.130859 91.7402344 141.130859 91.7402344 161.292969 94.6054688 161.785156 94.6054688 164 85.4121094 164 85.4121094 161.785156 88.2773438 161.292969 88.2773438 141.130859 82.5820312 141.130859 82.3359375 144.066406 79.3652344 144.066406 79.3652344 138.40625"></polygon>
        <rect id="Rectangle" stroke="#000000" fill="#FFFFFF" x="120" y="120" width="60" height="60"></rect>
        <path d="M137.783203,161.785156 L139.681641,161.521484 L148.628906,138.40625 L151.599609,138.40625 L160.388672,161.521484 L162.269531,161.785156 L162.269531,164 L154.921875,164 L154.921875,161.785156 L156.855469,161.451172 L155.167969,156.740234 L144.919922,156.740234 L143.179688,161.451172 L145.113281,161.785156 L145.113281,164 L137.783203,164 L137.783203,161.785156 Z M145.992188,153.839844 L154.113281,153.839844 L150.140625,142.853516 L150.035156,142.853516 L145.992188,153.839844 Z" id="A" fill="#000000" fill-rule="nonzero"></path>
        <rect id="Rectangle" stroke="#000000" fill="#FFFFFF" x="240" y="420" width="60" height="60"></rect>
        <path d="M257.783203,461.785156 L259.681641,461.521484 L268.628906,438.40625 L271.599609,438.40625 L280.388672,461.521484 L282.269531,461.785156 L282.269531,464 L274.921875,464 L274.921875,461.785156 L276.855469,461.451172 L275.167969,456.740234 L264.919922,456.740234 L263.179688,461.451172 L265.113281,461.785156 L265.113281,464 L257.783203,464 L257.783203,461.785156 Z M265.992188,453.839844 L274.113281,453.839844 L270.140625,442.853516 L270.035156,442.853516 L265.992188,453.839844 Z" id="A" fill="#000000" fill-rule="nonzero"></path>
        <rect id="Rectangle" stroke="#000000" fill="#FFFFFF" x="240" y="540" width="60" height="60"></rect>
        <path d="M257.783203,581.785156 L259.681641,581.521484 L268.628906,558.40625 L271.599609,558.40625 L280.388672,581.521484 L282.269531,581.785156 L282.269531,584 L274.921875,584 L274.921875,581.785156 L276.855469,581.451172 L275.167969,576.740234 L264.919922,576.740234 L263.179688,581.451172 L265.113281,581.785156 L265.113281,584 L257.783203,584 L257.783203,581.785156 Z M265.992188,573.839844 L274.113281,573.839844 L270.140625,562.853516 L270.035156,562.853516 L265.992188,573.839844 Z" id="A" fill="#000000" fill-rule="nonzero"></path>
        <rect id="Rectangle" stroke="#000000" fill="#FFFFFF" x="300" y="420" width="60" height="60"></rect>
        <path d="M331.573242,438.40625 C334.303725,438.40625 336.427727,439.109368 337.945312,440.515625 C339.462898,441.921882 340.22168,443.773426 340.22168,446.070312 C340.22168,448.390637 339.462898,450.24804 337.945312,451.642578 C336.427727,453.037116 334.303725,453.734375 331.573242,453.734375 L326.141602,453.734375 L326.141602,461.292969 L329.006836,461.785156 L329.006836,464 L319.813477,464 L319.813477,461.785156 L322.678711,461.292969 L322.678711,441.130859 L319.813477,440.638672 L319.813477,438.40625 L331.573242,438.40625 Z M326.141602,451.027344 L331.573242,451.027344 C333.307626,451.027344 334.605464,450.561528 335.466797,449.629883 C336.328129,448.698238 336.758789,447.523445 336.758789,446.105469 C336.758789,444.687493 336.328129,443.503911 335.466797,442.554688 C334.605464,441.605464 333.307626,441.130859 331.573242,441.130859 L326.141602,441.130859 L326.141602,451.027344 Z" id="P" fill="#000000" fill-rule="nonzero"></path>
        <rect id="Rectangle" stroke="#000000" fill="#FFFFFF" x="540" y="480" width="60" height="60"></rect>
        <path d="M571.573242,498.40625 C574.303725,498.40625 576.427727,499.109368 577.945312,500.515625 C579.462898,501.921882 580.22168,503.773426 580.22168,506.070312 C580.22168,508.390637 579.462898,510.24804 577.945312,511.642578 C576.427727,513.037116 574.303725,513.734375 571.573242,513.734375 L566.141602,513.734375 L566.141602,521.292969 L569.006836,521.785156 L569.006836,524 L559.813477,524 L559.813477,521.785156 L562.678711,521.292969 L562.678711,501.130859 L559.813477,500.638672 L559.813477,498.40625 L571.573242,498.40625 Z M566.141602,511.027344 L571.573242,511.027344 C573.307626,511.027344 574.605464,510.561528 575.466797,509.629883 C576.328129,508.698238 576.758789,507.523445 576.758789,506.105469 C576.758789,504.687493 576.328129,503.503911 575.466797,502.554688 C574.605464,501.605464 573.307626,501.130859 571.573242,501.130859 L566.141602,501.130859 L566.141602,511.027344 Z" id="P" fill="#000000" fill-rule="nonzero"></path>
        <rect id="Rectangle" stroke="#000000" fill="#FFFFFF" x="120" y="420" width="60" height="60"></rect>
        <polygon id="E" fill="#000000" fill-rule="nonzero" points="139.769531 464 139.769531 461.785156 142.634766 461.292969 142.634766 441.130859 139.769531 440.638672 139.769531 438.40625 159.421875 438.40625 159.421875 444.558594 156.451172 444.558594 156.169922 441.130859 146.097656 441.130859 146.097656 449.410156 155.888672 449.410156 155.888672 452.134766 146.097656 452.134766 146.097656 461.292969 156.380859 461.292969 156.662109 457.865234 159.615234 457.865234 159.615234 464"></polygon>
        <rect id="Rectangle" stroke="#000000" fill="#FFFFFF" x="120" y="540" width="60" height="60"></rect>
        <path d="M161.337891,571.396484 C161.337891,573.669933 160.91602,575.744131 160.072266,577.619141 C159.228511,579.49415 158.050789,581.005854 156.539062,582.154297 L161.724609,585.810547 L159.351562,587.919922 L153.533203,583.771484 C152.947263,583.958985 152.343753,584.105468 151.722656,584.210938 C151.101559,584.316407 150.468753,584.369141 149.824219,584.369141 C146.519515,584.369141 143.835948,583.138684 141.773438,580.677734 C139.710927,578.216785 138.679688,575.123066 138.679688,571.396484 L138.679688,571.027344 C138.679688,567.312481 139.710927,564.218762 141.773438,561.746094 C143.835948,559.273425 146.519515,558.037109 149.824219,558.037109 C153.222673,558.037109 155.9912,559.273425 158.129883,561.746094 C160.268565,564.218762 161.337891,567.312481 161.337891,571.027344 L161.337891,571.396484 Z M157.875,570.992188 C157.875,568.01561 157.163093,565.586923 155.739258,563.706055 C154.315423,561.825186 152.343763,560.884766 149.824219,560.884766 C147.410144,560.884766 145.526374,561.828116 144.172852,563.714844 C142.819329,565.601572 142.142578,568.027329 142.142578,570.992188 L142.142578,571.396484 C142.142578,574.396499 142.819329,576.836905 144.172852,578.717773 C145.526374,580.598642 147.410144,581.539062 149.824219,581.539062 C152.378919,581.539062 154.359368,580.601572 155.765625,578.726562 C157.171882,576.851553 157.875,574.408218 157.875,571.396484 L157.875,570.992188 Z" id="Q" fill="#000000" fill-rule="nonzero"></path>
        <rect id="Rectangle" stroke="#000000" fill="#FFFFFF" x="360" y="540" width="60" height="60"></rect>
        <polygon id="E" fill="#000000" fill-rule="nonzero" points="379.769531 584 379.769531 581.785156 382.634766 581.292969 382.634766 561.130859 379.769531 560.638672 379.769531 558.40625 399.421875 558.40625 399.421875 564.558594 396.451172 564.558594 396.169922 561.130859 386.097656 561.130859 386.097656 569.410156 395.888672 569.410156 395.888672 572.134766 386.097656 572.134766 386.097656 581.292969 396.380859 581.292969 396.662109 577.865234 399.615234 577.865234 399.615234 584"></polygon>
        <rect id="Rectangle" stroke="#000000" fill="#FFFFFF" x="120" y="300" width="60" height="60"></rect>
        <path d="M137.783203,341.785156 L139.681641,341.521484 L148.628906,318.40625 L151.599609,318.40625 L160.388672,341.521484 L162.269531,341.785156 L162.269531,344 L154.921875,344 L154.921875,341.785156 L156.855469,341.451172 L155.167969,336.740234 L144.919922,336.740234 L143.179688,341.451172 L145.113281,341.785156 L145.113281,344 L137.783203,344 L137.783203,341.785156 Z M145.992188,333.839844 L154.113281,333.839844 L150.140625,322.853516 L150.035156,322.853516 L145.992188,333.839844 Z" id="A" fill="#000000" fill-rule="nonzero"></path>
        <rect id="Rectangle" stroke="#000000" fill="#FFFFFF" x="480" y="600" width="60" height="60"></rect>
        <path d="M497.783203,641.785156 L499.681641,641.521484 L508.628906,618.40625 L511.599609,618.40625 L520.388672,641.521484 L522.269531,641.785156 L522.269531,644 L514.921875,644 L514.921875,641.785156 L516.855469,641.451172 L515.167969,636.740234 L504.919922,636.740234 L503.179688,641.451172 L505.113281,641.785156 L505.113281,644 L497.783203,644 L497.783203,641.785156 Z M505.992188,633.839844 L514.113281,633.839844 L510.140625,622.853516 L510.035156,622.853516 L505.992188,633.839844 Z" id="A" fill="#000000" fill-rule="nonzero"></path>
        <rect id="Rectangle" stroke="#000000" fill="#FFFFFF" x="60" y="300" width="60" height="60"></rect>
        <polygon id="I" fill="#000000" fill-rule="nonzero" points="85.4121094 320.638672 85.4121094 318.40625 94.6054688 318.40625 94.6054688 320.638672 91.7402344 321.130859 91.7402344 341.292969 94.6054688 341.785156 94.6054688 344 85.4121094 344 85.4121094 341.785156 88.2773438 341.292969 88.2773438 321.130859"></polygon>
        <rect id="Rectangle" stroke="#000000" fill="#FFFFFF" x="600" y="600" width="60" height="60"></rect>
        <polygon id="I" fill="#000000" fill-rule="nonzero" points="625.412109 620.638672 625.412109 618.40625 634.605469 618.40625 634.605469 620.638672 631.740234 621.130859 631.740234 641.292969 634.605469 641.785156 634.605469 644 625.412109 644 625.412109 641.785156 628.277344 641.292969 628.277344 621.130859"></polygon>
        <rect id="Rectangle" stroke="#000000" fill="#FFFFFF" x="60" y="660" width="60" height="60"></rect>
        <polygon id="I" fill="#000000" fill-rule="nonzero" points="85.4121094 680.638672 85.4121094 678.40625 94.6054688 678.40625 94.6054688 680.638672 91.7402344 681.130859 91.7402344 701.292969 94.6054688 701.785156 94.6054688 704 85.4121094 704 85.4121094 701.785156 88.2773438 701.292969 88.2773438 681.130859"></polygon>
        <rect id="Rectangle" stroke="#000000" fill="#FFFFFF" x="240" y="660" width="60" height="60"></rect>
        <polygon id="I" fill="#000000" fill-rule="nonzero" points="265.412109 680.638672 265.412109 678.40625 274.605469 678.40625 274.605469 680.638672 271.740234 681.130859 271.740234 701.292969 274.605469 701.785156 274.605469 704 265.412109 704 265.412109 701.785156 268.277344 701.292969 268.277344 681.130859"></polygon>
        <rect id="Rectangle" stroke="#000000" fill="#FFFFFF" x="120" y="660" width="60" height="60"></rect>
        <polygon id="M" fill="#000000" fill-rule="nonzero" points="159.518555 683.503906 159.430664 683.486328 151.151367 704 148.848633 704 140.569336 683.503906 140.481445 683.521484 140.833008 693.875 140.833008 701.292969 143.698242 701.785156 143.698242 704 134.504883 704 134.504883 701.785156 137.370117 701.292969 137.370117 681.130859 134.504883 680.638672 134.504883 678.40625 141.799805 678.40625 149.956055 699.201172 150.061523 699.201172 158.200195 678.40625 165.512695 678.40625 165.512695 680.638672 162.647461 681.130859 162.647461 701.292969 165.512695 701.785156 165.512695 704 156.319336 704 156.319336 701.785156 159.18457 701.292969 159.18457 693.875"></polygon>
        <rect id="Rectangle" stroke="#000000" fill="#FFFFFF" x="0" y="540" width="60" height="60"></rect>
        <polygon id="I" fill="#000000" fill-rule="nonzero" points="25.4121094 560.638672 25.4121094 558.40625 34.6054688 558.40625 34.6054688 560.638672 31.7402344 561.130859 31.7402344 581.292969 34.6054688 581.785156 34.6054688 584 25.4121094 584 25.4121094 581.785156 28.2773438 581.292969 28.2773438 561.130859"></polygon>
        <rect id="Rectangle" stroke="#000000" fill="#FFFFFF" x="0" y="300" width="60" height="60"></rect>
        <path d="M39.4306641,341.099609 C38.6806603,341.88477 37.5732495,342.625973 36.1083984,343.323242 C34.6435474,344.020511 32.7392695,344.369141 30.3955078,344.369141 C26.9736157,344.369141 24.1816514,343.167981 22.0195312,340.765625 C19.8574111,338.363269 18.7763672,335.246113 18.7763672,331.414062 L18.7763672,330.992188 C18.7763672,327.136699 19.8456924,324.013684 21.984375,321.623047 C24.1230576,319.23241 26.9677557,318.037109 30.5185547,318.037109 C32.4170017,318.037109 34.0839772,318.333005 35.5195312,318.924805 C36.9550853,319.516605 38.1650341,320.298823 39.1494141,321.271484 L39.1494141,325.912109 L36.7236328,325.912109 L35.8798828,322.378906 C35.3056612,321.910154 34.6113322,321.523439 33.796875,321.21875 C32.9824178,320.914061 32.0068416,320.761719 30.8701172,320.761719 C28.1044784,320.761719 25.9746168,321.707998 24.4804688,323.600586 C22.9863207,325.493174 22.2392578,327.945297 22.2392578,330.957031 L22.2392578,331.414062 C22.2392578,334.472672 22.9628834,336.945303 24.4101562,338.832031 C25.8574291,340.718759 27.8525263,341.662109 30.3955078,341.662109 C31.790046,341.662109 32.9326127,341.515626 33.8232422,341.222656 C34.7138716,340.929686 35.4287082,340.607424 35.9677734,340.255859 L35.9677734,334.648438 L31.7666016,334.472656 L31.7666016,331.923828 L39.4306641,331.923828 L39.4306641,341.099609 Z" id="G" fill="#000000" fill-rule="nonzero"></path>
        <rect id="Rectangle" stroke="#000000" fill="#FFFFFF" x="300" y="0" width="60" height="60"></rect>
        <path d="M317.783203,41.7851562 L319.681641,41.5214844 L328.628906,18.40625 L331.599609,18.40625 L340.388672,41.5214844 L342.269531,41.7851562 L342.269531,44 L334.921875,44 L334.921875,41.7851562 L336.855469,41.4511719 L335.167969,36.7402344 L324.919922,36.7402344 L323.179688,41.4511719 L325.113281,41.7851562 L325.113281,44 L317.783203,44 L317.783203,41.7851562 Z M325.992188,33.8398438 L334.113281,33.8398438 L330.140625,22.8535156 L330.035156,22.8535156 L325.992188,33.8398438 Z" id="A" fill="#000000" fill-rule="nonzero"></path>
        <rect id="Rectangle" stroke="#000000" fill="#FFFFFF" x="540" y="0" width="60" height="60"></rect>
        <path d="M557.783203,41.7851562 L559.681641,41.5214844 L568.628906,18.40625 L571.599609,18.40625 L580.388672,41.5214844 L582.269531,41.7851562 L582.269531,44 L574.921875,44 L574.921875,41.7851562 L576.855469,41.4511719 L575.167969,36.7402344 L564.919922,36.7402344 L563.179688,41.4511719 L565.113281,41.7851562 L565.113281,44 L557.783203,44 L557.783203,41.7851562 Z M565.992188,33.8398438 L574.113281,33.8398438 L570.140625,22.8535156 L570.035156,22.8535156 L565.992188,33.8398438 Z" id="A" fill="#000000" fill-rule="nonzero"></path>
        <rect id="Rectangle" stroke="#000000" fill="#FFFFFF" x="600" y="60" width="60" height="60"></rect>
        <path d="M617.783203,101.785156 L619.681641,101.521484 L628.628906,78.40625 L631.599609,78.40625 L640.388672,101.521484 L642.269531,101.785156 L642.269531,104 L634.921875,104 L634.921875,101.785156 L636.855469,101.451172 L635.167969,96.7402344 L624.919922,96.7402344 L623.179688,101.451172 L625.113281,101.785156 L625.113281,104 L617.783203,104 L617.783203,101.785156 Z M625.992188,93.8398438 L634.113281,93.8398438 L630.140625,82.8535156 L630.035156,82.8535156 L625.992188,93.8398438 Z" id="A" fill="#000000" fill-rule="nonzero"></path>
        <rect id="Rectangle" stroke="#000000" fill="#FFFFFF" x="120" y="180" width="60" height="60"></rect>
        <polygon id="W" fill="#000000" fill-rule="nonzero" points="141.808594 200.638672 139.207031 201.042969 142.494141 215.140625 142.96875 218.339844 143.074219 218.357422 143.759766 215.140625 148.470703 198.40625 151.529297 198.40625 156.257812 215.140625 156.960938 218.427734 157.066406 218.427734 157.576172 215.140625 160.792969 201.042969 158.173828 200.638672 158.173828 198.40625 166.3125 198.40625 166.3125 200.638672 164.255859 200.902344 158.683594 224 155.589844 224 150.527344 206.246094 150.070312 203.943359 149.964844 203.943359 149.525391 206.246094 144.392578 224 141.316406 224 135.744141 200.902344 133.6875 200.638672 133.6875 198.40625 141.808594 198.40625"></polygon>
        <rect id="Rectangle" stroke="#000000" fill="#FFFFFF" x="240" y="0" width="60" height="60"></rect>
        <polygon id="W" fill="#000000" fill-rule="nonzero" points="261.808594 20.6386719 259.207031 21.0429688 262.494141 35.140625 262.96875 38.3398438 263.074219 38.3574219 263.759766 35.140625 268.470703 18.40625 271.529297 18.40625 276.257812 35.140625 276.960938 38.4277344 277.066406 38.4277344 277.576172 35.140625 280.792969 21.0429688 278.173828 20.6386719 278.173828 18.40625 286.3125 18.40625 286.3125 20.6386719 284.255859 20.9023438 278.683594 44 275.589844 44 270.527344 26.2460938 270.070312 23.9433594 269.964844 23.9433594 269.525391 26.2460938 264.392578 44 261.316406 44 255.744141 20.9023438 253.6875 20.6386719 253.6875 18.40625 261.808594 18.40625"></polygon>
        <rect id="Rectangle" stroke="#000000" fill="#FFFFFF" x="120" y="60" width="60" height="60"></rect>
        <polygon id="L" fill="#000000" fill-rule="nonzero" points="140.709961 104 140.709961 101.785156 143.575195 101.292969 143.575195 81.1308594 140.709961 80.6386719 140.709961 78.40625 149.90332 78.40625 149.90332 80.6386719 147.038086 81.1308594 147.038086 101.292969 155.932617 101.292969 156.196289 98.3574219 159.149414 98.3574219 159.149414 104"></polygon>
        <rect id="Rectangle" stroke="#000000" fill="#FFFFFF" x="0" y="480" width="60" height="60"></rect>
        <polygon id="L" fill="#000000" fill-rule="nonzero" points="20.7099609 524 20.7099609 521.785156 23.5751953 521.292969 23.5751953 501.130859 20.7099609 500.638672 20.7099609 498.40625 29.9033203 498.40625 29.9033203 500.638672 27.0380859 501.130859 27.0380859 521.292969 35.9326172 521.292969 36.1962891 518.357422 39.1494141 518.357422 39.1494141 524"></polygon>
        <rect id="Rectangle" stroke="#000000" fill="#FFFFFF" x="120" y="0" width="60" height="60"></rect>
        <path d="M159.483398,26.2636719 L157.040039,26.2636719 L156.389648,22.6425781 C155.827146,22.0917941 155.135746,21.6406268 154.31543,21.2890625 C153.495113,20.9374982 152.516607,20.7617188 151.379883,20.7617188 C148.719713,20.7617188 146.674812,21.7255763 145.245117,23.6533203 C143.815423,25.5810643 143.100586,28.0273289 143.100586,30.9921875 L143.100586,31.3964844 C143.100586,34.3613429 143.800774,36.8134669 145.201172,38.7529297 C146.60157,40.6923925 148.543933,41.6621094 151.02832,41.6621094 C152.188482,41.6621094 153.243159,41.4804706 154.192383,41.1171875 C155.141606,40.7539044 155.874021,40.3085964 156.389648,39.78125 L157.040039,36.1601562 L159.483398,36.1601562 L159.483398,40.7128906 C158.745113,41.6621141 157.637703,42.5087853 156.161133,43.2529297 C154.684563,43.997074 152.973643,44.3691406 151.02832,44.3691406 C147.700179,44.3691406 144.969737,43.1386842 142.836914,40.6777344 C140.704091,38.2167846 139.637695,35.1230655 139.637695,31.3964844 L139.637695,31.0273438 C139.637695,27.277325 140.686513,24.174817 142.78418,21.7197266 C144.881846,19.2646362 147.629866,18.0371094 151.02832,18.0371094 C152.973643,18.0371094 154.684563,18.4150353 156.161133,19.1708984 C157.637703,19.9267616 158.745113,20.7734328 159.483398,21.7109375 L159.483398,26.2636719 Z" id="C" fill="#000000" fill-rule="nonzero"></path>
        <rect id="Rectangle" stroke="#000000" fill="#FFFFFF" x="180" y="660" width="60" height="60"></rect>
        <path d="M219.483398,686.263672 L217.040039,686.263672 L216.389648,682.642578 C215.827146,682.091794 215.135746,681.640627 214.31543,681.289062 C213.495113,680.937498 212.516607,680.761719 211.379883,680.761719 C208.719713,680.761719 206.674812,681.725576 205.245117,683.65332 C203.815423,685.581064 203.100586,688.027329 203.100586,690.992188 L203.100586,691.396484 C203.100586,694.361343 203.800774,696.813467 205.201172,698.75293 C206.60157,700.692393 208.543933,701.662109 211.02832,701.662109 C212.188482,701.662109 213.243159,701.480471 214.192383,701.117188 C215.141606,700.753904 215.874021,700.308596 216.389648,699.78125 L217.040039,696.160156 L219.483398,696.160156 L219.483398,700.712891 C218.745113,701.662114 217.637703,702.508785 216.161133,703.25293 C214.684563,703.997074 212.973643,704.369141 211.02832,704.369141 C207.700179,704.369141 204.969737,703.138684 202.836914,700.677734 C200.704091,698.216785 199.637695,695.123066 199.637695,691.396484 L199.637695,691.027344 C199.637695,687.277325 200.686513,684.174817 202.78418,681.719727 C204.881846,679.264636 207.629866,678.037109 211.02832,678.037109 C212.973643,678.037109 214.684563,678.415035 216.161133,679.170898 C217.637703,679.926762 218.745113,680.773433 219.483398,681.710938 L219.483398,686.263672 Z" id="C" fill="#000000" fill-rule="nonzero"></path>
        <rect id="Rectangle" stroke="#000000" fill="#FFFFFF" x="180" y="120" width="60" height="60"></rect>
        <path d="M210.298828,138.423828 C213.087905,138.423828 215.226555,139.041986 216.714844,140.27832 C218.203132,141.514655 218.947266,143.26952 218.947266,145.542969 C218.947266,146.785162 218.601566,147.886714 217.910156,148.847656 C217.218747,149.808599 216.228522,150.56445 214.939453,151.115234 C216.333991,151.572268 217.338864,152.316401 217.954102,153.347656 C218.569339,154.378911 218.876953,155.650383 218.876953,157.162109 L218.876953,159.21875 C218.876953,160.00391 218.976562,160.583982 219.175781,160.958984 C219.375001,161.333986 219.703123,161.55664 220.160156,161.626953 L221.003906,161.732422 L221.003906,164 L219.140625,164 C217.792962,164 216.834964,163.531255 216.266602,162.59375 C215.698239,161.656245 215.414062,160.519538 215.414062,159.183594 L215.414062,157.197266 C215.414062,155.802727 215.00977,154.683598 214.201172,153.839844 C213.392574,152.99609 212.308601,152.574219 210.949219,152.574219 L205.394531,152.574219 L205.394531,161.292969 L208.259766,161.785156 L208.259766,164 L199.066406,164 L199.066406,161.785156 L201.931641,161.292969 L201.931641,141.130859 L199.066406,140.638672 L199.066406,138.423828 L210.298828,138.423828 Z M205.394531,149.849609 L209.947266,149.849609 C211.880869,149.849609 213.287105,149.480472 214.166016,148.742188 C215.044926,148.003903 215.484375,146.925788 215.484375,145.507812 C215.484375,144.16015 215.062504,143.093754 214.21875,142.308594 C213.374996,141.523434 212.068368,141.130859 210.298828,141.130859 L205.394531,141.130859 L205.394531,149.849609 Z" id="R" fill="#000000" fill-rule="nonzero"></path>
        <rect id="Rectangle" stroke="#000000" fill="#FFFFFF" x="360" y="0" width="60" height="60"></rect>
        <path d="M390.298828,18.4238281 C393.087905,18.4238281 395.226555,19.041986 396.714844,20.2783203 C398.203132,21.5146546 398.947266,23.2695199 398.947266,25.5429688 C398.947266,26.7851625 398.601566,27.8867139 397.910156,28.8476562 C397.218747,29.8085986 396.228522,30.5644504 394.939453,31.1152344 C396.333991,31.5722679 397.338864,32.3164011 397.954102,33.3476562 C398.569339,34.3789114 398.876953,35.6503831 398.876953,37.1621094 L398.876953,39.21875 C398.876953,40.0039102 398.976562,40.5839825 399.175781,40.9589844 C399.375001,41.3339863 399.703123,41.5566403 400.160156,41.6269531 L401.003906,41.7324219 L401.003906,44 L399.140625,44 C397.792962,44 396.834964,43.5312547 396.266602,42.59375 C395.698239,41.6562453 395.414062,40.5195379 395.414062,39.1835938 L395.414062,37.1972656 C395.414062,35.8027274 395.00977,34.683598 394.201172,33.8398438 C393.392574,32.9960895 392.308601,32.5742188 390.949219,32.5742188 L385.394531,32.5742188 L385.394531,41.2929688 L388.259766,41.7851562 L388.259766,44 L379.066406,44 L379.066406,41.7851562 L381.931641,41.2929688 L381.931641,21.1308594 L379.066406,20.6386719 L379.066406,18.4238281 L390.298828,18.4238281 Z M385.394531,29.8496094 L389.947266,29.8496094 C391.880869,29.8496094 393.287105,29.4804724 394.166016,28.7421875 C395.044926,28.0039026 395.484375,26.9257883 395.484375,25.5078125 C395.484375,24.1601495 395.062504,23.0937539 394.21875,22.3085938 C393.374996,21.5234336 392.068368,21.1308594 390.298828,21.1308594 L385.394531,21.1308594 L385.394531,29.8496094 Z" id="R" fill="#000000" fill-rule="nonzero"></path>
        <rect id="Rectangle" stroke="#000000" fill="#FFFFFF" x="480" y="0" width="60" height="60"></rect>
        <path d="M510.298828,18.4238281 C513.087905,18.4238281 515.226555,19.041986 516.714844,20.2783203 C518.203132,21.5146546 518.947266,23.2695199 518.947266,25.5429688 C518.947266,26.7851625 518.601566,27.8867139 517.910156,28.8476562 C517.218747,29.8085986 516.228522,30.5644504 514.939453,31.1152344 C516.333991,31.5722679 517.338864,32.3164011 517.954102,33.3476562 C518.569339,34.3789114 518.876953,35.6503831 518.876953,37.1621094 L518.876953,39.21875 C518.876953,40.0039102 518.976562,40.5839825 519.175781,40.9589844 C519.375001,41.3339863 519.703123,41.5566403 520.160156,41.6269531 L521.003906,41.7324219 L521.003906,44 L519.140625,44 C517.792962,44 516.834964,43.5312547 516.266602,42.59375 C515.698239,41.6562453 515.414062,40.5195379 515.414062,39.1835938 L515.414062,37.1972656 C515.414062,35.8027274 515.00977,34.683598 514.201172,33.8398438 C513.392574,32.9960895 512.308601,32.5742188 510.949219,32.5742188 L505.394531,32.5742188 L505.394531,41.2929688 L508.259766,41.7851562 L508.259766,44 L499.066406,44 L499.066406,41.7851562 L501.931641,41.2929688 L501.931641,21.1308594 L499.066406,20.6386719 L499.066406,18.4238281 L510.298828,18.4238281 Z M505.394531,29.8496094 L509.947266,29.8496094 C511.880869,29.8496094 513.287105,29.4804724 514.166016,28.7421875 C515.044926,28.0039026 515.484375,26.9257883 515.484375,25.5078125 C515.484375,24.1601495 515.062504,23.0937539 514.21875,22.3085938 C513.374996,21.5234336 512.068368,21.1308594 510.298828,21.1308594 L505.394531,21.1308594 L505.394531,29.8496094 Z" id="R" fill="#000000" fill-rule="nonzero"></path>
        <rect id="Rectangle" stroke="#000000" fill="#FFFFFF" x="240" y="120" width="60" height="60"></rect>
        <path d="M279.483398,146.263672 L277.040039,146.263672 L276.389648,142.642578 C275.827146,142.091794 275.135746,141.640627 274.31543,141.289062 C273.495113,140.937498 272.516607,140.761719 271.379883,140.761719 C268.719713,140.761719 266.674812,141.725576 265.245117,143.65332 C263.815423,145.581064 263.100586,148.027329 263.100586,150.992188 L263.100586,151.396484 C263.100586,154.361343 263.800774,156.813467 265.201172,158.75293 C266.60157,160.692393 268.543933,161.662109 271.02832,161.662109 C272.188482,161.662109 273.243159,161.480471 274.192383,161.117188 C275.141606,160.753904 275.874021,160.308596 276.389648,159.78125 L277.040039,156.160156 L279.483398,156.160156 L279.483398,160.712891 C278.745113,161.662114 277.637703,162.508785 276.161133,163.25293 C274.684563,163.997074 272.973643,164.369141 271.02832,164.369141 C267.700179,164.369141 264.969737,163.138684 262.836914,160.677734 C260.704091,158.216785 259.637695,155.123066 259.637695,151.396484 L259.637695,151.027344 C259.637695,147.277325 260.686513,144.174817 262.78418,141.719727 C264.881846,139.264636 267.629866,138.037109 271.02832,138.037109 C272.973643,138.037109 274.684563,138.415035 276.161133,139.170898 C277.637703,139.926762 278.745113,140.773433 279.483398,141.710938 L279.483398,146.263672 Z" id="C" fill="#000000" fill-rule="nonzero"></path>
        <rect id="Rectangle" stroke="#000000" fill="#FFFFFF" x="420" y="0" width="60" height="60"></rect>
        <path d="M459.483398,26.2636719 L457.040039,26.2636719 L456.389648,22.6425781 C455.827146,22.0917941 455.135746,21.6406268 454.31543,21.2890625 C453.495113,20.9374982 452.516607,20.7617188 451.379883,20.7617188 C448.719713,20.7617188 446.674812,21.7255763 445.245117,23.6533203 C443.815423,25.5810643 443.100586,28.0273289 443.100586,30.9921875 L443.100586,31.3964844 C443.100586,34.3613429 443.800774,36.8134669 445.201172,38.7529297 C446.60157,40.6923925 448.543933,41.6621094 451.02832,41.6621094 C452.188482,41.6621094 453.243159,41.4804706 454.192383,41.1171875 C455.141606,40.7539044 455.874021,40.3085964 456.389648,39.78125 L457.040039,36.1601562 L459.483398,36.1601562 L459.483398,40.7128906 C458.745113,41.6621141 457.637703,42.5087853 456.161133,43.2529297 C454.684563,43.997074 452.973643,44.3691406 451.02832,44.3691406 C447.700179,44.3691406 444.969737,43.1386842 442.836914,40.6777344 C440.704091,38.2167846 439.637695,35.1230655 439.637695,31.3964844 L439.637695,31.0273438 C439.637695,27.277325 440.686513,24.174817 442.78418,21.7197266 C444.881846,19.2646362 447.629866,18.0371094 451.02832,18.0371094 C452.973643,18.0371094 454.684563,18.4150353 456.161133,19.1708984 C457.637703,19.9267616 458.745113,20.7734328 459.483398,21.7109375 L459.483398,26.2636719 Z" id="C" fill="#000000" fill-rule="nonzero"></path>
        <rect id="Rectangle" stroke="#000000" fill="#FFFFFF" x="300" y="120" width="60" height="60"></rect>
        <path d="M341.34668,151.396484 C341.34668,155.123066 340.277354,158.216785 338.138672,160.677734 C335.999989,163.138684 333.231462,164.369141 329.833008,164.369141 C326.528304,164.369141 323.844737,163.138684 321.782227,160.677734 C319.719716,158.216785 318.688477,155.123066 318.688477,151.396484 L318.688477,151.027344 C318.688477,147.312481 319.719716,144.218762 321.782227,141.746094 C323.844737,139.273425 326.528304,138.037109 329.833008,138.037109 C333.231462,138.037109 335.999989,139.273425 338.138672,141.746094 C340.277354,144.218762 341.34668,147.312481 341.34668,151.027344 L341.34668,151.396484 Z M337.883789,150.992188 C337.883789,148.01561 337.171882,145.586923 335.748047,143.706055 C334.324212,141.825186 332.352552,140.884766 329.833008,140.884766 C327.418933,140.884766 325.535163,141.828116 324.181641,143.714844 C322.828118,145.601572 322.151367,148.027329 322.151367,150.992188 L322.151367,151.396484 C322.151367,154.396499 322.828118,156.836905 324.181641,158.717773 C325.535163,160.598642 327.418933,161.539062 329.833008,161.539062 C332.387708,161.539062 334.368157,160.601572 335.774414,158.726562 C337.180671,156.851553 337.883789,154.408218 337.883789,151.396484 L337.883789,150.992188 Z" id="O" fill="#000000" fill-rule="nonzero"></path>
        <rect id="Rectangle" stroke="#000000" fill="#FFFFFF" x="360" y="180" width="60" height="60"></rect>
        <path d="M401.34668,211.396484 C401.34668,215.123066 400.277354,218.216785 398.138672,220.677734 C395.999989,223.138684 393.231462,224.369141 389.833008,224.369141 C386.528304,224.369141 383.844737,223.138684 381.782227,220.677734 C379.719716,218.216785 378.688477,215.123066 378.688477,211.396484 L378.688477,211.027344 C378.688477,207.312481 379.719716,204.218762 381.782227,201.746094 C383.844737,199.273425 386.528304,198.037109 389.833008,198.037109 C393.231462,198.037109 395.999989,199.273425 398.138672,201.746094 C400.277354,204.218762 401.34668,207.312481 401.34668,211.027344 L401.34668,211.396484 Z M397.883789,210.992188 C397.883789,208.01561 397.171882,205.586923 395.748047,203.706055 C394.324212,201.825186 392.352552,200.884766 389.833008,200.884766 C387.418933,200.884766 385.535163,201.828116 384.181641,203.714844 C382.828118,205.601572 382.151367,208.027329 382.151367,210.992188 L382.151367,211.396484 C382.151367,214.396499 382.828118,216.836905 384.181641,218.717773 C385.535163,220.598642 387.418933,221.539062 389.833008,221.539062 C392.387708,221.539062 394.368157,220.601572 395.774414,218.726562 C397.180671,216.851553 397.883789,214.408218 397.883789,211.396484 L397.883789,210.992188 Z" id="O" fill="#000000" fill-rule="nonzero"></path>
        <rect id="Rectangle" stroke="#000000" fill="#FFFFFF" x="480" y="300" width="60" height="60"></rect>
        <path d="M521.34668,331.396484 C521.34668,335.123066 520.277354,338.216785 518.138672,340.677734 C515.999989,343.138684 513.231462,344.369141 509.833008,344.369141 C506.528304,344.369141 503.844737,343.138684 501.782227,340.677734 C499.719716,338.216785 498.688477,335.123066 498.688477,331.396484 L498.688477,331.027344 C498.688477,327.312481 499.719716,324.218762 501.782227,321.746094 C503.844737,319.273425 506.528304,318.037109 509.833008,318.037109 C513.231462,318.037109 515.999989,319.273425 518.138672,321.746094 C520.277354,324.218762 521.34668,327.312481 521.34668,331.027344 L521.34668,331.396484 Z M517.883789,330.992188 C517.883789,328.01561 517.171882,325.586923 515.748047,323.706055 C514.324212,321.825186 512.352552,320.884766 509.833008,320.884766 C507.418933,320.884766 505.535163,321.828116 504.181641,323.714844 C502.828118,325.601572 502.151367,328.027329 502.151367,330.992188 L502.151367,331.396484 C502.151367,334.396499 502.828118,336.836905 504.181641,338.717773 C505.535163,340.598642 507.418933,341.539062 509.833008,341.539062 C512.387708,341.539062 514.368157,340.601572 515.774414,338.726562 C517.180671,336.851553 517.883789,334.408218 517.883789,331.396484 L517.883789,330.992188 Z" id="O" fill="#000000" fill-rule="nonzero"></path>
        <rect id="Rectangle" stroke="#000000" fill="#FFFFFF" x="480" y="240" width="60" height="60"></rect>
        <polygon id="Z" fill="#000000" fill-rule="nonzero" points="504.779297 281.292969 515.871094 281.292969 516.152344 278.357422 519.105469 278.357422 519.105469 284 500.894531 284 500.894531 281.433594 514.552734 261.130859 504.287109 261.130859 504.041016 264.066406 501.070312 264.066406 501.070312 258.40625 518.525391 258.40625 518.525391 260.884766"></polygon>
        <rect id="Rectangle" stroke="#000000" fill="#FFFFFF" x="360" y="240" width="60" height="60"></rect>
        <polygon id="X" fill="#000000" fill-rule="nonzero" points="378.416016 281.785156 380.71875 281.398438 387.996094 271.097656 380.894531 261.025391 378.591797 260.638672 378.591797 258.40625 386.888672 258.40625 386.888672 260.638672 384.832031 260.867188 389.947266 268.548828 395.115234 260.867188 393.058594 260.638672 393.058594 258.40625 401.408203 258.40625 401.408203 260.638672 399.105469 261.025391 392.003906 271.097656 399.263672 281.398438 401.583984 281.785156 401.583984 284 393.304688 284 393.304688 281.785156 395.326172 281.556641 390.017578 273.681641 384.691406 281.556641 386.748047 281.785156 386.748047 284 378.416016 284"></polygon>
        <rect id="Rectangle" stroke="#000000" fill="#FFFFFF" x="180" y="420" width="60" height="60"></rect>
        <polygon id="X" fill="#000000" fill-rule="nonzero" points="198.416016 461.785156 200.71875 461.398438 207.996094 451.097656 200.894531 441.025391 198.591797 440.638672 198.591797 438.40625 206.888672 438.40625 206.888672 440.638672 204.832031 440.867188 209.947266 448.548828 215.115234 440.867188 213.058594 440.638672 213.058594 438.40625 221.408203 438.40625 221.408203 440.638672 219.105469 441.025391 212.003906 451.097656 219.263672 461.398438 221.583984 461.785156 221.583984 464 213.304688 464 213.304688 461.785156 215.326172 461.556641 210.017578 453.681641 204.691406 461.556641 206.748047 461.785156 206.748047 464 198.416016 464"></polygon>
        <rect id="Rectangle" stroke="#000000" fill="#FFFFFF" x="240" y="180" width="60" height="60"></rect>
        <path d="M281.34668,211.396484 C281.34668,215.123066 280.277354,218.216785 278.138672,220.677734 C275.999989,223.138684 273.231462,224.369141 269.833008,224.369141 C266.528304,224.369141 263.844737,223.138684 261.782227,220.677734 C259.719716,218.216785 258.688477,215.123066 258.688477,211.396484 L258.688477,211.027344 C258.688477,207.312481 259.719716,204.218762 261.782227,201.746094 C263.844737,199.273425 266.528304,198.037109 269.833008,198.037109 C273.231462,198.037109 275.999989,199.273425 278.138672,201.746094 C280.277354,204.218762 281.34668,207.312481 281.34668,211.027344 L281.34668,211.396484 Z M277.883789,210.992188 C277.883789,208.01561 277.171882,205.586923 275.748047,203.706055 C274.324212,201.825186 272.352552,200.884766 269.833008,200.884766 C267.418933,200.884766 265.535163,201.828116 264.181641,203.714844 C262.828118,205.601572 262.151367,208.027329 262.151367,210.992188 L262.151367,211.396484 C262.151367,214.396499 262.828118,216.836905 264.181641,218.717773 C265.535163,220.598642 267.418933,221.539062 269.833008,221.539062 C272.387708,221.539062 274.368157,220.601572 275.774414,218.726562 C277.180671,216.851553 277.883789,214.408218 277.883789,211.396484 L277.883789,210.992188 Z" id="O" fill="#000000" fill-rule="nonzero"></path>
        <rect id="Rectangle" stroke="#000000" fill="#FFFFFF" x="0" y="360" width="60" height="60"></rect>
        <path d="M41.3466797,391.396484 C41.3466797,395.123066 40.2773544,398.216785 38.1386719,400.677734 C35.9999893,403.138684 33.2314623,404.369141 29.8330078,404.369141 C26.5283038,404.369141 23.8447369,403.138684 21.7822266,400.677734 C19.7197163,398.216785 18.6884766,395.123066 18.6884766,391.396484 L18.6884766,391.027344 C18.6884766,387.312481 19.7197163,384.218762 21.7822266,381.746094 C23.8447369,379.273425 26.5283038,378.037109 29.8330078,378.037109 C33.2314623,378.037109 35.9999893,379.273425 38.1386719,381.746094 C40.2773544,384.218762 41.3466797,387.312481 41.3466797,391.027344 L41.3466797,391.396484 Z M37.8837891,390.992188 C37.8837891,388.01561 37.1718821,385.586923 35.7480469,383.706055 C34.3242116,381.825186 32.3525517,380.884766 29.8330078,380.884766 C27.4189332,380.884766 25.535163,381.828116 24.1816406,383.714844 C22.8281182,385.601572 22.1513672,388.027329 22.1513672,390.992188 L22.1513672,391.396484 C22.1513672,394.396499 22.8281182,396.836905 24.1816406,398.717773 C25.535163,400.598642 27.4189332,401.539062 29.8330078,401.539062 C32.3877081,401.539062 34.368157,400.601572 35.7744141,398.726562 C37.1806711,396.851553 37.8837891,394.408218 37.8837891,391.396484 L37.8837891,390.992188 Z" id="O" fill="#000000" fill-rule="nonzero"></path>
        <rect id="Rectangle" stroke="#000000" fill="#FFFFFF" x="0" y="420" width="60" height="60"></rect>
        <path d="M30.6416016,438.40625 C33.3134899,438.40625 35.4023362,438.983393 36.9082031,440.137695 C38.41407,441.291998 39.1669922,443.023426 39.1669922,445.332031 C39.1669922,446.468756 38.8066442,447.485347 38.0859375,448.381836 C37.3652308,449.278325 36.4130919,449.943357 35.2294922,450.376953 C36.7646561,450.70508 37.9775346,451.460932 38.8681641,452.644531 C39.7587935,453.828131 40.2041016,455.20507 40.2041016,456.775391 C40.2041016,459.119152 39.4423904,460.909174 37.9189453,462.145508 C36.3955002,463.381842 34.3330208,464 31.7314453,464 L19.4267578,464 L19.4267578,461.785156 L22.2919922,461.292969 L22.2919922,441.130859 L19.4267578,440.638672 L19.4267578,438.40625 L30.6416016,438.40625 Z M25.7548828,451.994141 L25.7548828,461.292969 L31.7314453,461.292969 C33.3134845,461.292969 34.5410113,460.903324 35.4140625,460.124023 C36.2871137,459.344723 36.7236328,458.240242 36.7236328,456.810547 C36.7236328,455.310539 36.3574255,454.132817 35.625,453.277344 C34.8925745,452.421871 33.7705154,451.994141 32.2587891,451.994141 L25.7548828,451.994141 Z M25.7548828,449.287109 L31.5380859,449.287109 C32.7802796,449.251953 33.7851524,448.882816 34.5527344,448.179688 C35.3203163,447.476559 35.7041016,446.503912 35.7041016,445.261719 C35.7041016,443.878899 35.2705121,442.84473 34.4033203,442.15918 C33.5361285,441.473629 32.2822348,441.130859 30.6416016,441.130859 L25.7548828,441.130859 L25.7548828,449.287109 Z" id="B" fill="#000000" fill-rule="nonzero"></path>
        <rect id="Rectangle" stroke="#000000" fill="#FFFFFF" x="660" y="420" width="60" height="60"></rect>
        <path d="M690.641602,438.40625 C693.31349,438.40625 695.402336,438.983393 696.908203,440.137695 C698.41407,441.291998 699.166992,443.023426 699.166992,445.332031 C699.166992,446.468756 698.806644,447.485347 698.085938,448.381836 C697.365231,449.278325 696.413092,449.943357 695.229492,450.376953 C696.764656,450.70508 697.977535,451.460932 698.868164,452.644531 C699.758794,453.828131 700.204102,455.20507 700.204102,456.775391 C700.204102,459.119152 699.44239,460.909174 697.918945,462.145508 C696.3955,463.381842 694.333021,464 691.731445,464 L679.426758,464 L679.426758,461.785156 L682.291992,461.292969 L682.291992,441.130859 L679.426758,440.638672 L679.426758,438.40625 L690.641602,438.40625 Z M685.754883,451.994141 L685.754883,461.292969 L691.731445,461.292969 C693.313484,461.292969 694.541011,460.903324 695.414062,460.124023 C696.287114,459.344723 696.723633,458.240242 696.723633,456.810547 C696.723633,455.310539 696.357426,454.132817 695.625,453.277344 C694.892574,452.421871 693.770515,451.994141 692.258789,451.994141 L685.754883,451.994141 Z M685.754883,449.287109 L691.538086,449.287109 C692.78028,449.251953 693.785152,448.882816 694.552734,448.179688 C695.320316,447.476559 695.704102,446.503912 695.704102,445.261719 C695.704102,443.878899 695.270512,442.84473 694.40332,442.15918 C693.536128,441.473629 692.282235,441.130859 690.641602,441.130859 L685.754883,441.130859 L685.754883,449.287109 Z" id="B" fill="#000000" fill-rule="nonzero"></path>
        <rect id="Rectangle" stroke="#000000" fill="#FFFFFF" x="360" y="120" width="60" height="60"></rect>
        <polygon id="N" fill="#000000" fill-rule="nonzero" points="402.603516 138.40625 402.603516 140.638672 399.738281 141.130859 399.738281 164 396.275391 164 383.970703 144.242188 383.865234 144.277344 383.865234 161.292969 386.730469 161.785156 386.730469 164 377.537109 164 377.537109 161.785156 380.402344 161.292969 380.402344 141.130859 377.537109 140.638672 377.537109 138.40625 383.865234 138.40625 396.169922 158.146484 396.275391 158.111328 396.275391 141.130859 393.410156 140.638672 393.410156 138.40625"></polygon>
        <rect id="Rectangle" stroke="#000000" fill="#FFFFFF" x="240" y="240" width="60" height="60"></rect>
        <polygon id="N" fill="#000000" fill-rule="nonzero" points="282.603516 258.40625 282.603516 260.638672 279.738281 261.130859 279.738281 284 276.275391 284 263.970703 264.242188 263.865234 264.277344 263.865234 281.292969 266.730469 281.785156 266.730469 284 257.537109 284 257.537109 281.785156 260.402344 281.292969 260.402344 261.130859 257.537109 260.638672 257.537109 258.40625 263.865234 258.40625 276.169922 278.146484 276.275391 278.111328 276.275391 261.130859 273.410156 260.638672 273.410156 258.40625"></polygon>
        <rect id="Rectangle" stroke="#000000" fill="#FFFFFF" x="180" y="300" width="60" height="60"></rect>
        <polygon id="N" fill="#000000" fill-rule="nonzero" points="222.603516 318.40625 222.603516 320.638672 219.738281 321.130859 219.738281 344 216.275391 344 203.970703 324.242188 203.865234 324.277344 203.865234 341.292969 206.730469 341.785156 206.730469 344 197.537109 344 197.537109 341.785156 200.402344 341.292969 200.402344 321.130859 197.537109 320.638672 197.537109 318.40625 203.865234 318.40625 216.169922 338.146484 216.275391 338.111328 216.275391 321.130859 213.410156 320.638672 213.410156 318.40625"></polygon>
        <rect id="Rectangle" stroke="#000000" fill="#FFFFFF" x="360" y="480" width="60" height="60"></rect>
        <polygon id="N" fill="#000000" fill-rule="nonzero" points="402.603516 498.40625 402.603516 500.638672 399.738281 501.130859 399.738281 524 396.275391 524 383.970703 504.242188 383.865234 504.277344 383.865234 521.292969 386.730469 521.785156 386.730469 524 377.537109 524 377.537109 521.785156 380.402344 521.292969 380.402344 501.130859 377.537109 500.638672 377.537109 498.40625 383.865234 498.40625 396.169922 518.146484 396.275391 518.111328 396.275391 501.130859 393.410156 500.638672 393.410156 498.40625"></polygon>
        <rect id="Rectangle" stroke="#000000" fill="#FFFFFF" x="420" y="420" width="60" height="60"></rect>
        <polygon id="N" fill="#000000" fill-rule="nonzero" points="462.603516 438.40625 462.603516 440.638672 459.738281 441.130859 459.738281 464 456.275391 464 443.970703 444.242188 443.865234 444.277344 443.865234 461.292969 446.730469 461.785156 446.730469 464 437.537109 464 437.537109 461.785156 440.402344 461.292969 440.402344 441.130859 437.537109 440.638672 437.537109 438.40625 443.865234 438.40625 456.169922 458.146484 456.275391 458.111328 456.275391 441.130859 453.410156 440.638672 453.410156 438.40625"></polygon>
        <rect id="Rectangle" stroke="#000000" fill="#FFFFFF" x="0" y="600" width="60" height="60"></rect>
        <polygon id="N" fill="#000000" fill-rule="nonzero" points="42.6035156 618.40625 42.6035156 620.638672 39.7382812 621.130859 39.7382812 644 36.2753906 644 23.9707031 624.242188 23.8652344 624.277344 23.8652344 641.292969 26.7304688 641.785156 26.7304688 644 17.5371094 644 17.5371094 641.785156 20.4023438 641.292969 20.4023438 621.130859 17.5371094 620.638672 17.5371094 618.40625 23.8652344 618.40625 36.1699219 638.146484 36.2753906 638.111328 36.2753906 621.130859 33.4101562 620.638672 33.4101562 618.40625"></polygon>
        <rect id="Rectangle" stroke="#000000" fill="#FFFFFF" x="420" y="120" width="60" height="60"></rect>
        <polygon id="T" fill="#000000" fill-rule="nonzero" points="460.634766 138.40625 460.634766 144.066406 457.681641 144.066406 457.417969 141.130859 451.740234 141.130859 451.740234 161.292969 454.605469 161.785156 454.605469 164 445.412109 164 445.412109 161.785156 448.277344 161.292969 448.277344 141.130859 442.582031 141.130859 442.335938 144.066406 439.365234 144.066406 439.365234 138.40625"></polygon>
        <rect id="Rectangle" stroke="#000000" fill="#FFFFFF" x="240" y="300" width="60" height="60"></rect>
        <polygon id="T" fill="#000000" fill-rule="nonzero" points="280.634766 318.40625 280.634766 324.066406 277.681641 324.066406 277.417969 321.130859 271.740234 321.130859 271.740234 341.292969 274.605469 341.785156 274.605469 344 265.412109 344 265.412109 341.785156 268.277344 341.292969 268.277344 321.130859 262.582031 321.130859 262.335938 324.066406 259.365234 324.066406 259.365234 318.40625"></polygon>
        <rect id="Rectangle" stroke="#000000" fill="#FFFFFF" x="300" y="660" width="60" height="60"></rect>
        <polygon id="T" fill="#000000" fill-rule="nonzero" points="340.634766 678.40625 340.634766 684.066406 337.681641 684.066406 337.417969 681.130859 331.740234 681.130859 331.740234 701.292969 334.605469 701.785156 334.605469 704 325.412109 704 325.412109 701.785156 328.277344 701.292969 328.277344 681.130859 322.582031 681.130859 322.335938 684.066406 319.365234 684.066406 319.365234 678.40625"></polygon>
        <rect id="Rectangle" stroke="#000000" fill="#FFFFFF" x="660" y="0" width="60" height="60"></rect>
        <polygon id="T" fill="#000000" fill-rule="nonzero" points="700.634766 18.40625 700.634766 24.0664062 697.681641 24.0664062 697.417969 21.1308594 691.740234 21.1308594 691.740234 41.2929688 694.605469 41.7851562 694.605469 44 685.412109 44 685.412109 41.7851562 688.277344 41.2929688 688.277344 21.1308594 682.582031 21.1308594 682.335938 24.0664062 679.365234 24.0664062 679.365234 18.40625"></polygon>
        <rect id="Rectangle" stroke="#000000" fill="#FFFFFF" x="600" y="360" width="60" height="60"></rect>
        <polygon id="T" fill="#000000" fill-rule="nonzero" points="640.634766 378.40625 640.634766 384.066406 637.681641 384.066406 637.417969 381.130859 631.740234 381.130859 631.740234 401.292969 634.605469 401.785156 634.605469 404 625.412109 404 625.412109 401.785156 628.277344 401.292969 628.277344 381.130859 622.582031 381.130859 622.335938 384.066406 619.365234 384.066406 619.365234 378.40625"></polygon>
        <rect id="Rectangle" stroke="#000000" fill="#FFFFFF" x="540" y="300" width="60" height="60"></rect>
        <polygon id="T" fill="#000000" fill-rule="nonzero" points="580.634766 318.40625 580.634766 324.066406 577.681641 324.066406 577.417969 321.130859 571.740234 321.130859 571.740234 341.292969 574.605469 341.785156 574.605469 344 565.412109 344 565.412109 341.785156 568.277344 341.292969 568.277344 321.130859 562.582031 321.130859 562.335938 324.066406 559.365234 324.066406 559.365234 318.40625"></polygon>
        <rect id="Rectangle" stroke="#000000" fill="#FFFFFF" x="480" y="120" width="60" height="60"></rect>
        <path d="M510.298828,138.423828 C513.087905,138.423828 515.226555,139.041986 516.714844,140.27832 C518.203132,141.514655 518.947266,143.26952 518.947266,145.542969 C518.947266,146.785162 518.601566,147.886714 517.910156,148.847656 C517.218747,149.808599 516.228522,150.56445 514.939453,151.115234 C516.333991,151.572268 517.338864,152.316401 517.954102,153.347656 C518.569339,154.378911 518.876953,155.650383 518.876953,157.162109 L518.876953,159.21875 C518.876953,160.00391 518.976562,160.583982 519.175781,160.958984 C519.375001,161.333986 519.703123,161.55664 520.160156,161.626953 L521.003906,161.732422 L521.003906,164 L519.140625,164 C517.792962,164 516.834964,163.531255 516.266602,162.59375 C515.698239,161.656245 515.414062,160.519538 515.414062,159.183594 L515.414062,157.197266 C515.414062,155.802727 515.00977,154.683598 514.201172,153.839844 C513.392574,152.99609 512.308601,152.574219 510.949219,152.574219 L505.394531,152.574219 L505.394531,161.292969 L508.259766,161.785156 L508.259766,164 L499.066406,164 L499.066406,161.785156 L501.931641,161.292969 L501.931641,141.130859 L499.066406,140.638672 L499.066406,138.423828 L510.298828,138.423828 Z M505.394531,149.849609 L509.947266,149.849609 C511.880869,149.849609 513.287105,149.480472 514.166016,148.742188 C515.044926,148.003903 515.484375,146.925788 515.484375,145.507812 C515.484375,144.16015 515.062504,143.093754 514.21875,142.308594 C513.374996,141.523434 512.068368,141.130859 510.298828,141.130859 L505.394531,141.130859 L505.394531,149.849609 Z" id="R" fill="#000000" fill-rule="nonzero"></path>
        <rect id="Rectangle" stroke="#000000" fill="#FFFFFF" x="480" y="360" width="60" height="60"></rect>
        <path d="M510.298828,378.423828 C513.087905,378.423828 515.226555,379.041986 516.714844,380.27832 C518.203132,381.514655 518.947266,383.26952 518.947266,385.542969 C518.947266,386.785162 518.601566,387.886714 517.910156,388.847656 C517.218747,389.808599 516.228522,390.56445 514.939453,391.115234 C516.333991,391.572268 517.338864,392.316401 517.954102,393.347656 C518.569339,394.378911 518.876953,395.650383 518.876953,397.162109 L518.876953,399.21875 C518.876953,400.00391 518.976562,400.583982 519.175781,400.958984 C519.375001,401.333986 519.703123,401.55664 520.160156,401.626953 L521.003906,401.732422 L521.003906,404 L519.140625,404 C517.792962,404 516.834964,403.531255 516.266602,402.59375 C515.698239,401.656245 515.414062,400.519538 515.414062,399.183594 L515.414062,397.197266 C515.414062,395.802727 515.00977,394.683598 514.201172,393.839844 C513.392574,392.99609 512.308601,392.574219 510.949219,392.574219 L505.394531,392.574219 L505.394531,401.292969 L508.259766,401.785156 L508.259766,404 L499.066406,404 L499.066406,401.785156 L501.931641,401.292969 L501.931641,381.130859 L499.066406,380.638672 L499.066406,378.423828 L510.298828,378.423828 Z M505.394531,389.849609 L509.947266,389.849609 C511.880869,389.849609 513.287105,389.480472 514.166016,388.742188 C515.044926,388.003903 515.484375,386.925788 515.484375,385.507812 C515.484375,384.16015 515.062504,383.093754 514.21875,382.308594 C513.374996,381.523434 512.068368,381.130859 510.298828,381.130859 L505.394531,381.130859 L505.394531,389.849609 Z" id="R" fill="#000000" fill-rule="nonzero"></path>
        <rect id="Rectangle" stroke="#000000" fill="#FFFFFF" x="480" y="420" width="60" height="60"></rect>
        <polygon id="K" fill="#000000" fill-rule="nonzero" points="498.486328 461.785156 501.351562 461.292969 501.351562 441.130859 498.486328 440.638672 498.486328 438.40625 507.679688 438.40625 507.679688 440.638672 504.814453 441.130859 504.814453 449.726562 507.46875 449.726562 514.623047 440.884766 512.707031 440.638672 512.707031 438.40625 520.828125 438.40625 520.828125 440.638672 518.419922 441.078125 510.597656 450.78125 519.140625 461.345703 521.548828 461.785156 521.548828 464 513.146484 464 513.146484 461.785156 515.097656 461.539062 507.802734 452.451172 504.814453 452.451172 504.814453 461.292969 507.679688 461.785156 507.679688 464 498.486328 464"></polygon>
        <rect id="Rectangle" stroke="#000000" fill="#FFFFFF" x="300" y="540" width="60" height="60"></rect>
        <polygon id="K" fill="#000000" fill-rule="nonzero" points="318.486328 581.785156 321.351562 581.292969 321.351562 561.130859 318.486328 560.638672 318.486328 558.40625 327.679688 558.40625 327.679688 560.638672 324.814453 561.130859 324.814453 569.726562 327.46875 569.726562 334.623047 560.884766 332.707031 560.638672 332.707031 558.40625 340.828125 558.40625 340.828125 560.638672 338.419922 561.078125 330.597656 570.78125 339.140625 581.345703 341.548828 581.785156 341.548828 584 333.146484 584 333.146484 581.785156 335.097656 581.539062 327.802734 572.451172 324.814453 572.451172 324.814453 581.292969 327.679688 581.785156 327.679688 584 318.486328 584"></polygon>
        <rect id="Rectangle" stroke="#000000" fill="#FFFFFF" x="240" y="360" width="60" height="60"></rect>
        <path d="M270.298828,378.423828 C273.087905,378.423828 275.226555,379.041986 276.714844,380.27832 C278.203132,381.514655 278.947266,383.26952 278.947266,385.542969 C278.947266,386.785162 278.601566,387.886714 277.910156,388.847656 C277.218747,389.808599 276.228522,390.56445 274.939453,391.115234 C276.333991,391.572268 277.338864,392.316401 277.954102,393.347656 C278.569339,394.378911 278.876953,395.650383 278.876953,397.162109 L278.876953,399.21875 C278.876953,400.00391 278.976562,400.583982 279.175781,400.958984 C279.375001,401.333986 279.703123,401.55664 280.160156,401.626953 L281.003906,401.732422 L281.003906,404 L279.140625,404 C277.792962,404 276.834964,403.531255 276.266602,402.59375 C275.698239,401.656245 275.414062,400.519538 275.414062,399.183594 L275.414062,397.197266 C275.414062,395.802727 275.00977,394.683598 274.201172,393.839844 C273.392574,392.99609 272.308601,392.574219 270.949219,392.574219 L265.394531,392.574219 L265.394531,401.292969 L268.259766,401.785156 L268.259766,404 L259.066406,404 L259.066406,401.785156 L261.931641,401.292969 L261.931641,381.130859 L259.066406,380.638672 L259.066406,378.423828 L270.298828,378.423828 Z M265.394531,389.849609 L269.947266,389.849609 C271.880869,389.849609 273.287105,389.480472 274.166016,388.742188 C275.044926,388.003903 275.484375,386.925788 275.484375,385.507812 C275.484375,384.16015 275.062504,383.093754 274.21875,382.308594 C273.374996,381.523434 272.068368,381.130859 270.298828,381.130859 L265.394531,381.130859 L265.394531,389.849609 Z" id="R" fill="#000000" fill-rule="nonzero"></path>
        <rect id="Rectangle" stroke="#000000" fill="#FFFFFF" x="360" y="360" width="60" height="60"></rect>
        <path d="M389.499023,378.40625 C392.838884,378.40625 395.52538,379.43456 397.558594,381.491211 C399.591807,383.547862 400.608398,386.205062 400.608398,389.462891 L400.608398,392.960938 C400.608398,396.230485 399.591807,398.887685 397.558594,400.932617 C395.52538,402.977549 392.838884,404 389.499023,404 L378.776367,404 L378.776367,401.785156 L381.641602,401.292969 L381.641602,381.130859 L378.776367,380.638672 L378.776367,378.40625 L389.499023,378.40625 Z M385.104492,381.130859 L385.104492,401.292969 L389.499023,401.292969 C391.866223,401.292969 393.732415,400.51368 395.097656,398.955078 C396.462897,397.396477 397.145508,395.39845 397.145508,392.960938 L397.145508,389.427734 C397.145508,387.01366 396.462897,385.027352 395.097656,383.46875 C393.732415,381.910148 391.866223,381.130859 389.499023,381.130859 L385.104492,381.130859 Z" id="D" fill="#000000" fill-rule="nonzero"></path>
        <rect id="Rectangle" stroke="#000000" fill="#FFFFFF" x="660" y="660" width="60" height="60"></rect>
        <path d="M689.499023,678.40625 C692.838884,678.40625 695.52538,679.43456 697.558594,681.491211 C699.591807,683.547862 700.608398,686.205062 700.608398,689.462891 L700.608398,692.960938 C700.608398,696.230485 699.591807,698.887685 697.558594,700.932617 C695.52538,702.977549 692.838884,704 689.499023,704 L678.776367,704 L678.776367,701.785156 L681.641602,701.292969 L681.641602,681.130859 L678.776367,680.638672 L678.776367,678.40625 L689.499023,678.40625 Z M685.104492,681.130859 L685.104492,701.292969 L689.499023,701.292969 C691.866223,701.292969 693.732415,700.51368 695.097656,698.955078 C696.462897,697.396477 697.145508,695.39845 697.145508,692.960938 L697.145508,689.427734 C697.145508,687.01366 696.462897,685.027352 695.097656,683.46875 C693.732415,681.910148 691.866223,681.130859 689.499023,681.130859 L685.104492,681.130859 Z" id="D" fill="#000000" fill-rule="nonzero"></path>
        <rect id="Rectangle" stroke="#000000" fill="#FFFFFF" x="540" y="600" width="60" height="60"></rect>
        <path d="M570.298828,618.423828 C573.087905,618.423828 575.226555,619.041986 576.714844,620.27832 C578.203132,621.514655 578.947266,623.26952 578.947266,625.542969 C578.947266,626.785162 578.601566,627.886714 577.910156,628.847656 C577.218747,629.808599 576.228522,630.56445 574.939453,631.115234 C576.333991,631.572268 577.338864,632.316401 577.954102,633.347656 C578.569339,634.378911 578.876953,635.650383 578.876953,637.162109 L578.876953,639.21875 C578.876953,640.00391 578.976562,640.583983 579.175781,640.958984 C579.375001,641.333986 579.703123,641.55664 580.160156,641.626953 L581.003906,641.732422 L581.003906,644 L579.140625,644 C577.792962,644 576.834964,643.531255 576.266602,642.59375 C575.698239,641.656245 575.414062,640.519538 575.414062,639.183594 L575.414062,637.197266 C575.414062,635.802727 575.00977,634.683598 574.201172,633.839844 C573.392574,632.99609 572.308601,632.574219 570.949219,632.574219 L565.394531,632.574219 L565.394531,641.292969 L568.259766,641.785156 L568.259766,644 L559.066406,644 L559.066406,641.785156 L561.931641,641.292969 L561.931641,621.130859 L559.066406,620.638672 L559.066406,618.423828 L570.298828,618.423828 Z M565.394531,629.849609 L569.947266,629.849609 C571.880869,629.849609 573.287105,629.480472 574.166016,628.742188 C575.044926,628.003903 575.484375,626.925788 575.484375,625.507812 C575.484375,624.16015 575.062504,623.093754 574.21875,622.308594 C573.374996,621.523434 572.068368,621.130859 570.298828,621.130859 L565.394531,621.130859 L565.394531,629.849609 Z" id="R" fill="#000000" fill-rule="nonzero"></path>
        <rect id="Rectangle" stroke="#000000" fill="#FFFFFF" x="540" y="120" width="60" height="60"></rect>
        <path d="M581.34668,151.396484 C581.34668,155.123066 580.277354,158.216785 578.138672,160.677734 C575.999989,163.138684 573.231462,164.369141 569.833008,164.369141 C566.528304,164.369141 563.844737,163.138684 561.782227,160.677734 C559.719716,158.216785 558.688477,155.123066 558.688477,151.396484 L558.688477,151.027344 C558.688477,147.312481 559.719716,144.218762 561.782227,141.746094 C563.844737,139.273425 566.528304,138.037109 569.833008,138.037109 C573.231462,138.037109 575.999989,139.273425 578.138672,141.746094 C580.277354,144.218762 581.34668,147.312481 581.34668,151.027344 L581.34668,151.396484 Z M577.883789,150.992188 C577.883789,148.01561 577.171882,145.586923 575.748047,143.706055 C574.324212,141.825186 572.352552,140.884766 569.833008,140.884766 C567.418933,140.884766 565.535163,141.828116 564.181641,143.714844 C562.828118,145.601572 562.151367,148.027329 562.151367,150.992188 L562.151367,151.396484 C562.151367,154.396499 562.828118,156.836905 564.181641,158.717773 C565.535163,160.598642 567.418933,161.539062 569.833008,161.539062 C572.387708,161.539062 574.368157,160.601572 575.774414,158.726562 C577.180671,156.851553 577.883789,154.408218 577.883789,151.396484 L577.883789,150.992188 Z" id="O" fill="#000000" fill-rule="nonzero"></path>
        <rect id="Rectangle" stroke="#000000" fill="#FFFFFF" x="600" y="240" width="60" height="60"></rect>
        <path d="M641.34668,271.396484 C641.34668,275.123066 640.277354,278.216785 638.138672,280.677734 C635.999989,283.138684 633.231462,284.369141 629.833008,284.369141 C626.528304,284.369141 623.844737,283.138684 621.782227,280.677734 C619.719716,278.216785 618.688477,275.123066 618.688477,271.396484 L618.688477,271.027344 C618.688477,267.312481 619.719716,264.218762 621.782227,261.746094 C623.844737,259.273425 626.528304,258.037109 629.833008,258.037109 C633.231462,258.037109 635.999989,259.273425 638.138672,261.746094 C640.277354,264.218762 641.34668,267.312481 641.34668,271.027344 L641.34668,271.396484 Z M637.883789,270.992188 C637.883789,268.01561 637.171882,265.586923 635.748047,263.706055 C634.324212,261.825186 632.352552,260.884766 629.833008,260.884766 C627.418933,260.884766 625.535163,261.828116 624.181641,263.714844 C622.828118,265.601572 622.151367,268.027329 622.151367,270.992188 L622.151367,271.396484 C622.151367,274.396499 622.828118,276.836905 624.181641,278.717773 C625.535163,280.598642 627.418933,281.539062 629.833008,281.539062 C632.387708,281.539062 634.368157,280.601572 635.774414,278.726562 C637.180671,276.851553 637.883789,274.408218 637.883789,271.396484 L637.883789,270.992188 Z" id="O" fill="#000000" fill-rule="nonzero"></path>
        <rect id="Rectangle" stroke="#000000" fill="#FFFFFF" x="660" y="600" width="60" height="60"></rect>
        <path d="M701.34668,631.396484 C701.34668,635.123066 700.277354,638.216785 698.138672,640.677734 C695.999989,643.138684 693.231462,644.369141 689.833008,644.369141 C686.528304,644.369141 683.844737,643.138684 681.782227,640.677734 C679.719716,638.216785 678.688477,635.123066 678.688477,631.396484 L678.688477,631.027344 C678.688477,627.312481 679.719716,624.218762 681.782227,621.746094 C683.844737,619.273425 686.528304,618.037109 689.833008,618.037109 C693.231462,618.037109 695.999989,619.273425 698.138672,621.746094 C700.277354,624.218762 701.34668,627.312481 701.34668,631.027344 L701.34668,631.396484 Z M697.883789,630.992188 C697.883789,628.01561 697.171882,625.586923 695.748047,623.706055 C694.324212,621.825186 692.352552,620.884766 689.833008,620.884766 C687.418933,620.884766 685.535163,621.828116 684.181641,623.714844 C682.828118,625.601572 682.151367,628.027329 682.151367,630.992188 L682.151367,631.396484 C682.151367,634.396499 682.828118,636.836905 684.181641,638.717773 C685.535163,640.598642 687.418933,641.539062 689.833008,641.539062 C692.387708,641.539062 694.368157,640.601572 695.774414,638.726562 C697.180671,636.851553 697.883789,634.408218 697.883789,631.396484 L697.883789,630.992188 Z" id="O" fill="#000000" fill-rule="nonzero"></path>
        <rect id="Rectangle" stroke="#000000" fill="#FFFFFF" x="660" y="540" width="60" height="60"></rect>
        <path d="M701.34668,571.396484 C701.34668,575.123066 700.277354,578.216785 698.138672,580.677734 C695.999989,583.138684 693.231462,584.369141 689.833008,584.369141 C686.528304,584.369141 683.844737,583.138684 681.782227,580.677734 C679.719716,578.216785 678.688477,575.123066 678.688477,571.396484 L678.688477,571.027344 C678.688477,567.312481 679.719716,564.218762 681.782227,561.746094 C683.844737,559.273425 686.528304,558.037109 689.833008,558.037109 C693.231462,558.037109 695.999989,559.273425 698.138672,561.746094 C700.277354,564.218762 701.34668,567.312481 701.34668,571.027344 L701.34668,571.396484 Z M697.883789,570.992188 C697.883789,568.01561 697.171882,565.586923 695.748047,563.706055 C694.324212,561.825186 692.352552,560.884766 689.833008,560.884766 C687.418933,560.884766 685.535163,561.828116 684.181641,563.714844 C682.828118,565.601572 682.151367,568.027329 682.151367,570.992188 L682.151367,571.396484 C682.151367,574.396499 682.828118,576.836905 684.181641,578.717773 C685.535163,580.598642 687.418933,581.539062 689.833008,581.539062 C692.387708,581.539062 694.368157,580.601572 695.774414,578.726562 C697.180671,576.851553 697.883789,574.408218 697.883789,571.396484 L697.883789,570.992188 Z" id="O" fill="#000000" fill-rule="nonzero"></path>
        <rect id="Rectangle" stroke="#000000" fill="#FFFFFF" x="540" y="660" width="60" height="60"></rect>
        <path d="M581.34668,691.396484 C581.34668,695.123066 580.277354,698.216785 578.138672,700.677734 C575.999989,703.138684 573.231462,704.369141 569.833008,704.369141 C566.528304,704.369141 563.844737,703.138684 561.782227,700.677734 C559.719716,698.216785 558.688477,695.123066 558.688477,691.396484 L558.688477,691.027344 C558.688477,687.312481 559.719716,684.218762 561.782227,681.746094 C563.844737,679.273425 566.528304,678.037109 569.833008,678.037109 C573.231462,678.037109 575.999989,679.273425 578.138672,681.746094 C580.277354,684.218762 581.34668,687.312481 581.34668,691.027344 L581.34668,691.396484 Z M577.883789,690.992188 C577.883789,688.01561 577.171882,685.586923 575.748047,683.706055 C574.324212,681.825186 572.352552,680.884766 569.833008,680.884766 C567.418933,680.884766 565.535163,681.828116 564.181641,683.714844 C562.828118,685.601572 562.151367,688.027329 562.151367,690.992188 L562.151367,691.396484 C562.151367,694.396499 562.828118,696.836905 564.181641,698.717773 C565.535163,700.598642 567.418933,701.539062 569.833008,701.539062 C572.387708,701.539062 574.368157,700.601572 575.774414,698.726562 C577.180671,696.851553 577.883789,694.408218 577.883789,691.396484 L577.883789,690.992188 Z" id="O" fill="#000000" fill-rule="nonzero"></path>
        <rect id="Rectangle" stroke="#000000" fill="#FFFFFF" x="600" y="300" width="60" height="60"></rect>
        <path d="M626.704102,318.40625 L626.704102,320.638672 L623.838867,321.130859 L623.838867,335.755859 C623.838867,337.689463 624.389643,339.157222 625.491211,340.15918 C626.592779,341.161138 628.045889,341.662109 629.850586,341.662109 C631.749033,341.662109 633.278315,341.164067 634.438477,340.167969 C635.598639,339.17187 636.178711,337.701182 636.178711,335.755859 L636.178711,321.130859 L633.313477,320.638672 L633.313477,318.40625 L642.506836,318.40625 L642.506836,320.638672 L639.641602,321.130859 L639.641602,335.755859 C639.641602,338.533217 638.736337,340.663079 636.925781,342.145508 C635.115225,343.627937 632.75685,344.369141 629.850586,344.369141 C627.026353,344.369141 624.74122,343.627937 622.995117,342.145508 C621.249015,340.663079 620.375977,338.533217 620.375977,335.755859 L620.375977,321.130859 L617.510742,320.638672 L617.510742,318.40625 L626.704102,318.40625 Z" id="U" fill="#000000" fill-rule="nonzero"></path>
        <rect id="Rectangle" stroke="#000000" fill="#FFFFFF" x="360" y="420" width="60" height="60"></rect>
        <path d="M386.704102,438.40625 L386.704102,440.638672 L383.838867,441.130859 L383.838867,455.755859 C383.838867,457.689463 384.389643,459.157222 385.491211,460.15918 C386.592779,461.161138 388.045889,461.662109 389.850586,461.662109 C391.749033,461.662109 393.278315,461.164067 394.438477,460.167969 C395.598639,459.17187 396.178711,457.701182 396.178711,455.755859 L396.178711,441.130859 L393.313477,440.638672 L393.313477,438.40625 L402.506836,438.40625 L402.506836,440.638672 L399.641602,441.130859 L399.641602,455.755859 C399.641602,458.533217 398.736337,460.663079 396.925781,462.145508 C395.115225,463.627937 392.75685,464.369141 389.850586,464.369141 C387.026353,464.369141 384.74122,463.627937 382.995117,462.145508 C381.249015,460.663079 380.375977,458.533217 380.375977,455.755859 L380.375977,441.130859 L377.510742,440.638672 L377.510742,438.40625 L386.704102,438.40625 Z" id="U" fill="#000000" fill-rule="nonzero"></path>
        <rect id="Rectangle" stroke="#000000" fill="#FFFFFF" x="180" y="540" width="60" height="60"></rect>
        <path d="M206.704102,558.40625 L206.704102,560.638672 L203.838867,561.130859 L203.838867,575.755859 C203.838867,577.689463 204.389643,579.157222 205.491211,580.15918 C206.592779,581.161138 208.045889,581.662109 209.850586,581.662109 C211.749033,581.662109 213.278315,581.164067 214.438477,580.167969 C215.598639,579.17187 216.178711,577.701182 216.178711,575.755859 L216.178711,561.130859 L213.313477,560.638672 L213.313477,558.40625 L222.506836,558.40625 L222.506836,560.638672 L219.641602,561.130859 L219.641602,575.755859 C219.641602,578.533217 218.736337,580.663079 216.925781,582.145508 C215.115225,583.627937 212.75685,584.369141 209.850586,584.369141 C207.026353,584.369141 204.74122,583.627937 202.995117,582.145508 C201.249015,580.663079 200.375977,578.533217 200.375977,575.755859 L200.375977,561.130859 L197.510742,560.638672 L197.510742,558.40625 L206.704102,558.40625 Z" id="U" fill="#000000" fill-rule="nonzero"></path>
        <rect id="Rectangle" stroke="#000000" fill="#FFFFFF" x="600" y="120" width="60" height="60"></rect>
        <polygon id="L" fill="#000000" fill-rule="nonzero" points="620.709961 164 620.709961 161.785156 623.575195 161.292969 623.575195 141.130859 620.709961 140.638672 620.709961 138.40625 629.90332 138.40625 629.90332 140.638672 627.038086 141.130859 627.038086 161.292969 635.932617 161.292969 636.196289 158.357422 639.149414 158.357422 639.149414 164"></polygon>
        <rect id="Rectangle" stroke="#000000" fill="#FFFFFF" x="420" y="300" width="60" height="60"></rect>
        <polygon id="L" fill="#000000" fill-rule="nonzero" points="440.709961 344 440.709961 341.785156 443.575195 341.292969 443.575195 321.130859 440.709961 320.638672 440.709961 318.40625 449.90332 318.40625 449.90332 320.638672 447.038086 321.130859 447.038086 341.292969 455.932617 341.292969 456.196289 338.357422 459.149414 338.357422 459.149414 344"></polygon>
        <rect id="Rectangle" stroke="#000000" fill="#FFFFFF" x="600" y="180" width="60" height="60"></rect>
        <polygon id="L" fill="#000000" fill-rule="nonzero" points="620.709961 224 620.709961 221.785156 623.575195 221.292969 623.575195 201.130859 620.709961 200.638672 620.709961 198.40625 629.90332 198.40625 629.90332 200.638672 627.038086 201.130859 627.038086 221.292969 635.932617 221.292969 636.196289 218.357422 639.149414 218.357422 639.149414 224"></polygon>
        <rect id="Rectangle" stroke="#000000" fill="#FFFFFF" x="660" y="480" width="60" height="60"></rect>
        <polygon id="L" fill="#000000" fill-rule="nonzero" points="680.709961 524 680.709961 521.785156 683.575195 521.292969 683.575195 501.130859 680.709961 500.638672 680.709961 498.40625 689.90332 498.40625 689.90332 500.638672 687.038086 501.130859 687.038086 521.292969 695.932617 521.292969 696.196289 518.357422 699.149414 518.357422 699.149414 524"></polygon>
        <rect id="Rectangle" stroke="#000000" fill="#FFFFFF" x="600" y="0" width="60" height="60"></rect>
        <polygon id="F" fill="#000000" fill-rule="nonzero" points="620.05957 41.7851562 622.924805 41.2929688 622.924805 21.1308594 620.05957 20.6386719 620.05957 18.40625 639.834961 18.40625 639.834961 24.5585938 636.881836 24.5585938 636.600586 21.1308594 626.387695 21.1308594 626.387695 29.9550781 636.28418 29.9550781 636.28418 32.6796875 626.387695 32.6796875 626.387695 41.2929688 629.25293 41.7851562 629.25293 44 620.05957 44"></polygon>
        <rect id="Rectangle" stroke="#000000" fill="#FFFFFF" x="0" y="180" width="60" height="60"></rect>
        <polygon id="T" fill="#000000" fill-rule="nonzero" points="40.6347656 198.40625 40.6347656 204.066406 37.6816406 204.066406 37.4179688 201.130859 31.7402344 201.130859 31.7402344 221.292969 34.6054688 221.785156 34.6054688 224 25.4121094 224 25.4121094 221.785156 28.2773438 221.292969 28.2773438 201.130859 22.5820312 201.130859 22.3359375 204.066406 19.3652344 204.066406 19.3652344 198.40625"></polygon>
    </g>
</svg>