<?xml version="1.0" encoding="UTF-8" standalone="no"?>
<!DOCTYPE svg PUBLIC "-//W3C//DTD SVG 1.1//EN"
 "http://www.w3.org/Graphics/SVG/1.1/DTD/svg11.dtd">
<!-- Generated by graphviz version 2.42.3 (0)
 -->
<!-- Title: Circ Pages: 1 -->
<svg width="414pt" height="639pt"
 viewBox="0.00 0.00 414.45 639.00" xmlns="http://www.w3.org/2000/svg" xmlns:xlink="http://www.w3.org/1999/xlink">
<g id="graph0" class="graph" transform="scale(1 1) rotate(0) translate(4 635)">
<title>Circ</title>
<polygon fill="white" stroke="transparent" points="-4,4 -4,-635 410.45,-635 410.45,4 -4,4"/>
<!-- x0 -->
<g id="node1" class="node">
<title>x0</title>
<ellipse fill="none" stroke="black" cx="33" cy="-18" rx="27" ry="18"/>
<text text-anchor="middle" x="33" y="-14.3" font-family="Times,serif" font-size="14.00">x0</text>
</g>
<!-- x3 -->
<g id="node4" class="node">
<title>x3</title>
<ellipse fill="none" stroke="black" cx="94" cy="-105" rx="40.09" ry="18"/>
<text text-anchor="middle" x="94" y="-101.3" font-family="Times,serif" font-size="14.00">f3: OR</text>
</g>
<!-- x0&#45;&gt;x3 -->
<g id="edge1" class="edge">
<title>x0&#45;&gt;x3</title>
<path fill="none" stroke="black" d="M29.39,-35.87C28.11,-46.13 28.19,-59.12 34,-69 38.76,-77.09 46.17,-83.5 54.18,-88.5"/>
<polygon fill="black" stroke="black" points="52.57,-91.61 63.01,-93.38 55.96,-85.48 52.57,-91.61"/>
<text text-anchor="middle" x="45.5" y="-57.8" font-family="Times,serif" font-size="14.00">in1</text>
</g>
<!-- x4 -->
<g id="node5" class="node">
<title>x4</title>
<ellipse fill="none" stroke="black" cx="270" cy="-105" rx="47.39" ry="18"/>
<text text-anchor="middle" x="270" y="-101.3" font-family="Times,serif" font-size="14.00">f4: AND</text>
</g>
<!-- x0&#45;&gt;x4 -->
<g id="edge3" class="edge">
<title>x0&#45;&gt;x4</title>
<path fill="none" stroke="black" d="M46.16,-34.27C56.98,-45.76 73.37,-60.88 91,-69 139.19,-91.18 157.13,-75.86 209,-87 213.98,-88.07 219.15,-89.31 224.29,-90.62"/>
<polygon fill="black" stroke="black" points="223.49,-94.03 234.05,-93.21 225.28,-87.26 223.49,-94.03"/>
<text text-anchor="middle" x="102.5" y="-57.8" font-family="Times,serif" font-size="14.00">in1</text>
</g>
<!-- x9 -->
<g id="node10" class="node">
<title>x9</title>
<ellipse fill="none" stroke="black" cx="119" cy="-366" rx="52.79" ry="18"/>
<text text-anchor="middle" x="119" y="-362.3" font-family="Times,serif" font-size="14.00">f9: NOT2</text>
</g>
<!-- x0&#45;&gt;x9 -->
<g id="edge13" class="edge">
<title>x0&#45;&gt;x9</title>
<path fill="none" stroke="black" d="M22.74,-34.9C13.05,-51.46 0,-78.51 0,-104 0,-104 0,-104 0,-236.5 0,-250.25 59.37,-308.68 94.24,-341.82"/>
<polygon fill="black" stroke="black" points="92.03,-344.54 101.7,-348.87 96.84,-339.46 92.03,-344.54"/>
<text text-anchor="middle" x="11.5" y="-188.3" font-family="Times,serif" font-size="14.00">in1</text>
</g>
<!-- x1 -->
<g id="node2" class="node">
<title>x1</title>
<ellipse fill="none" stroke="black" cx="148" cy="-18" rx="27" ry="18"/>
<text text-anchor="middle" x="148" y="-14.3" font-family="Times,serif" font-size="14.00">x1</text>
</g>
<!-- x1&#45;&gt;x3 -->
<g id="edge2" class="edge">
<title>x1&#45;&gt;x3</title>
<path fill="none" stroke="black" d="M137.84,-34.99C130.02,-47.3 119.07,-64.54 110.06,-78.72"/>
<polygon fill="black" stroke="black" points="106.89,-77.19 104.48,-87.5 112.8,-80.94 106.89,-77.19"/>
<text text-anchor="middle" x="136.5" y="-57.8" font-family="Times,serif" font-size="14.00">in2</text>
</g>
<!-- x1&#45;&gt;x4 -->
<g id="edge4" class="edge">
<title>x1&#45;&gt;x4</title>
<path fill="none" stroke="black" d="M166,-31.54C185.4,-45.06 216.59,-66.79 239.76,-82.93"/>
<polygon fill="black" stroke="black" points="238.01,-85.97 248.21,-88.82 242.01,-80.23 238.01,-85.97"/>
<text text-anchor="middle" x="228.5" y="-57.8" font-family="Times,serif" font-size="14.00">in2</text>
</g>
<!-- x2 -->
<g id="node3" class="node">
<title>x2</title>
<ellipse fill="none" stroke="black" cx="353" cy="-18" rx="27" ry="18"/>
<text text-anchor="middle" x="353" y="-14.3" font-family="Times,serif" font-size="14.00">x2</text>
</g>
<!-- x5 -->
<g id="node6" class="node">
<title>x5</title>
<ellipse fill="none" stroke="black" cx="253" cy="-192" rx="40.09" ry="18"/>
<text text-anchor="middle" x="253" y="-188.3" font-family="Times,serif" font-size="14.00">f5: OR</text>
</g>
<!-- x2&#45;&gt;x5 -->
<g id="edge5" class="edge">
<title>x2&#45;&gt;x5</title>
<path fill="none" stroke="black" d="M353.38,-36.2C353.77,-68.69 352.87,-137.49 339,-156 335.88,-160.17 314,-169.04 293.09,-176.81"/>
<polygon fill="black" stroke="black" points="291.81,-173.56 283.63,-180.29 294.22,-180.13 291.81,-173.56"/>
<text text-anchor="middle" x="363.5" y="-101.3" font-family="Times,serif" font-size="14.00">in1</text>
</g>
<!-- x6 -->
<g id="node7" class="node">
<title>x6</title>
<ellipse fill="none" stroke="black" cx="359" cy="-192" rx="47.39" ry="18"/>
<text text-anchor="middle" x="359" y="-188.3" font-family="Times,serif" font-size="14.00">f6: AND</text>
</g>
<!-- x2&#45;&gt;x6 -->
<g id="edge7" class="edge">
<title>x2&#45;&gt;x6</title>
<path fill="none" stroke="black" d="M361.49,-35.23C368.02,-48.69 376.49,-68.53 380,-87 385.02,-113.44 377.47,-143.57 370.06,-164.57"/>
<polygon fill="black" stroke="black" points="366.73,-163.5 366.5,-174.09 373.28,-165.96 366.73,-163.5"/>
<text text-anchor="middle" x="392.5" y="-101.3" font-family="Times,serif" font-size="14.00">in1</text>
</g>
<!-- x8 -->
<g id="node9" class="node">
<title>x8</title>
<ellipse fill="none" stroke="black" cx="81" cy="-192" rx="40.09" ry="18"/>
<text text-anchor="middle" x="81" y="-188.3" font-family="Times,serif" font-size="14.00">f8: OR</text>
</g>
<!-- x2&#45;&gt;x8 -->
<g id="edge11" class="edge">
<title>x2&#45;&gt;x8</title>
<path fill="none" stroke="black" d="M328.88,-26.1C296.02,-36.42 236.11,-57.61 191,-87 181.4,-93.26 133.82,-139.26 104.47,-167.95"/>
<polygon fill="black" stroke="black" points="101.78,-165.69 97.08,-175.19 106.67,-170.69 101.78,-165.69"/>
<text text-anchor="middle" x="202.5" y="-101.3" font-family="Times,serif" font-size="14.00">in1</text>
</g>
<!-- x7 -->
<g id="node8" class="node">
<title>x7</title>
<ellipse fill="none" stroke="black" cx="183" cy="-279" rx="47.39" ry="18"/>
<text text-anchor="middle" x="183" y="-275.3" font-family="Times,serif" font-size="14.00">f7: AND</text>
</g>
<!-- x3&#45;&gt;x7 -->
<g id="edge9" class="edge">
<title>x3&#45;&gt;x7</title>
<path fill="none" stroke="black" d="M104.89,-122.52C108.55,-128.29 112.58,-134.85 116,-141 136.97,-178.66 158.36,-223.83 171.16,-251.72"/>
<polygon fill="black" stroke="black" points="167.98,-253.18 175.32,-260.83 174.35,-250.28 167.98,-253.18"/>
<text text-anchor="middle" x="162.5" y="-188.3" font-family="Times,serif" font-size="14.00">in1</text>
</g>
<!-- x3&#45;&gt;x8 -->
<g id="edge12" class="edge">
<title>x3&#45;&gt;x8</title>
<path fill="none" stroke="black" d="M91.37,-123.2C89.59,-134.84 87.2,-150.45 85.17,-163.76"/>
<polygon fill="black" stroke="black" points="81.68,-163.41 83.63,-173.82 88.6,-164.47 81.68,-163.41"/>
<text text-anchor="middle" x="100.5" y="-144.8" font-family="Times,serif" font-size="14.00">in2</text>
</g>
<!-- x4&#45;&gt;x5 -->
<g id="edge6" class="edge">
<title>x4&#45;&gt;x5</title>
<path fill="none" stroke="black" d="M266.56,-123.2C264.23,-134.84 261.11,-150.45 258.45,-163.76"/>
<polygon fill="black" stroke="black" points="254.96,-163.33 256.44,-173.82 261.83,-164.71 254.96,-163.33"/>
<text text-anchor="middle" x="273.5" y="-144.8" font-family="Times,serif" font-size="14.00">in2</text>
</g>
<!-- x4&#45;&gt;x6 -->
<g id="edge8" class="edge">
<title>x4&#45;&gt;x6</title>
<path fill="none" stroke="black" d="M286.74,-121.99C300.29,-134.93 319.56,-153.33 334.79,-167.88"/>
<polygon fill="black" stroke="black" points="332.69,-170.71 342.33,-175.08 337.52,-165.65 332.69,-170.71"/>
<text text-anchor="middle" x="330.5" y="-144.8" font-family="Times,serif" font-size="14.00">in2</text>
</g>
<!-- x5&#45;&gt;x7 -->
<g id="edge10" class="edge">
<title>x5&#45;&gt;x7</title>
<path fill="none" stroke="black" d="M239.5,-209.39C229.14,-221.97 214.67,-239.54 202.97,-253.75"/>
<polygon fill="black" stroke="black" points="200.11,-251.72 196.46,-261.66 205.51,-256.17 200.11,-251.72"/>
<text text-anchor="middle" x="234.5" y="-231.8" font-family="Times,serif" font-size="14.00">in2</text>
</g>
<!-- x11 -->
<g id="node12" class="node">
<title>x11</title>
<ellipse fill="none" stroke="black" cx="155" cy="-540" rx="46.29" ry="18"/>
<text text-anchor="middle" x="155" y="-536.3" font-family="Times,serif" font-size="14.00">f11: OR</text>
</g>
<!-- x6&#45;&gt;x11 -->
<g id="edge17" class="edge">
<title>x6&#45;&gt;x11</title>
<path fill="none" stroke="black" d="M349.16,-209.69C316.25,-265.51 209.83,-446 170.13,-513.35"/>
<polygon fill="black" stroke="black" points="167.04,-511.68 164.98,-522.07 173.07,-515.24 167.04,-511.68"/>
<text text-anchor="middle" x="276.5" y="-362.3" font-family="Times,serif" font-size="14.00">in1</text>
</g>
<!-- x7&#45;&gt;x9 -->
<g id="edge14" class="edge">
<title>x7&#45;&gt;x9</title>
<path fill="none" stroke="black" d="M170.66,-296.39C161.34,-308.77 148.37,-325.99 137.77,-340.08"/>
<polygon fill="black" stroke="black" points="134.74,-338.28 131.52,-348.37 140.33,-342.49 134.74,-338.28"/>
<text text-anchor="middle" x="166.5" y="-318.8" font-family="Times,serif" font-size="14.00">in2</text>
</g>
<!-- g1 -->
<g id="node14" class="node">
<title>g1</title>
<ellipse fill="none" stroke="black" cx="230" cy="-613" rx="27" ry="18"/>
<text text-anchor="middle" x="230" y="-609.3" font-family="Times,serif" font-size="14.00">g1</text>
</g>
<!-- x7&#45;&gt;g1 -->
<g id="edge20" class="edge">
<title>x7&#45;&gt;g1</title>
<path fill="none" stroke="black" d="M185.46,-297.38C193.15,-351.73 216.8,-518.73 226.14,-584.74"/>
<polygon fill="black" stroke="black" points="222.7,-585.38 227.56,-594.79 229.63,-584.4 222.7,-585.38"/>
</g>
<!-- x10 -->
<g id="node11" class="node">
<title>x10</title>
<ellipse fill="none" stroke="black" cx="111" cy="-453" rx="53.09" ry="18"/>
<text text-anchor="middle" x="111" y="-449.3" font-family="Times,serif" font-size="14.00">f10: AND</text>
</g>
<!-- x8&#45;&gt;x10 -->
<g id="edge15" class="edge">
<title>x8&#45;&gt;x10</title>
<path fill="none" stroke="black" d="M73.91,-209.88C60.7,-243.85 35.54,-322.47 57,-384 62.82,-400.7 74.65,-416.37 85.75,-428.45"/>
<polygon fill="black" stroke="black" points="83.42,-431.07 92.87,-435.85 88.46,-426.22 83.42,-431.07"/>
<text text-anchor="middle" x="61.5" y="-318.8" font-family="Times,serif" font-size="14.00">in1</text>
</g>
<!-- x9&#45;&gt;x10 -->
<g id="edge16" class="edge">
<title>x9&#45;&gt;x10</title>
<path fill="none" stroke="black" d="M117.38,-384.2C116.29,-395.84 114.82,-411.45 113.56,-424.76"/>
<polygon fill="black" stroke="black" points="110.07,-424.54 112.62,-434.82 117.04,-425.2 110.07,-424.54"/>
<text text-anchor="middle" x="127.5" y="-405.8" font-family="Times,serif" font-size="14.00">in2</text>
</g>
<!-- x10&#45;&gt;x11 -->
<g id="edge18" class="edge">
<title>x10&#45;&gt;x11</title>
<path fill="none" stroke="black" d="M119.69,-470.79C125.96,-482.9 134.54,-499.47 141.67,-513.24"/>
<polygon fill="black" stroke="black" points="138.62,-514.97 146.33,-522.24 144.84,-511.75 138.62,-514.97"/>
<text text-anchor="middle" x="147.5" y="-492.8" font-family="Times,serif" font-size="14.00">in2</text>
</g>
<!-- g0 -->
<g id="node13" class="node">
<title>g0</title>
<ellipse fill="none" stroke="black" cx="155" cy="-613" rx="27" ry="18"/>
<text text-anchor="middle" x="155" y="-609.3" font-family="Times,serif" font-size="14.00">g0</text>
</g>
<!-- x11&#45;&gt;g0 -->
<g id="edge19" class="edge">
<title>x11&#45;&gt;g0</title>
<path fill="none" stroke="black" d="M155,-558.19C155,-566.21 155,-575.95 155,-584.93"/>
<polygon fill="black" stroke="black" points="151.5,-584.97 155,-594.97 158.5,-584.97 151.5,-584.97"/>
</g>
</g>
</svg>
