<?xml version="1.0" encoding="UTF-8" standalone="no"?>
<!DOCTYPE svg PUBLIC "-//W3C//DTD SVG 1.1//EN"
 "http://www.w3.org/Graphics/SVG/1.1/DTD/svg11.dtd">
<!-- Generated by graphviz version 2.42.3 (0)
 -->
<!-- Title: Circ Pages: 1 -->
<svg width="699pt" height="1116pt"
 viewBox="0.00 0.00 699.00 1116.00" xmlns="http://www.w3.org/2000/svg" xmlns:xlink="http://www.w3.org/1999/xlink">
<g id="graph0" class="graph" transform="scale(1 1) rotate(0) translate(4 1112)">
<title>Circ</title>
<polygon fill="white" stroke="transparent" points="-4,4 -4,-1112 695,-1112 695,4 -4,4"/>
<!-- x0 -->
<g id="node1" class="node">
<title>x0</title>
<ellipse fill="none" stroke="black" cx="135" cy="-18" rx="27" ry="18"/>
<text text-anchor="middle" x="135" y="-14.3" font-family="Times,serif" font-size="14.00">x0</text>
</g>
<!-- x5 -->
<g id="node6" class="node">
<title>x5</title>
<ellipse fill="none" stroke="black" cx="248" cy="-192" rx="47.39" ry="18"/>
<text text-anchor="middle" x="248" y="-188.3" font-family="Times,serif" font-size="14.00">f5: AND</text>
</g>
<!-- x0&#45;&gt;x5 -->
<g id="edge5" class="edge">
<title>x0&#45;&gt;x5</title>
<path fill="none" stroke="black" d="M152.15,-32.17C159.44,-38.3 167.69,-46 174,-54 201.54,-88.95 224.25,-135.59 236.97,-164.44"/>
<polygon fill="black" stroke="black" points="233.86,-166.07 241.04,-173.86 240.28,-163.29 233.86,-166.07"/>
<text text-anchor="middle" x="227.5" y="-101.3" font-family="Times,serif" font-size="14.00">in1</text>
</g>
<!-- x6 -->
<g id="node7" class="node">
<title>x6</title>
<ellipse fill="none" stroke="black" cx="361" cy="-192" rx="47.39" ry="18"/>
<text text-anchor="middle" x="361" y="-188.3" font-family="Times,serif" font-size="14.00">f6: AND</text>
</g>
<!-- x0&#45;&gt;x6 -->
<g id="edge7" class="edge">
<title>x0&#45;&gt;x6</title>
<path fill="none" stroke="black" d="M154.33,-30.71C165.4,-37.46 179.52,-46.14 192,-54 214.84,-68.4 222.13,-69.87 243,-87 276.04,-114.12 277.33,-128.44 310,-156 315.87,-160.95 322.44,-165.87 328.86,-170.38"/>
<polygon fill="black" stroke="black" points="327.21,-173.49 337.44,-176.25 331.16,-167.72 327.21,-173.49"/>
<text text-anchor="middle" x="288.5" y="-101.3" font-family="Times,serif" font-size="14.00">in1</text>
</g>
<!-- x7 -->
<g id="node8" class="node">
<title>x7</title>
<ellipse fill="none" stroke="black" cx="152" cy="-246" rx="40.09" ry="18"/>
<text text-anchor="middle" x="152" y="-242.3" font-family="Times,serif" font-size="14.00">f7: OR</text>
</g>
<!-- x0&#45;&gt;x7 -->
<g id="edge9" class="edge">
<title>x0&#45;&gt;x7</title>
<path fill="none" stroke="black" d="M131.16,-35.94C128.27,-49.63 124.54,-69.44 123,-87 118.2,-141.86 123.01,-157.01 138,-210 138.8,-212.83 139.75,-215.75 140.78,-218.64"/>
<polygon fill="black" stroke="black" points="137.58,-220.08 144.43,-228.16 144.12,-217.57 137.58,-220.08"/>
<text text-anchor="middle" x="134.5" y="-101.3" font-family="Times,serif" font-size="14.00">in1</text>
</g>
<!-- x9 -->
<g id="node10" class="node">
<title>x9</title>
<ellipse fill="none" stroke="black" cx="347" cy="-387" rx="52.79" ry="18"/>
<text text-anchor="middle" x="347" y="-383.3" font-family="Times,serif" font-size="14.00">f9: NOT2</text>
</g>
<!-- x0&#45;&gt;x9 -->
<g id="edge13" class="edge">
<title>x0&#45;&gt;x9</title>
<path fill="none" stroke="black" d="M137.82,-35.91C145.53,-81.96 166.54,-206.37 169,-210 177.51,-222.56 186.25,-218.4 198,-228 249.19,-269.83 300.15,-328.48 327.19,-361.28"/>
<polygon fill="black" stroke="black" points="324.81,-363.9 333.85,-369.43 330.23,-359.47 324.81,-363.9"/>
<text text-anchor="middle" x="180.5" y="-188.3" font-family="Times,serif" font-size="14.00">in1</text>
</g>
<!-- x13 -->
<g id="node14" class="node">
<title>x13</title>
<ellipse fill="none" stroke="black" cx="206" cy="-735" rx="53.09" ry="18"/>
<text text-anchor="middle" x="206" y="-731.3" font-family="Times,serif" font-size="14.00">f13: AND</text>
</g>
<!-- x0&#45;&gt;x13 -->
<g id="edge21" class="edge">
<title>x0&#45;&gt;x13</title>
<path fill="none" stroke="black" d="M111.52,-27.58C82.81,-39.77 38,-65.04 38,-104 38,-104 38,-104 38,-247 38,-370.32 104,-393.18 104,-516.5 104,-516.5 104,-516.5 104,-649 104,-681.1 134.18,-703.43 161.71,-717.12"/>
<polygon fill="black" stroke="black" points="160.36,-720.35 170.9,-721.43 163.33,-714.01 160.36,-720.35"/>
<text text-anchor="middle" x="91.5" y="-383.3" font-family="Times,serif" font-size="14.00">in1</text>
</g>
<!-- x20 -->
<g id="node21" class="node">
<title>x20</title>
<ellipse fill="none" stroke="black" cx="89" cy="-735" rx="46.29" ry="18"/>
<text text-anchor="middle" x="89" y="-731.3" font-family="Times,serif" font-size="14.00">f20: OR</text>
</g>
<!-- x0&#45;&gt;x20 -->
<g id="edge35" class="edge">
<title>x0&#45;&gt;x20</title>
<path fill="none" stroke="black" d="M108.32,-21.4C83.82,-24.87 47.81,-33.35 24,-54 5.38,-70.15 0,-79.35 0,-104 0,-104 0,-104 0,-344.5 0,-426.38 66,-434.62 66,-516.5 66,-516.5 66,-516.5 66,-649 66,-669.13 72.08,-691.04 77.99,-707.57"/>
<polygon fill="black" stroke="black" points="74.79,-708.99 81.6,-717.11 81.34,-706.52 74.79,-708.99"/>
<text text-anchor="middle" x="27.5" y="-383.3" font-family="Times,serif" font-size="14.00">in1</text>
</g>
<!-- x1 -->
<g id="node2" class="node">
<title>x1</title>
<ellipse fill="none" stroke="black" cx="409" cy="-18" rx="27" ry="18"/>
<text text-anchor="middle" x="409" y="-14.3" font-family="Times,serif" font-size="14.00">x1</text>
</g>
<!-- x3 -->
<g id="node4" class="node">
<title>x3</title>
<ellipse fill="none" stroke="black" cx="425" cy="-105" rx="40.09" ry="18"/>
<text text-anchor="middle" x="425" y="-101.3" font-family="Times,serif" font-size="14.00">f3: OR</text>
</g>
<!-- x1&#45;&gt;x3 -->
<g id="edge1" class="edge">
<title>x1&#45;&gt;x3</title>
<path fill="none" stroke="black" d="M407.73,-36.31C407.42,-46.03 407.69,-58.31 410,-69 410.63,-71.91 411.5,-74.88 412.51,-77.79"/>
<polygon fill="black" stroke="black" points="409.36,-79.35 416.31,-87.34 415.86,-76.76 409.36,-79.35"/>
<text text-anchor="middle" x="421.5" y="-57.8" font-family="Times,serif" font-size="14.00">in1</text>
</g>
<!-- x4 -->
<g id="node5" class="node">
<title>x4</title>
<ellipse fill="none" stroke="black" cx="531" cy="-105" rx="47.39" ry="18"/>
<text text-anchor="middle" x="531" y="-101.3" font-family="Times,serif" font-size="14.00">f4: AND</text>
</g>
<!-- x1&#45;&gt;x4 -->
<g id="edge3" class="edge">
<title>x1&#45;&gt;x4</title>
<path fill="none" stroke="black" d="M431.41,-28.12C445.64,-34.4 464.13,-43.5 479,-54 489.87,-61.67 500.68,-71.59 509.6,-80.57"/>
<polygon fill="black" stroke="black" points="507.14,-83.06 516.61,-87.82 512.17,-78.19 507.14,-83.06"/>
<text text-anchor="middle" x="508.5" y="-57.8" font-family="Times,serif" font-size="14.00">in1</text>
</g>
<!-- x16 -->
<g id="node17" class="node">
<title>x16</title>
<ellipse fill="none" stroke="black" cx="284" cy="-930" rx="53.09" ry="18"/>
<text text-anchor="middle" x="284" y="-926.3" font-family="Times,serif" font-size="14.00">f16: AND</text>
</g>
<!-- x1&#45;&gt;x16 -->
<g id="edge27" class="edge">
<title>x1&#45;&gt;x16</title>
<path fill="none" stroke="black" d="M397.09,-34.19C378.84,-56.54 341.86,-98.3 302,-123 243.93,-158.98 214.81,-137.61 157,-174 128.28,-192.08 120.47,-198.9 103,-228 85.75,-256.73 15,-482.99 15,-516.5 15,-516.5 15,-516.5 15,-692.5 15,-720.68 12.81,-734.42 34,-753 68.95,-783.63 96.16,-748.83 137,-771 196.2,-803.13 244.74,-868.04 268.4,-903.86"/>
<polygon fill="black" stroke="black" points="265.5,-905.81 273.88,-912.3 271.37,-902 265.5,-905.81"/>
<text text-anchor="middle" x="39.5" y="-470.3" font-family="Times,serif" font-size="14.00">in1</text>
</g>
<!-- x2 -->
<g id="node3" class="node">
<title>x2</title>
<ellipse fill="none" stroke="black" cx="547" cy="-18" rx="27" ry="18"/>
<text text-anchor="middle" x="547" y="-14.3" font-family="Times,serif" font-size="14.00">x2</text>
</g>
<!-- x2&#45;&gt;x3 -->
<g id="edge2" class="edge">
<title>x2&#45;&gt;x3</title>
<path fill="none" stroke="black" d="M521.58,-24.1C501.96,-29.07 475.04,-38.24 456,-54 448.14,-60.5 441.7,-69.54 436.76,-78.15"/>
<polygon fill="black" stroke="black" points="433.57,-76.7 432,-87.18 439.76,-79.97 433.57,-76.7"/>
<text text-anchor="middle" x="467.5" y="-57.8" font-family="Times,serif" font-size="14.00">in2</text>
</g>
<!-- x2&#45;&gt;x4 -->
<g id="edge4" class="edge">
<title>x2&#45;&gt;x4</title>
<path fill="none" stroke="black" d="M543.76,-36.2C541.57,-47.84 538.63,-63.45 536.13,-76.76"/>
<polygon fill="black" stroke="black" points="532.64,-76.35 534.23,-86.82 539.52,-77.64 532.64,-76.35"/>
<text text-anchor="middle" x="550.5" y="-57.8" font-family="Times,serif" font-size="14.00">in2</text>
</g>
<!-- x18 -->
<g id="node19" class="node">
<title>x18</title>
<ellipse fill="none" stroke="black" cx="518" cy="-930" rx="53.09" ry="18"/>
<text text-anchor="middle" x="518" y="-926.3" font-family="Times,serif" font-size="14.00">f18: AND</text>
</g>
<!-- x2&#45;&gt;x18 -->
<g id="edge31" class="edge">
<title>x2&#45;&gt;x18</title>
<path fill="none" stroke="black" d="M567.1,-30.25C589.31,-44.35 622,-70.74 622,-104 622,-104 622,-104 622,-823 622,-861.9 585.87,-891.77 556.2,-909.74"/>
<polygon fill="black" stroke="black" points="554.14,-906.89 547.25,-914.93 557.65,-912.94 554.14,-906.89"/>
<text text-anchor="middle" x="633.5" y="-470.3" font-family="Times,serif" font-size="14.00">in1</text>
</g>
<!-- x3&#45;&gt;x6 -->
<g id="edge8" class="edge">
<title>x3&#45;&gt;x6</title>
<path fill="none" stroke="black" d="M408.26,-121.67C402.48,-127.48 396.16,-134.29 391,-141 385.17,-148.58 379.56,-157.37 374.8,-165.45"/>
<polygon fill="black" stroke="black" points="371.74,-163.75 369.82,-174.17 377.82,-167.22 371.74,-163.75"/>
<text text-anchor="middle" x="402.5" y="-144.8" font-family="Times,serif" font-size="14.00">in2</text>
</g>
<!-- x3&#45;&gt;x7 -->
<g id="edge10" class="edge">
<title>x3&#45;&gt;x7</title>
<path fill="none" stroke="black" d="M429.48,-122.95C434.43,-145.92 439.04,-186.73 417,-210 402.48,-225.34 274.6,-236.56 201.93,-241.76"/>
<polygon fill="black" stroke="black" points="201.36,-238.3 191.63,-242.49 201.85,-245.28 201.36,-238.3"/>
<text text-anchor="middle" x="444.5" y="-144.8" font-family="Times,serif" font-size="14.00">in2</text>
</g>
<!-- x14 -->
<g id="node15" class="node">
<title>x14</title>
<ellipse fill="none" stroke="black" cx="423" cy="-474" rx="53.09" ry="18"/>
<text text-anchor="middle" x="423" y="-470.3" font-family="Times,serif" font-size="14.00">f14: AND</text>
</g>
<!-- x3&#45;&gt;x14 -->
<g id="edge23" class="edge">
<title>x3&#45;&gt;x14</title>
<path fill="none" stroke="black" d="M443.68,-121.23C449.62,-126.9 455.75,-133.73 460,-141 471.65,-160.92 474,-167.92 474,-191 474,-191 474,-191 474,-388 474,-411.01 460.09,-433.17 446.8,-449.09"/>
<polygon fill="black" stroke="black" points="443.97,-447 439.98,-456.82 449.22,-451.63 443.97,-447"/>
<text text-anchor="middle" x="485.5" y="-296.3" font-family="Times,serif" font-size="14.00">in1</text>
</g>
<!-- x4&#45;&gt;x5 -->
<g id="edge6" class="edge">
<title>x4&#45;&gt;x5</title>
<path fill="none" stroke="black" d="M495.93,-117.31C488.73,-119.39 481.16,-121.41 474,-123 420.93,-134.8 405,-125.14 353,-141 328.33,-148.53 302.13,-160.99 282.07,-171.6"/>
<polygon fill="black" stroke="black" points="280.18,-168.64 273.03,-176.47 283.5,-174.8 280.18,-168.64"/>
<text text-anchor="middle" x="364.5" y="-144.8" font-family="Times,serif" font-size="14.00">in2</text>
</g>
<!-- x8 -->
<g id="node9" class="node">
<title>x8</title>
<ellipse fill="none" stroke="black" cx="361" cy="-300" rx="40.09" ry="18"/>
<text text-anchor="middle" x="361" y="-296.3" font-family="Times,serif" font-size="14.00">f8: OR</text>
</g>
<!-- x4&#45;&gt;x8 -->
<g id="edge11" class="edge">
<title>x4&#45;&gt;x8</title>
<path fill="none" stroke="black" d="M517.12,-122.27C508.73,-132.07 497.79,-144.79 488,-156 451.21,-198.1 407.87,-246.68 382.52,-275.01"/>
<polygon fill="black" stroke="black" points="379.62,-272.99 375.56,-282.78 384.84,-277.66 379.62,-272.99"/>
<text text-anchor="middle" x="481.5" y="-188.3" font-family="Times,serif" font-size="14.00">in1</text>
</g>
<!-- x19 -->
<g id="node20" class="node">
<title>x19</title>
<ellipse fill="none" stroke="black" cx="540" cy="-474" rx="46.29" ry="18"/>
<text text-anchor="middle" x="540" y="-470.3" font-family="Times,serif" font-size="14.00">f19: OR</text>
</g>
<!-- x4&#45;&gt;x19 -->
<g id="edge33" class="edge">
<title>x4&#45;&gt;x19</title>
<path fill="none" stroke="black" d="M544.1,-122.5C555.76,-138.89 571,-165.23 571,-191 571,-191 571,-191 571,-388 571,-408.88 562.64,-430.99 554.61,-447.43"/>
<polygon fill="black" stroke="black" points="551.45,-445.9 549.98,-456.39 557.68,-449.11 551.45,-445.9"/>
<text text-anchor="middle" x="582.5" y="-296.3" font-family="Times,serif" font-size="14.00">in1</text>
</g>
<!-- x10 -->
<g id="node11" class="node">
<title>x10</title>
<ellipse fill="none" stroke="black" cx="268" cy="-474" rx="46.29" ry="18"/>
<text text-anchor="middle" x="268" y="-470.3" font-family="Times,serif" font-size="14.00">f10: OR</text>
</g>
<!-- x5&#45;&gt;x10 -->
<g id="edge15" class="edge">
<title>x5&#45;&gt;x10</title>
<path fill="none" stroke="black" d="M249.22,-210.09C252.58,-257.05 261.95,-388.35 266.05,-445.66"/>
<polygon fill="black" stroke="black" points="262.57,-446.05 266.77,-455.77 269.55,-445.55 262.57,-446.05"/>
<text text-anchor="middle" x="270.5" y="-339.8" font-family="Times,serif" font-size="14.00">in1</text>
</g>
<!-- x6&#45;&gt;x8 -->
<g id="edge12" class="edge">
<title>x6&#45;&gt;x8</title>
<path fill="none" stroke="black" d="M361,-210.03C361,-226.62 361,-252.12 361,-271.57"/>
<polygon fill="black" stroke="black" points="357.5,-271.66 361,-281.66 364.5,-271.66 357.5,-271.66"/>
<text text-anchor="middle" x="372.5" y="-242.3" font-family="Times,serif" font-size="14.00">in2</text>
</g>
<!-- x11 -->
<g id="node12" class="node">
<title>x11</title>
<ellipse fill="none" stroke="black" cx="229" cy="-561" rx="53.09" ry="18"/>
<text text-anchor="middle" x="229" y="-557.3" font-family="Times,serif" font-size="14.00">f11: AND</text>
</g>
<!-- x7&#45;&gt;x11 -->
<g id="edge17" class="edge">
<title>x7&#45;&gt;x11</title>
<path fill="none" stroke="black" d="M164.15,-263.29C176.55,-281.58 194,-312.61 194,-342.5 194,-342.5 194,-342.5 194,-475 194,-496.08 203.32,-518.03 212.34,-534.35"/>
<polygon fill="black" stroke="black" points="209.47,-536.39 217.54,-543.25 215.52,-532.85 209.47,-536.39"/>
<text text-anchor="middle" x="205.5" y="-383.3" font-family="Times,serif" font-size="14.00">in1</text>
</g>
<!-- x12 -->
<g id="node13" class="node">
<title>x12</title>
<ellipse fill="none" stroke="black" cx="206" cy="-648" rx="58.49" ry="18"/>
<text text-anchor="middle" x="206" y="-644.3" font-family="Times,serif" font-size="14.00">f12: NOT2</text>
</g>
<!-- x7&#45;&gt;x12 -->
<g id="edge19" class="edge">
<title>x7&#45;&gt;x12</title>
<path fill="none" stroke="black" d="M150.84,-264.24C149.66,-283.36 148,-315.12 148,-342.5 148,-342.5 148,-342.5 148,-562 148,-585.95 163.91,-608.13 179.06,-623.82"/>
<polygon fill="black" stroke="black" points="176.77,-626.48 186.36,-630.98 181.67,-621.48 176.77,-626.48"/>
<text text-anchor="middle" x="159.5" y="-426.8" font-family="Times,serif" font-size="14.00">in1</text>
</g>
<!-- x8&#45;&gt;x9 -->
<g id="edge14" class="edge">
<title>x8&#45;&gt;x9</title>
<path fill="none" stroke="black" d="M358.17,-318.2C356.25,-329.84 353.68,-345.45 351.49,-358.76"/>
<polygon fill="black" stroke="black" points="348,-358.39 349.83,-368.82 354.91,-359.53 348,-358.39"/>
<text text-anchor="middle" x="365.5" y="-339.8" font-family="Times,serif" font-size="14.00">in2</text>
</g>
<!-- x9&#45;&gt;x10 -->
<g id="edge16" class="edge">
<title>x9&#45;&gt;x10</title>
<path fill="none" stroke="black" d="M326.05,-403.81C319.04,-409.52 311.38,-416.24 305,-423 297.74,-430.69 290.62,-439.82 284.59,-448.16"/>
<polygon fill="black" stroke="black" points="281.64,-446.27 278.75,-456.47 287.36,-450.3 281.64,-446.27"/>
<text text-anchor="middle" x="316.5" y="-426.8" font-family="Times,serif" font-size="14.00">in2</text>
</g>
<!-- x9&#45;&gt;x14 -->
<g id="edge24" class="edge">
<title>x9&#45;&gt;x14</title>
<path fill="none" stroke="black" d="M361.65,-404.39C373.01,-417.09 388.9,-434.87 401.67,-449.14"/>
<polygon fill="black" stroke="black" points="399.12,-451.54 408.39,-456.66 404.34,-446.87 399.12,-451.54"/>
<text text-anchor="middle" x="400.5" y="-426.8" font-family="Times,serif" font-size="14.00">in2</text>
</g>
<!-- x9&#45;&gt;x19 -->
<g id="edge34" class="edge">
<title>x9&#45;&gt;x19</title>
<path fill="none" stroke="black" d="M378.01,-401.66C411.56,-416.43 465.11,-440.02 501.37,-455.99"/>
<polygon fill="black" stroke="black" points="500.09,-459.25 510.65,-460.07 502.91,-452.84 500.09,-459.25"/>
<text text-anchor="middle" x="466.5" y="-426.8" font-family="Times,serif" font-size="14.00">in2</text>
</g>
<!-- x21 -->
<g id="node22" class="node">
<title>x21</title>
<ellipse fill="none" stroke="black" cx="150" cy="-876" rx="53.09" ry="18"/>
<text text-anchor="middle" x="150" y="-872.3" font-family="Times,serif" font-size="14.00">f21: AND</text>
</g>
<!-- x9&#45;&gt;x21 -->
<g id="edge37" class="edge">
<title>x9&#45;&gt;x21</title>
<path fill="none" stroke="black" d="M345.39,-405.24C343.93,-422.4 342,-449.5 342,-473 342,-473 342,-473 342,-649 342,-744.59 241.01,-820.4 185.52,-854.84"/>
<polygon fill="black" stroke="black" points="183.42,-852.02 176.7,-860.2 187.06,-858 183.42,-852.02"/>
<text text-anchor="middle" x="353.5" y="-600.8" font-family="Times,serif" font-size="14.00">in1</text>
</g>
<!-- x10&#45;&gt;x11 -->
<g id="edge18" class="edge">
<title>x10&#45;&gt;x11</title>
<path fill="none" stroke="black" d="M260.29,-491.79C254.83,-503.71 247.38,-519.94 241.12,-533.58"/>
<polygon fill="black" stroke="black" points="237.81,-532.4 236.82,-542.95 244.17,-535.32 237.81,-532.4"/>
<text text-anchor="middle" x="261.5" y="-513.8" font-family="Times,serif" font-size="14.00">in2</text>
</g>
<!-- x11&#45;&gt;x12 -->
<g id="edge20" class="edge">
<title>x11&#45;&gt;x12</title>
<path fill="none" stroke="black" d="M224.35,-579.2C221.17,-590.95 216.89,-606.76 213.26,-620.16"/>
<polygon fill="black" stroke="black" points="209.88,-619.26 210.65,-629.82 216.64,-621.09 209.88,-619.26"/>
<text text-anchor="middle" x="229.5" y="-600.8" font-family="Times,serif" font-size="14.00">in2</text>
</g>
<!-- x12&#45;&gt;x13 -->
<g id="edge22" class="edge">
<title>x12&#45;&gt;x13</title>
<path fill="none" stroke="black" d="M206,-666.2C206,-677.84 206,-693.45 206,-706.76"/>
<polygon fill="black" stroke="black" points="202.5,-706.82 206,-716.82 209.5,-706.82 202.5,-706.82"/>
<text text-anchor="middle" x="217.5" y="-687.8" font-family="Times,serif" font-size="14.00">in2</text>
</g>
<!-- x17 -->
<g id="node18" class="node">
<title>x17</title>
<ellipse fill="none" stroke="black" cx="401" cy="-930" rx="46.29" ry="18"/>
<text text-anchor="middle" x="401" y="-926.3" font-family="Times,serif" font-size="14.00">f17: OR</text>
</g>
<!-- x12&#45;&gt;x17 -->
<g id="edge29" class="edge">
<title>x12&#45;&gt;x17</title>
<path fill="none" stroke="black" d="M222.42,-665.32C235.46,-678.66 253.79,-698.3 268,-717 274.54,-725.6 351.27,-848.92 385.12,-903.42"/>
<polygon fill="black" stroke="black" points="382.3,-905.5 390.54,-912.15 388.24,-901.81 382.3,-905.5"/>
<text text-anchor="middle" x="322.5" y="-774.8" font-family="Times,serif" font-size="14.00">in1</text>
</g>
<!-- x12&#45;&gt;x20 -->
<g id="edge36" class="edge">
<title>x12&#45;&gt;x20</title>
<path fill="none" stroke="black" d="M184.27,-664.79C165.65,-678.32 138.67,-697.91 118.17,-712.8"/>
<polygon fill="black" stroke="black" points="115.86,-710.16 109.83,-718.87 119.98,-715.82 115.86,-710.16"/>
<text text-anchor="middle" x="165.5" y="-687.8" font-family="Times,serif" font-size="14.00">in2</text>
</g>
<!-- x15 -->
<g id="node16" class="node">
<title>x15</title>
<ellipse fill="none" stroke="black" cx="401" cy="-822" rx="46.29" ry="18"/>
<text text-anchor="middle" x="401" y="-818.3" font-family="Times,serif" font-size="14.00">f15: OR</text>
</g>
<!-- x13&#45;&gt;x15 -->
<g id="edge25" class="edge">
<title>x13&#45;&gt;x15</title>
<path fill="none" stroke="black" d="M256.14,-741.23C285.27,-745.9 321.86,-754.66 351,-771 362.54,-777.47 373.23,-787.36 381.74,-796.64"/>
<polygon fill="black" stroke="black" points="379.13,-798.97 388.34,-804.21 384.4,-794.37 379.13,-798.97"/>
<text text-anchor="middle" x="382.5" y="-774.8" font-family="Times,serif" font-size="14.00">in1</text>
</g>
<!-- x14&#45;&gt;x15 -->
<g id="edge26" class="edge">
<title>x14&#45;&gt;x15</title>
<path fill="none" stroke="black" d="M421.71,-492.25C420.54,-509.41 419,-536.51 419,-560 419,-560 419,-560 419,-736 419,-755.67 414.33,-777.37 409.74,-793.91"/>
<polygon fill="black" stroke="black" points="406.25,-793.39 406.79,-803.97 412.97,-795.36 406.25,-793.39"/>
<text text-anchor="middle" x="430.5" y="-644.3" font-family="Times,serif" font-size="14.00">in2</text>
</g>
<!-- x15&#45;&gt;x16 -->
<g id="edge28" class="edge">
<title>x15&#45;&gt;x16</title>
<path fill="none" stroke="black" d="M383.48,-838.87C363.87,-856.64 331.9,-885.61 309.5,-905.89"/>
<polygon fill="black" stroke="black" points="307.08,-903.37 302.02,-912.67 311.78,-908.55 307.08,-903.37"/>
<text text-anchor="middle" x="370.5" y="-872.3" font-family="Times,serif" font-size="14.00">in2</text>
</g>
<!-- x15&#45;&gt;x17 -->
<g id="edge30" class="edge">
<title>x15&#45;&gt;x17</title>
<path fill="none" stroke="black" d="M401,-840.03C401,-856.62 401,-882.12 401,-901.57"/>
<polygon fill="black" stroke="black" points="397.5,-901.66 401,-911.66 404.5,-901.66 397.5,-901.66"/>
<text text-anchor="middle" x="412.5" y="-872.3" font-family="Times,serif" font-size="14.00">in2</text>
</g>
<!-- x15&#45;&gt;x18 -->
<g id="edge32" class="edge">
<title>x15&#45;&gt;x18</title>
<path fill="none" stroke="black" d="M418.52,-838.87C438.13,-856.64 470.1,-885.61 492.5,-905.89"/>
<polygon fill="black" stroke="black" points="490.22,-908.55 499.98,-912.67 494.92,-903.37 490.22,-908.55"/>
<text text-anchor="middle" x="487.5" y="-872.3" font-family="Times,serif" font-size="14.00">in2</text>
</g>
<!-- x22 -->
<g id="node23" class="node">
<title>x22</title>
<ellipse fill="none" stroke="black" cx="136" cy="-1017" rx="46.29" ry="18"/>
<text text-anchor="middle" x="136" y="-1013.3" font-family="Times,serif" font-size="14.00">f22: OR</text>
</g>
<!-- x16&#45;&gt;x22 -->
<g id="edge39" class="edge">
<title>x16&#45;&gt;x22</title>
<path fill="none" stroke="black" d="M258.22,-945.81C233.67,-959.91 196.57,-981.22 169.68,-996.65"/>
<polygon fill="black" stroke="black" points="167.92,-993.63 160.99,-1001.65 171.41,-999.7 167.92,-993.63"/>
<text text-anchor="middle" x="229.5" y="-969.8" font-family="Times,serif" font-size="14.00">in1</text>
</g>
<!-- x24 -->
<g id="node25" class="node">
<title>x24</title>
<ellipse fill="none" stroke="black" cx="596" cy="-1017" rx="53.09" ry="18"/>
<text text-anchor="middle" x="596" y="-1013.3" font-family="Times,serif" font-size="14.00">f24: AND</text>
</g>
<!-- x17&#45;&gt;x24 -->
<g id="edge43" class="edge">
<title>x17&#45;&gt;x24</title>
<path fill="none" stroke="black" d="M430.62,-943.91C463.77,-958.36 517.72,-981.88 554.94,-998.1"/>
<polygon fill="black" stroke="black" points="553.92,-1001.48 564.49,-1002.26 556.72,-995.06 553.92,-1001.48"/>
<text text-anchor="middle" x="521.5" y="-969.8" font-family="Times,serif" font-size="14.00">in1</text>
</g>
<!-- x23 -->
<g id="node24" class="node">
<title>x23</title>
<ellipse fill="none" stroke="black" cx="265" cy="-1017" rx="46.29" ry="18"/>
<text text-anchor="middle" x="265" y="-1013.3" font-family="Times,serif" font-size="14.00">f23: OR</text>
</g>
<!-- x18&#45;&gt;x23 -->
<g id="edge41" class="edge">
<title>x18&#45;&gt;x23</title>
<path fill="none" stroke="black" d="M481.48,-943.27C435.65,-958.67 357.14,-985.04 308.32,-1001.44"/>
<polygon fill="black" stroke="black" points="307.04,-998.18 298.68,-1004.69 309.27,-1004.82 307.04,-998.18"/>
<text text-anchor="middle" x="417.5" y="-969.8" font-family="Times,serif" font-size="14.00">in1</text>
</g>
<!-- x19&#45;&gt;x24 -->
<g id="edge44" class="edge">
<title>x19&#45;&gt;x24</title>
<path fill="none" stroke="black" d="M569.69,-487.84C607.5,-505.15 668,-536.53 668,-560 668,-560 668,-560 668,-931 668,-957.23 647.79,-979.52 628.79,-994.69"/>
<polygon fill="black" stroke="black" points="626.64,-991.92 620.78,-1000.75 630.87,-997.51 626.64,-991.92"/>
<text text-anchor="middle" x="679.5" y="-731.3" font-family="Times,serif" font-size="14.00">in2</text>
</g>
<!-- x20&#45;&gt;x21 -->
<g id="edge38" class="edge">
<title>x20&#45;&gt;x21</title>
<path fill="none" stroke="black" d="M96.48,-753.04C106.95,-776.91 126.08,-820.5 138.41,-848.59"/>
<polygon fill="black" stroke="black" points="135.24,-850.07 142.46,-857.82 141.65,-847.25 135.24,-850.07"/>
<text text-anchor="middle" x="121.5" y="-774.8" font-family="Times,serif" font-size="14.00">in2</text>
</g>
<!-- x21&#45;&gt;x22 -->
<g id="edge40" class="edge">
<title>x21&#45;&gt;x22</title>
<path fill="none" stroke="black" d="M147.37,-894.07C146.54,-899.76 145.67,-906.15 145,-912 142.03,-937.91 139.56,-967.56 137.96,-988.55"/>
<polygon fill="black" stroke="black" points="134.46,-988.44 137.2,-998.67 141.44,-988.96 134.46,-988.44"/>
<text text-anchor="middle" x="156.5" y="-926.3" font-family="Times,serif" font-size="14.00">in2</text>
</g>
<!-- x21&#45;&gt;x23 -->
<g id="edge42" class="edge">
<title>x21&#45;&gt;x23</title>
<path fill="none" stroke="black" d="M160.54,-893.92C169.99,-908.67 184.56,-930.4 199,-948 212,-963.84 227.97,-980.36 240.95,-993.16"/>
<polygon fill="black" stroke="black" points="238.6,-995.75 248.2,-1000.22 243.48,-990.74 238.6,-995.75"/>
<text text-anchor="middle" x="210.5" y="-926.3" font-family="Times,serif" font-size="14.00">in2</text>
</g>
<!-- g2 -->
<g id="node28" class="node">
<title>g2</title>
<ellipse fill="none" stroke="black" cx="136" cy="-1090" rx="27" ry="18"/>
<text text-anchor="middle" x="136" y="-1086.3" font-family="Times,serif" font-size="14.00">g2</text>
</g>
<!-- x22&#45;&gt;g2 -->
<g id="edge47" class="edge">
<title>x22&#45;&gt;g2</title>
<path fill="none" stroke="black" d="M136,-1035.19C136,-1043.21 136,-1052.95 136,-1061.93"/>
<polygon fill="black" stroke="black" points="132.5,-1061.97 136,-1071.97 139.5,-1061.97 132.5,-1061.97"/>
</g>
<!-- g1 -->
<g id="node27" class="node">
<title>g1</title>
<ellipse fill="none" stroke="black" cx="265" cy="-1090" rx="27" ry="18"/>
<text text-anchor="middle" x="265" y="-1086.3" font-family="Times,serif" font-size="14.00">g1</text>
</g>
<!-- x23&#45;&gt;g1 -->
<g id="edge46" class="edge">
<title>x23&#45;&gt;g1</title>
<path fill="none" stroke="black" d="M265,-1035.19C265,-1043.21 265,-1052.95 265,-1061.93"/>
<polygon fill="black" stroke="black" points="261.5,-1061.97 265,-1071.97 268.5,-1061.97 261.5,-1061.97"/>
</g>
<!-- g0 -->
<g id="node26" class="node">
<title>g0</title>
<ellipse fill="none" stroke="black" cx="596" cy="-1090" rx="27" ry="18"/>
<text text-anchor="middle" x="596" y="-1086.3" font-family="Times,serif" font-size="14.00">g0</text>
</g>
<!-- x24&#45;&gt;g0 -->
<g id="edge45" class="edge">
<title>x24&#45;&gt;g0</title>
<path fill="none" stroke="black" d="M596,-1035.19C596,-1043.21 596,-1052.95 596,-1061.93"/>
<polygon fill="black" stroke="black" points="592.5,-1061.97 596,-1071.97 599.5,-1061.97 592.5,-1061.97"/>
</g>
</g>
</svg>
