<?xml version="1.0" encoding="UTF-8" standalone="no"?>
<!DOCTYPE svg PUBLIC "-//W3C//DTD SVG 1.1//EN"
 "http://www.w3.org/Graphics/SVG/1.1/DTD/svg11.dtd">
<!-- Generated by graphviz version 2.42.3 (0)
 -->
<!-- Title: Circ Pages: 1 -->
<svg width="559pt" height="1203pt"
 viewBox="0.00 0.00 559.00 1203.00" xmlns="http://www.w3.org/2000/svg" xmlns:xlink="http://www.w3.org/1999/xlink">
<g id="graph0" class="graph" transform="scale(1 1) rotate(0) translate(4 1199)">
<title>Circ</title>
<polygon fill="white" stroke="transparent" points="-4,4 -4,-1199 555,-1199 555,4 -4,4"/>
<!-- x0 -->
<g id="node1" class="node">
<title>x0</title>
<ellipse fill="none" stroke="black" cx="384" cy="-18" rx="27" ry="18"/>
<text text-anchor="middle" x="384" y="-14.3" font-family="Times,serif" font-size="14.00">x0</text>
</g>
<!-- x3 -->
<g id="node4" class="node">
<title>x3</title>
<ellipse fill="none" stroke="black" cx="373" cy="-159" rx="40.09" ry="18"/>
<text text-anchor="middle" x="373" y="-155.3" font-family="Times,serif" font-size="14.00">f3: OR</text>
</g>
<!-- x0&#45;&gt;x3 -->
<g id="edge1" class="edge">
<title>x0&#45;&gt;x3</title>
<path fill="none" stroke="black" d="M382.65,-36.04C380.78,-59.7 377.37,-102.74 375.15,-130.85"/>
<polygon fill="black" stroke="black" points="371.66,-130.57 374.36,-140.82 378.64,-131.12 371.66,-130.57"/>
<text text-anchor="middle" x="392.5" y="-57.8" font-family="Times,serif" font-size="14.00">in1</text>
</g>
<!-- x4 -->
<g id="node5" class="node">
<title>x4</title>
<ellipse fill="none" stroke="black" cx="257" cy="-105" rx="47.39" ry="18"/>
<text text-anchor="middle" x="257" y="-101.3" font-family="Times,serif" font-size="14.00">f4: AND</text>
</g>
<!-- x0&#45;&gt;x4 -->
<g id="edge3" class="edge">
<title>x0&#45;&gt;x4</title>
<path fill="none" stroke="black" d="M358.47,-24.58C339.05,-29.77 312.43,-39.01 293,-54 284.36,-60.66 276.89,-69.95 271.03,-78.72"/>
<polygon fill="black" stroke="black" points="268.06,-76.86 265.72,-87.2 274,-80.58 268.06,-76.86"/>
<text text-anchor="middle" x="304.5" y="-57.8" font-family="Times,serif" font-size="14.00">in1</text>
</g>
<!-- x18 -->
<g id="node19" class="node">
<title>x18</title>
<ellipse fill="none" stroke="black" cx="299" cy="-1017" rx="46.29" ry="18"/>
<text text-anchor="middle" x="299" y="-1013.3" font-family="Times,serif" font-size="14.00">f18: OR</text>
</g>
<!-- x0&#45;&gt;x18 -->
<g id="edge31" class="edge">
<title>x0&#45;&gt;x18</title>
<path fill="none" stroke="black" d="M408.95,-25.38C442.78,-35.71 499,-59.56 499,-104 499,-104 499,-104 499,-910 499,-976.12 412.59,-1001.12 353.37,-1010.48"/>
<polygon fill="black" stroke="black" points="352.77,-1007.03 343.39,-1011.96 353.79,-1013.96 352.77,-1007.03"/>
<text text-anchor="middle" x="510.5" y="-513.8" font-family="Times,serif" font-size="14.00">in1</text>
</g>
<!-- x1 -->
<g id="node2" class="node">
<title>x1</title>
<ellipse fill="none" stroke="black" cx="246" cy="-18" rx="27" ry="18"/>
<text text-anchor="middle" x="246" y="-14.3" font-family="Times,serif" font-size="14.00">x1</text>
</g>
<!-- x1&#45;&gt;x3 -->
<g id="edge2" class="edge">
<title>x1&#45;&gt;x3</title>
<path fill="none" stroke="black" d="M269.94,-26.79C284.6,-32.51 302.98,-41.47 316,-54 338.61,-75.77 354.5,-108.49 363.66,-131.4"/>
<polygon fill="black" stroke="black" points="360.44,-132.77 367.29,-140.86 366.98,-130.27 360.44,-132.77"/>
<text text-anchor="middle" x="340.5" y="-57.8" font-family="Times,serif" font-size="14.00">in2</text>
</g>
<!-- x1&#45;&gt;x4 -->
<g id="edge4" class="edge">
<title>x1&#45;&gt;x4</title>
<path fill="none" stroke="black" d="M245.25,-36.22C245.11,-45.9 245.37,-58.18 247,-69 247.41,-71.72 247.97,-74.52 248.61,-77.31"/>
<polygon fill="black" stroke="black" points="245.27,-78.34 251.22,-87.1 252.03,-76.54 245.27,-78.34"/>
<text text-anchor="middle" x="258.5" y="-57.8" font-family="Times,serif" font-size="14.00">in2</text>
</g>
<!-- x16 -->
<g id="node17" class="node">
<title>x16</title>
<ellipse fill="none" stroke="black" cx="71" cy="-1017" rx="46.29" ry="18"/>
<text text-anchor="middle" x="71" y="-1013.3" font-family="Times,serif" font-size="14.00">f16: OR</text>
</g>
<!-- x1&#45;&gt;x16 -->
<g id="edge27" class="edge">
<title>x1&#45;&gt;x16</title>
<path fill="none" stroke="black" d="M234.93,-34.61C225.49,-48.19 211.77,-68.53 201,-87 143.73,-185.24 138.62,-214.74 91,-318 68.02,-367.83 38,-374.63 38,-429.5 38,-429.5 38,-429.5 38,-910 38,-938.29 48.85,-968.98 58.1,-990.02"/>
<polygon fill="black" stroke="black" points="54.98,-991.61 62.33,-999.24 61.34,-988.69 54.98,-991.61"/>
<text text-anchor="middle" x="49.5" y="-513.8" font-family="Times,serif" font-size="14.00">in1</text>
</g>
<!-- x2 -->
<g id="node3" class="node">
<title>x2</title>
<ellipse fill="none" stroke="black" cx="57" cy="-18" rx="27" ry="18"/>
<text text-anchor="middle" x="57" y="-14.3" font-family="Times,serif" font-size="14.00">x2</text>
</g>
<!-- x5 -->
<g id="node6" class="node">
<title>x5</title>
<ellipse fill="none" stroke="black" cx="195" cy="-213" rx="40.09" ry="18"/>
<text text-anchor="middle" x="195" y="-209.3" font-family="Times,serif" font-size="14.00">f5: OR</text>
</g>
<!-- x2&#45;&gt;x5 -->
<g id="edge5" class="edge">
<title>x2&#45;&gt;x5</title>
<path fill="none" stroke="black" d="M68.06,-34.47C91.95,-67.89 148.56,-147.06 177.42,-187.42"/>
<polygon fill="black" stroke="black" points="174.64,-189.54 183.3,-195.64 180.34,-185.47 174.64,-189.54"/>
<text text-anchor="middle" x="142.5" y="-101.3" font-family="Times,serif" font-size="14.00">in1</text>
</g>
<!-- x10 -->
<g id="node11" class="node">
<title>x10</title>
<ellipse fill="none" stroke="black" cx="193" cy="-561" rx="53.09" ry="18"/>
<text text-anchor="middle" x="193" y="-557.3" font-family="Times,serif" font-size="14.00">f10: AND</text>
</g>
<!-- x2&#45;&gt;x10 -->
<g id="edge15" class="edge">
<title>x2&#45;&gt;x10</title>
<path fill="none" stroke="black" d="M57,-36.26C57,-53.43 57,-80.54 57,-104 57,-104 57,-104 57,-257.5 57,-369.4 135.37,-485.73 173.13,-535.28"/>
<polygon fill="black" stroke="black" points="170.57,-537.7 179.46,-543.46 176.11,-533.41 170.57,-537.7"/>
<text text-anchor="middle" x="75.5" y="-296.3" font-family="Times,serif" font-size="14.00">in1</text>
</g>
<!-- x14 -->
<g id="node15" class="node">
<title>x14</title>
<ellipse fill="none" stroke="black" cx="157" cy="-822" rx="53.09" ry="18"/>
<text text-anchor="middle" x="157" y="-818.3" font-family="Times,serif" font-size="14.00">f14: AND</text>
</g>
<!-- x2&#45;&gt;x14 -->
<g id="edge23" class="edge">
<title>x2&#45;&gt;x14</title>
<path fill="none" stroke="black" d="M40.51,-32.47C23.68,-47.85 0,-74.68 0,-104 0,-104 0,-104 0,-736 0,-782.25 53.34,-803.46 97.84,-813.11"/>
<polygon fill="black" stroke="black" points="97.26,-816.57 107.75,-815.11 98.64,-809.7 97.26,-816.57"/>
<text text-anchor="middle" x="11.5" y="-426.8" font-family="Times,serif" font-size="14.00">in1</text>
</g>
<!-- x6 -->
<g id="node7" class="node">
<title>x6</title>
<ellipse fill="none" stroke="black" cx="242" cy="-300" rx="47.39" ry="18"/>
<text text-anchor="middle" x="242" y="-296.3" font-family="Times,serif" font-size="14.00">f6: AND</text>
</g>
<!-- x3&#45;&gt;x6 -->
<g id="edge7" class="edge">
<title>x3&#45;&gt;x6</title>
<path fill="none" stroke="black" d="M357.97,-175.95C335,-200.32 291,-247.01 264.3,-275.34"/>
<polygon fill="black" stroke="black" points="261.57,-273.13 257.26,-282.81 266.66,-277.94 261.57,-273.13"/>
<text text-anchor="middle" x="351.5" y="-209.3" font-family="Times,serif" font-size="14.00">in1</text>
</g>
<!-- x8 -->
<g id="node9" class="node">
<title>x8</title>
<ellipse fill="none" stroke="black" cx="349" cy="-561" rx="47.39" ry="18"/>
<text text-anchor="middle" x="349" y="-557.3" font-family="Times,serif" font-size="14.00">f8: AND</text>
</g>
<!-- x3&#45;&gt;x8 -->
<g id="edge11" class="edge">
<title>x3&#45;&gt;x8</title>
<path fill="none" stroke="black" d="M375.02,-177.22C377.09,-196.33 380,-228.07 380,-255.5 380,-255.5 380,-255.5 380,-475 380,-495.88 371.64,-517.99 363.61,-534.43"/>
<polygon fill="black" stroke="black" points="360.45,-532.9 358.98,-543.39 366.68,-536.11 360.45,-532.9"/>
<text text-anchor="middle" x="391.5" y="-339.8" font-family="Times,serif" font-size="14.00">in1</text>
</g>
<!-- x4&#45;&gt;x5 -->
<g id="edge6" class="edge">
<title>x4&#45;&gt;x5</title>
<path fill="none" stroke="black" d="M246.9,-122.7C243.43,-128.48 239.52,-135.02 236,-141 227.14,-156.05 217.36,-172.98 209.57,-186.53"/>
<polygon fill="black" stroke="black" points="206.47,-184.9 204.53,-195.31 212.54,-188.38 206.47,-184.9"/>
<text text-anchor="middle" x="247.5" y="-155.3" font-family="Times,serif" font-size="14.00">in2</text>
</g>
<!-- x9 -->
<g id="node10" class="node">
<title>x9</title>
<ellipse fill="none" stroke="black" cx="312" cy="-474" rx="40.09" ry="18"/>
<text text-anchor="middle" x="312" y="-470.3" font-family="Times,serif" font-size="14.00">f9: OR</text>
</g>
<!-- x4&#45;&gt;x9 -->
<g id="edge13" class="edge">
<title>x4&#45;&gt;x9</title>
<path fill="none" stroke="black" d="M261.98,-123.31C270.79,-154.67 289.03,-223.07 298,-282 306.81,-339.89 310.12,-408.52 311.33,-445.72"/>
<polygon fill="black" stroke="black" points="307.84,-445.89 311.63,-455.78 314.83,-445.68 307.84,-445.89"/>
<text text-anchor="middle" x="314.5" y="-296.3" font-family="Times,serif" font-size="14.00">in1</text>
</g>
<!-- x5&#45;&gt;x6 -->
<g id="edge8" class="edge">
<title>x5&#45;&gt;x6</title>
<path fill="none" stroke="black" d="M204.29,-230.79C210.98,-242.9 220.14,-259.47 227.76,-273.24"/>
<polygon fill="black" stroke="black" points="224.83,-275.18 232.73,-282.24 230.96,-271.8 224.83,-275.18"/>
<text text-anchor="middle" x="233.5" y="-252.8" font-family="Times,serif" font-size="14.00">in2</text>
</g>
<!-- x7 -->
<g id="node8" class="node">
<title>x7</title>
<ellipse fill="none" stroke="black" cx="231" cy="-387" rx="52.79" ry="18"/>
<text text-anchor="middle" x="231" y="-383.3" font-family="Times,serif" font-size="14.00">f7: NOT2</text>
</g>
<!-- x5&#45;&gt;x7 -->
<g id="edge9" class="edge">
<title>x5&#45;&gt;x7</title>
<path fill="none" stroke="black" d="M182.91,-230.55C169.29,-251.35 150.57,-287.98 163,-318 170.58,-336.31 185.76,-352.26 199.85,-364.1"/>
<polygon fill="black" stroke="black" points="197.96,-367.07 207.95,-370.59 202.33,-361.61 197.96,-367.07"/>
<text text-anchor="middle" x="174.5" y="-296.3" font-family="Times,serif" font-size="14.00">in1</text>
</g>
<!-- x6&#45;&gt;x7 -->
<g id="edge10" class="edge">
<title>x6&#45;&gt;x7</title>
<path fill="none" stroke="black" d="M239.77,-318.2C238.27,-329.84 236.25,-345.45 234.52,-358.76"/>
<polygon fill="black" stroke="black" points="231.04,-358.46 233.22,-368.82 237.98,-359.36 231.04,-358.46"/>
<text text-anchor="middle" x="249.5" y="-339.8" font-family="Times,serif" font-size="14.00">in2</text>
</g>
<!-- x7&#45;&gt;x8 -->
<g id="edge12" class="edge">
<title>x7&#45;&gt;x8</title>
<path fill="none" stroke="black" d="M228.06,-405.28C225.27,-427.17 223.62,-465.27 240,-492 254.9,-516.32 282.11,-533.31 305.62,-544.23"/>
<polygon fill="black" stroke="black" points="304.52,-547.57 315.08,-548.4 307.34,-541.16 304.52,-547.57"/>
<text text-anchor="middle" x="251.5" y="-470.3" font-family="Times,serif" font-size="14.00">in2</text>
</g>
<!-- x7&#45;&gt;x9 -->
<g id="edge14" class="edge">
<title>x7&#45;&gt;x9</title>
<path fill="none" stroke="black" d="M246.62,-404.39C258.87,-417.25 276.1,-435.32 289.79,-449.69"/>
<polygon fill="black" stroke="black" points="287.55,-452.41 296.98,-457.24 292.61,-447.58 287.55,-452.41"/>
<text text-anchor="middle" x="288.5" y="-426.8" font-family="Times,serif" font-size="14.00">in2</text>
</g>
<!-- x17 -->
<g id="node18" class="node">
<title>x17</title>
<ellipse fill="none" stroke="black" cx="153" cy="-963" rx="46.29" ry="18"/>
<text text-anchor="middle" x="153" y="-959.3" font-family="Times,serif" font-size="14.00">f17: OR</text>
</g>
<!-- x7&#45;&gt;x17 -->
<g id="edge29" class="edge">
<title>x7&#45;&gt;x17</title>
<path fill="none" stroke="black" d="M216.58,-404.77C194.18,-431.85 151.48,-487.75 131,-543 84.78,-667.67 65.74,-710.29 95,-840 102.97,-875.34 122.45,-912.46 136.64,-936.34"/>
<polygon fill="black" stroke="black" points="133.78,-938.38 141.97,-945.11 139.77,-934.75 133.78,-938.38"/>
<text text-anchor="middle" x="111.5" y="-644.3" font-family="Times,serif" font-size="14.00">in1</text>
</g>
<!-- x11 -->
<g id="node12" class="node">
<title>x11</title>
<ellipse fill="none" stroke="black" cx="267" cy="-648" rx="46.29" ry="18"/>
<text text-anchor="middle" x="267" y="-644.3" font-family="Times,serif" font-size="14.00">f11: OR</text>
</g>
<!-- x8&#45;&gt;x11 -->
<g id="edge17" class="edge">
<title>x8&#45;&gt;x11</title>
<path fill="none" stroke="black" d="M331.4,-578.1C325.17,-583.95 318.17,-590.67 312,-597 303.97,-605.24 295.45,-614.54 288.02,-622.86"/>
<polygon fill="black" stroke="black" points="285.28,-620.68 281.27,-630.48 290.52,-625.32 285.28,-620.68"/>
<text text-anchor="middle" x="323.5" y="-600.8" font-family="Times,serif" font-size="14.00">in1</text>
</g>
<!-- x12 -->
<g id="node13" class="node">
<title>x12</title>
<ellipse fill="none" stroke="black" cx="305" cy="-735" rx="58.49" ry="18"/>
<text text-anchor="middle" x="305" y="-731.3" font-family="Times,serif" font-size="14.00">f12: NOT2</text>
</g>
<!-- x8&#45;&gt;x12 -->
<g id="edge19" class="edge">
<title>x8&#45;&gt;x12</title>
<path fill="none" stroke="black" d="M345.3,-578.97C339.56,-604.95 327.9,-656.09 316,-699 315.26,-701.67 314.45,-704.44 313.63,-707.21"/>
<polygon fill="black" stroke="black" points="310.21,-706.39 310.61,-716.98 316.9,-708.46 310.21,-706.39"/>
<text text-anchor="middle" x="345.5" y="-644.3" font-family="Times,serif" font-size="14.00">in1</text>
</g>
<!-- x19 -->
<g id="node20" class="node">
<title>x19</title>
<ellipse fill="none" stroke="black" cx="400" cy="-909" rx="46.29" ry="18"/>
<text text-anchor="middle" x="400" y="-905.3" font-family="Times,serif" font-size="14.00">f19: OR</text>
</g>
<!-- x8&#45;&gt;x19 -->
<g id="edge33" class="edge">
<title>x8&#45;&gt;x19</title>
<path fill="none" stroke="black" d="M365.7,-577.88C380.57,-593.8 400,-619.81 400,-647 400,-647 400,-647 400,-823 400,-842.25 400,-863.95 400,-880.6"/>
<polygon fill="black" stroke="black" points="396.5,-880.74 400,-890.74 403.5,-880.74 396.5,-880.74"/>
<text text-anchor="middle" x="411.5" y="-731.3" font-family="Times,serif" font-size="14.00">in1</text>
</g>
<!-- x9&#45;&gt;x10 -->
<g id="edge16" class="edge">
<title>x9&#45;&gt;x10</title>
<path fill="none" stroke="black" d="M291.54,-489.61C272.74,-503.05 244.61,-523.13 223.22,-538.42"/>
<polygon fill="black" stroke="black" points="220.9,-535.77 214.8,-544.43 224.97,-541.46 220.9,-535.77"/>
<text text-anchor="middle" x="271.5" y="-513.8" font-family="Times,serif" font-size="14.00">in2</text>
</g>
<!-- x13 -->
<g id="node14" class="node">
<title>x13</title>
<ellipse fill="none" stroke="black" cx="319" cy="-822" rx="53.09" ry="18"/>
<text text-anchor="middle" x="319" y="-818.3" font-family="Times,serif" font-size="14.00">f13: AND</text>
</g>
<!-- x9&#45;&gt;x13 -->
<g id="edge21" class="edge">
<title>x9&#45;&gt;x13</title>
<path fill="none" stroke="black" d="M338.96,-487.41C360.42,-498.76 389.36,-517.63 405,-543 415.45,-559.96 424.09,-663.16 427,-717 427.86,-732.98 434.73,-738.99 427,-753 413.68,-777.12 387.82,-793.86 364.74,-804.69"/>
<polygon fill="black" stroke="black" points="363.12,-801.58 355.39,-808.83 365.95,-807.97 363.12,-801.58"/>
<text text-anchor="middle" x="434.5" y="-644.3" font-family="Times,serif" font-size="14.00">in1</text>
</g>
<!-- x10&#45;&gt;x11 -->
<g id="edge18" class="edge">
<title>x10&#45;&gt;x11</title>
<path fill="none" stroke="black" d="M207.27,-578.39C218.22,-590.97 233.52,-608.54 245.89,-622.75"/>
<polygon fill="black" stroke="black" points="243.57,-625.42 252.78,-630.66 248.85,-620.82 243.57,-625.42"/>
<text text-anchor="middle" x="246.5" y="-600.8" font-family="Times,serif" font-size="14.00">in2</text>
</g>
<!-- x15 -->
<g id="node16" class="node">
<title>x15</title>
<ellipse fill="none" stroke="black" cx="264" cy="-909" rx="46.29" ry="18"/>
<text text-anchor="middle" x="264" y="-905.3" font-family="Times,serif" font-size="14.00">f15: OR</text>
</g>
<!-- x10&#45;&gt;x15 -->
<g id="edge25" class="edge">
<title>x10&#45;&gt;x15</title>
<path fill="none" stroke="black" d="M193.87,-579.04C195.81,-612.64 201.47,-689.67 215,-753 224.85,-799.12 242.72,-851.08 253.94,-881.6"/>
<polygon fill="black" stroke="black" points="250.71,-882.93 257.47,-891.09 257.27,-880.49 250.71,-882.93"/>
<text text-anchor="middle" x="226.5" y="-731.3" font-family="Times,serif" font-size="14.00">in1</text>
</g>
<!-- x11&#45;&gt;x12 -->
<g id="edge20" class="edge">
<title>x11&#45;&gt;x12</title>
<path fill="none" stroke="black" d="M274.51,-665.79C279.83,-677.71 287.09,-693.94 293.19,-707.58"/>
<polygon fill="black" stroke="black" points="290.1,-709.25 297.38,-716.95 296.49,-706.39 290.1,-709.25"/>
<text text-anchor="middle" x="300.5" y="-687.8" font-family="Times,serif" font-size="14.00">in2</text>
</g>
<!-- x12&#45;&gt;x13 -->
<g id="edge22" class="edge">
<title>x12&#45;&gt;x13</title>
<path fill="none" stroke="black" d="M307.83,-753.2C309.75,-764.84 312.32,-780.45 314.51,-793.76"/>
<polygon fill="black" stroke="black" points="311.09,-794.53 316.17,-803.82 318,-793.39 311.09,-794.53"/>
<text text-anchor="middle" x="324.5" y="-774.8" font-family="Times,serif" font-size="14.00">in2</text>
</g>
<!-- x12&#45;&gt;x14 -->
<g id="edge24" class="edge">
<title>x12&#45;&gt;x14</title>
<path fill="none" stroke="black" d="M278.54,-751.2C254.29,-765.12 218.24,-785.83 191.69,-801.07"/>
<polygon fill="black" stroke="black" points="189.66,-798.2 182.73,-806.22 193.15,-804.27 189.66,-798.2"/>
<text text-anchor="middle" x="251.5" y="-774.8" font-family="Times,serif" font-size="14.00">in2</text>
</g>
<!-- x13&#45;&gt;x15 -->
<g id="edge26" class="edge">
<title>x13&#45;&gt;x15</title>
<path fill="none" stroke="black" d="M308.13,-839.79C300.22,-852.02 289.37,-868.79 280.41,-882.64"/>
<polygon fill="black" stroke="black" points="277.34,-880.94 274.84,-891.24 283.21,-884.75 277.34,-880.94"/>
<text text-anchor="middle" x="306.5" y="-861.8" font-family="Times,serif" font-size="14.00">in2</text>
</g>
<!-- x13&#45;&gt;x19 -->
<g id="edge34" class="edge">
<title>x13&#45;&gt;x19</title>
<path fill="none" stroke="black" d="M332.9,-839.55C341.38,-849.46 352.56,-862.18 363,-873 366.91,-877.06 371.17,-881.26 375.36,-885.29"/>
<polygon fill="black" stroke="black" points="373.07,-887.95 382.74,-892.29 377.89,-882.87 373.07,-887.95"/>
<text text-anchor="middle" x="374.5" y="-861.8" font-family="Times,serif" font-size="14.00">in2</text>
</g>
<!-- x14&#45;&gt;x17 -->
<g id="edge30" class="edge">
<title>x14&#45;&gt;x17</title>
<path fill="none" stroke="black" d="M156.51,-840.04C155.83,-863.6 154.6,-906.36 153.79,-934.47"/>
<polygon fill="black" stroke="black" points="150.28,-934.72 153.49,-944.82 157.28,-934.92 150.28,-934.72"/>
<text text-anchor="middle" x="167.5" y="-861.8" font-family="Times,serif" font-size="14.00">in2</text>
</g>
<!-- x15&#45;&gt;x16 -->
<g id="edge28" class="edge">
<title>x15&#45;&gt;x16</title>
<path fill="none" stroke="black" d="M218.48,-912.14C168.68,-915.51 93.47,-924.03 75,-945 64.69,-956.71 63.58,-974.15 65.11,-988.82"/>
<polygon fill="black" stroke="black" points="61.67,-989.5 66.58,-998.88 68.59,-988.48 61.67,-989.5"/>
<text text-anchor="middle" x="86.5" y="-959.3" font-family="Times,serif" font-size="14.00">in2</text>
</g>
<!-- x15&#45;&gt;x18 -->
<g id="edge32" class="edge">
<title>x15&#45;&gt;x18</title>
<path fill="none" stroke="black" d="M269.62,-927.03C275.19,-943.88 283.78,-969.9 290.24,-989.46"/>
<polygon fill="black" stroke="black" points="286.93,-990.61 293.39,-999.01 293.58,-988.42 286.93,-990.61"/>
<text text-anchor="middle" x="298.5" y="-959.3" font-family="Times,serif" font-size="14.00">in2</text>
</g>
<!-- x21 -->
<g id="node22" class="node">
<title>x21</title>
<ellipse fill="none" stroke="black" cx="123" cy="-1104" rx="53.09" ry="18"/>
<text text-anchor="middle" x="123" y="-1100.3" font-family="Times,serif" font-size="14.00">f21: AND</text>
</g>
<!-- x16&#45;&gt;x21 -->
<g id="edge37" class="edge">
<title>x16&#45;&gt;x21</title>
<path fill="none" stroke="black" d="M81.27,-1034.79C88.75,-1047.02 99.01,-1063.79 107.48,-1077.64"/>
<polygon fill="black" stroke="black" points="104.54,-1079.54 112.75,-1086.24 110.51,-1075.88 104.54,-1079.54"/>
<text text-anchor="middle" x="112.5" y="-1056.8" font-family="Times,serif" font-size="14.00">in1</text>
</g>
<!-- x20 -->
<g id="node21" class="node">
<title>x20</title>
<ellipse fill="none" stroke="black" cx="269" cy="-1104" rx="53.09" ry="18"/>
<text text-anchor="middle" x="269" y="-1100.3" font-family="Times,serif" font-size="14.00">f20: AND</text>
</g>
<!-- x17&#45;&gt;x20 -->
<g id="edge35" class="edge">
<title>x17&#45;&gt;x20</title>
<path fill="none" stroke="black" d="M166.53,-980.22C186.77,-1004.46 225.05,-1050.34 248.66,-1078.63"/>
<polygon fill="black" stroke="black" points="246.1,-1081.02 255.19,-1086.46 251.47,-1076.54 246.1,-1081.02"/>
<text text-anchor="middle" x="222.5" y="-1013.3" font-family="Times,serif" font-size="14.00">in1</text>
</g>
<!-- x17&#45;&gt;x21 -->
<g id="edge38" class="edge">
<title>x17&#45;&gt;x21</title>
<path fill="none" stroke="black" d="M149.32,-981.04C144.22,-1004.7 134.93,-1047.74 128.86,-1075.85"/>
<polygon fill="black" stroke="black" points="125.4,-1075.3 126.71,-1085.82 132.24,-1076.78 125.4,-1075.3"/>
<text text-anchor="middle" x="157.5" y="-1013.3" font-family="Times,serif" font-size="14.00">in2</text>
</g>
<!-- x18&#45;&gt;x20 -->
<g id="edge36" class="edge">
<title>x18&#45;&gt;x20</title>
<path fill="none" stroke="black" d="M292.93,-1035.2C288.78,-1046.95 283.2,-1062.76 278.47,-1076.16"/>
<polygon fill="black" stroke="black" points="275.09,-1075.23 275.06,-1085.82 281.69,-1077.56 275.09,-1075.23"/>
<text text-anchor="middle" x="297.5" y="-1056.8" font-family="Times,serif" font-size="14.00">in2</text>
</g>
<!-- g2 -->
<g id="node25" class="node">
<title>g2</title>
<ellipse fill="none" stroke="black" cx="524" cy="-1177" rx="27" ry="18"/>
<text text-anchor="middle" x="524" y="-1173.3" font-family="Times,serif" font-size="14.00">g2</text>
</g>
<!-- x19&#45;&gt;g2 -->
<g id="edge41" class="edge">
<title>x19&#45;&gt;g2</title>
<path fill="none" stroke="black" d="M407.95,-927.04C429.08,-972.38 486.78,-1096.16 511.97,-1150.2"/>
<polygon fill="black" stroke="black" points="508.88,-1151.85 516.28,-1159.44 515.23,-1148.9 508.88,-1151.85"/>
</g>
<!-- g1 -->
<g id="node24" class="node">
<title>g1</title>
<ellipse fill="none" stroke="black" cx="269" cy="-1177" rx="27" ry="18"/>
<text text-anchor="middle" x="269" y="-1173.3" font-family="Times,serif" font-size="14.00">g1</text>
</g>
<!-- x20&#45;&gt;g1 -->
<g id="edge40" class="edge">
<title>x20&#45;&gt;g1</title>
<path fill="none" stroke="black" d="M269,-1122.19C269,-1130.21 269,-1139.95 269,-1148.93"/>
<polygon fill="black" stroke="black" points="265.5,-1148.97 269,-1158.97 272.5,-1148.97 265.5,-1148.97"/>
</g>
<!-- g0 -->
<g id="node23" class="node">
<title>g0</title>
<ellipse fill="none" stroke="black" cx="123" cy="-1177" rx="27" ry="18"/>
<text text-anchor="middle" x="123" y="-1173.3" font-family="Times,serif" font-size="14.00">g0</text>
</g>
<!-- x21&#45;&gt;g0 -->
<g id="edge39" class="edge">
<title>x21&#45;&gt;g0</title>
<path fill="none" stroke="black" d="M123,-1122.19C123,-1130.21 123,-1139.95 123,-1148.93"/>
<polygon fill="black" stroke="black" points="119.5,-1148.97 123,-1158.97 126.5,-1148.97 119.5,-1148.97"/>
</g>
</g>
</svg>
