<?xml version="1.0" encoding="UTF-8"?>
<svg width="1416px" height="560px" viewBox="0 0 1416 560" version="1.1" xmlns="http://www.w3.org/2000/svg" xmlns:xlink="http://www.w3.org/1999/xlink">
    <g id="Artboard" stroke="none" stroke-width="1" fill="none" fill-rule="evenodd">
        <g id="3" transform="translate(1103.000000, 20.000000)">
            <g id="segments" stroke="#808080" stroke-width="0.95">
                <polygon id="g" fill="#F6F4F0" points="82 440 215 440 253 478 215 516 82 516 44 478"></polygon>
                <polygon id="f" fill="#A6E22E" transform="translate(258.500000, 368.000000) rotate(-270.000000) translate(-258.500000, -368.000000) " points="192 330 325 330 363 368 325 406 192 406 154 368"></polygon>
                <polygon id="e" fill="#F6F4F0" transform="translate(38.500000, 368.000000) rotate(-270.000000) translate(-38.500000, -368.000000) " points="-28 330 105 330 143 368 105 406 -28 406 -66 368"></polygon>
                <polygon id="d" fill="#A6E22E" points="82 220 215 220 253 258 215 296 82 296 44 258"></polygon>
                <polygon id="c" fill="#A6E22E" transform="translate(258.500000, 148.000000) rotate(-270.000000) translate(-258.500000, -148.000000) " points="192 110 325 110 363 148 325 186 192 186 154 148"></polygon>
                <polygon id="b" fill="#A6E22E" transform="translate(38.500000, 148.000000) rotate(-270.000000) translate(-38.500000, -148.000000) " points="-28 110 105 110 143 148 105 186 -28 186 -66 148"></polygon>
                <polygon id="a" fill="#A6E22E" points="82 0 215 0 253 38 215 76 82 76 44 38"></polygon>
            </g>
            <g id="labels" transform="translate(25.000000, 5.000000)" fill="#000000" font-family="RobotoSlab-Regular, Roboto Slab" font-size="45" font-weight="normal">
                <text id="g">
                    <tspan x="113" y="483">g</tspan>
                </text>
                <text id="f">
                    <tspan x="225.501953" y="371">f</tspan>
                </text>
                <text id="e">
                    <tspan x="1.40405273" y="371">e</tspan>
                </text>
                <text id="d">
                    <tspan x="110.497803" y="267">d</tspan>
                </text>
                <text id="c">
                    <tspan x="221.371094" y="151">c</tspan>
                </text>
                <text id="b">
                    <tspan x="0.470214844" y="151">b</tspan>
                </text>
                <text id="a">
                    <tspan x="111.607422" y="47">a</tspan>
                </text>
            </g>
        </g>
        <g id="5" transform="translate(743.000000, 20.000000)">
            <g id="segments" stroke="#808080" stroke-width="0.95">
                <polygon id="g" fill="#F6F4F0" points="82 440 215 440 253 478 215 516 82 516 44 478"></polygon>
                <polygon id="f" fill="#A6E22E" transform="translate(258.500000, 368.000000) rotate(-270.000000) translate(-258.500000, -368.000000) " points="192 330 325 330 363 368 325 406 192 406 154 368"></polygon>
                <polygon id="e" fill="#A6E22E" transform="translate(38.500000, 368.000000) rotate(-270.000000) translate(-38.500000, -368.000000) " points="-28 330 105 330 143 368 105 406 -28 406 -66 368"></polygon>
                <polygon id="d" fill="#A6E22E" points="82 220 215 220 253 258 215 296 82 296 44 258"></polygon>
                <polygon id="c" fill="#A6E22E" transform="translate(258.500000, 148.000000) rotate(-270.000000) translate(-258.500000, -148.000000) " points="192 110 325 110 363 148 325 186 192 186 154 148"></polygon>
                <polygon id="b" fill="#A6E22E" transform="translate(38.500000, 148.000000) rotate(-270.000000) translate(-38.500000, -148.000000) " points="-28 110 105 110 143 148 105 186 -28 186 -66 148"></polygon>
                <polygon id="a" fill="#F6F4F0" points="82 0 215 0 253 38 215 76 82 76 44 38"></polygon>
            </g>
            <g id="labels" transform="translate(25.000000, 5.000000)" fill="#000000" font-family="RobotoSlab-Regular, Roboto Slab" font-size="45" font-weight="normal">
                <text id="g">
                    <tspan x="113" y="483">g</tspan>
                </text>
                <text id="f">
                    <tspan x="225.501953" y="371">f</tspan>
                </text>
                <text id="e">
                    <tspan x="1.40405273" y="371">e</tspan>
                </text>
                <text id="d">
                    <tspan x="110.497803" y="267">d</tspan>
                </text>
                <text id="c">
                    <tspan x="221.371094" y="151">c</tspan>
                </text>
                <text id="b">
                    <tspan x="0.470214844" y="151">b</tspan>
                </text>
                <text id="a">
                    <tspan x="111.607422" y="47">a</tspan>
                </text>
            </g>
        </g>
        <g id="3" transform="translate(383.000000, 20.000000)">
            <g id="segments" stroke="#808080" stroke-width="0.95">
                <polygon id="g" fill="#F6F4F0" points="82 440 215 440 253 478 215 516 82 516 44 478"></polygon>
                <polygon id="f" fill="#A6E22E" transform="translate(258.500000, 368.000000) rotate(-270.000000) translate(-258.500000, -368.000000) " points="192 330 325 330 363 368 325 406 192 406 154 368"></polygon>
                <polygon id="e" fill="#F6F4F0" transform="translate(38.500000, 368.000000) rotate(-270.000000) translate(-38.500000, -368.000000) " points="-28 330 105 330 143 368 105 406 -28 406 -66 368"></polygon>
                <polygon id="d" fill="#A6E22E" points="82 220 215 220 253 258 215 296 82 296 44 258"></polygon>
                <polygon id="c" fill="#A6E22E" transform="translate(258.500000, 148.000000) rotate(-270.000000) translate(-258.500000, -148.000000) " points="192 110 325 110 363 148 325 186 192 186 154 148"></polygon>
                <polygon id="b" fill="#A6E22E" transform="translate(38.500000, 148.000000) rotate(-270.000000) translate(-38.500000, -148.000000) " points="-28 110 105 110 143 148 105 186 -28 186 -66 148"></polygon>
                <polygon id="a" fill="#A6E22E" points="82 0 215 0 253 38 215 76 82 76 44 38"></polygon>
            </g>
            <g id="labels" transform="translate(25.000000, 5.000000)" fill="#000000" font-family="RobotoSlab-Regular, Roboto Slab" font-size="45" font-weight="normal">
                <text id="g">
                    <tspan x="113" y="483">g</tspan>
                </text>
                <text id="f">
                    <tspan x="225.501953" y="371">f</tspan>
                </text>
                <text id="e">
                    <tspan x="1.40405273" y="371">e</tspan>
                </text>
                <text id="d">
                    <tspan x="110.497803" y="267">d</tspan>
                </text>
                <text id="c">
                    <tspan x="221.371094" y="151">c</tspan>
                </text>
                <text id="b">
                    <tspan x="0.470214844" y="151">b</tspan>
                </text>
                <text id="a">
                    <tspan x="111.607422" y="47">a</tspan>
                </text>
            </g>
        </g>
        <g id="5" transform="translate(23.000000, 20.000000)">
            <g id="segments" stroke="#808080" stroke-width="0.95">
                <polygon id="g" fill="#F6F4F0" points="82 440 215 440 253 478 215 516 82 516 44 478"></polygon>
                <polygon id="f" fill="#A6E22E" transform="translate(258.500000, 368.000000) rotate(-270.000000) translate(-258.500000, -368.000000) " points="192 330 325 330 363 368 325 406 192 406 154 368"></polygon>
                <polygon id="e" fill="#A6E22E" transform="translate(38.500000, 368.000000) rotate(-270.000000) translate(-38.500000, -368.000000) " points="-28 330 105 330 143 368 105 406 -28 406 -66 368"></polygon>
                <polygon id="d" fill="#A6E22E" points="82 220 215 220 253 258 215 296 82 296 44 258"></polygon>
                <polygon id="c" fill="#A6E22E" transform="translate(258.500000, 148.000000) rotate(-270.000000) translate(-258.500000, -148.000000) " points="192 110 325 110 363 148 325 186 192 186 154 148"></polygon>
                <polygon id="b" fill="#A6E22E" transform="translate(38.500000, 148.000000) rotate(-270.000000) translate(-38.500000, -148.000000) " points="-28 110 105 110 143 148 105 186 -28 186 -66 148"></polygon>
                <polygon id="a" fill="#F6F4F0" points="82 0 215 0 253 38 215 76 82 76 44 38"></polygon>
            </g>
            <g id="labels" transform="translate(25.000000, 5.000000)" fill="#000000" font-family="RobotoSlab-Regular, Roboto Slab" font-size="45" font-weight="normal">
                <text id="g">
                    <tspan x="113" y="483">g</tspan>
                </text>
                <text id="f">
                    <tspan x="225.501953" y="371">f</tspan>
                </text>
                <text id="e">
                    <tspan x="1.40405273" y="371">e</tspan>
                </text>
                <text id="d">
                    <tspan x="110.497803" y="267">d</tspan>
                </text>
                <text id="c">
                    <tspan x="221.371094" y="151">c</tspan>
                </text>
                <text id="b">
                    <tspan x="0.470214844" y="151">b</tspan>
                </text>
                <text id="a">
                    <tspan x="111.607422" y="47">a</tspan>
                </text>
            </g>
        </g>
    </g>
</svg>